<svg id="svgId1" data-name="Group 1052" width="412.583" height="178.925" viewBox="0 0 412.583 178.925"><defs><linearGradient id="linear-gradient" x1="0.108" y1="0.898" x2="0.896" y2="0.042" gradientUnits="objectBoundingBox"><stop offset="0" stop-color="#28d17d"></stop><stop offset="1" stop-color="#00b99a"></stop></linearGradient></defs><g id="Group_1049" data-name="Group 1049" transform="translate(0 0)"><g id="Group_1045" data-name="Group 1045" transform="matrix(1,0,0,1,0,78.972)" class="gradGround" data-svg-origin="206.29150390625 49.97850036621094" style="transform-origin: 0px 0px;"><path id="Path_6026" data-name="Path 6026" d="M88.772,65.7,412.583,52.026V65.7l-88.772,86.128H0V137.9Z" transform="translate(0 -51.871)" fill="#0b8e6b"></path><path id="Path_6027" data-name="Path 6027" d="M0,14.219,323.811,0V28.157H0Z" transform="translate(0 71.795)" fill="#12ad83"></path><path id="Path_6025" data-name="Path 6025" d="M88.772,62.706H412.583l-88.772,86.128H0Z" transform="translate(0 -62.706)" fill="url(#linear-gradient)"></path></g><g id="Group_1046" data-name="Group 1046" transform="translate(50.146)" class="whiteTrees" style="opacity: 1;"><path id="Path_6031" data-name="Path 6031" d="M280.791,486.968l12.123,2.707,3.864-2.5-19.458-34.589,5.291,1.82,3.831-2.525-14.594-22.59,5.285,1.84,3.837-2.545L261.51,403.176l4.628,1.813,3.884-2.519L251.173,370l-3.851,2.593-15.213,30.119,8.513.706-19.458,25.411,9.121.707-14.594,22.587,9.122.707-19.459,34.588,42.224-.216v17.26l3.121,2.554,3.851-2.554v-17.3l26.255-.134Z" transform="translate(-201.515 -370)" fill="#ddd"></path><path id="Path_6028" data-name="Path 6028" d="M280.791,486.968l15.987.209-19.458-34.589,9.122-.7-14.594-22.59,9.121-.7L261.51,403.176l8.513-.706L251.173,370l-19.064,32.712,8.513.706-19.458,25.411,9.121.707-14.594,22.587,9.122.707-19.459,34.588,42.224-.216v17.26h6.972v-17.3l26.255-.134Z" transform="translate(-205.355 -367.44)" fill="#fff"></path></g><g id="Group_1047" data-name="Group 1047" transform="translate(170.455 10.239)" class="whiteTrees" style="opacity: 1;"><path id="Path_6031-2" data-name="Path 6031" d="M255.9,448.38l8.124,1.814,2.589-1.674-13.039-23.178,3.545,1.22,2.567-1.692-9.78-15.137,3.541,1.233,2.571-1.705-13.039-17.029,3.1,1.215,2.6-1.688L236.058,370l-2.581,1.738L223.283,391.92l5.7.473-13.039,17.028,6.112.474-9.78,15.136,6.113.474-13.039,23.178,28.295-.145V460.1l2.092,1.711,2.581-1.711v-11.59l17.594-.09Z" transform="translate(-202.782 -370)" fill="#ddd"></path><path id="Path_6028-2" data-name="Path 6028" d="M255.9,448.38l10.713.14-13.039-23.178,6.112-.472-9.78-15.137,6.112-.472-13.039-17.029,5.7-.473L236.058,370l-12.775,21.92,5.7.473-13.039,17.028,6.112.474-9.78,15.136,6.113.474-13.039,23.178,28.295-.145V460.1h4.672v-11.59l17.594-.09Z" transform="translate(-205.355 -368.285)" fill="#fff"></path></g><g id="Group_1048" data-name="Group 1048" transform="translate(259.337 32.512)" class="whiteTrees" style="opacity: 1;"><path id="Path_6031-3" data-name="Path 6031" d="M269.009,468.7l10.23,2.284,3.26-2.108L266.08,439.689l4.464,1.536,3.233-2.13-12.315-19.062,4.459,1.552,3.238-2.147L252.74,397.995l3.906,1.53,3.278-2.126L244.017,370l-3.25,2.188L227.931,397.6l7.183.6-16.419,21.442,7.7.6L214.077,439.3l7.7.6-16.42,29.186,35.63-.183v14.565l2.634,2.155,3.25-2.155V468.867l22.154-.113Z" transform="translate(-202.115 -370)" fill="#ddd"></path><path id="Path_6028-3" data-name="Path 6028" d="M269.009,468.7l13.49.176L266.08,439.689l7.7-.594-12.315-19.062,7.7-.595L252.74,397.995l7.183-.6L244.017,370l-16.087,27.6,7.183.6-16.419,21.442,7.7.6L214.077,439.3l7.7.6-16.42,29.186,35.63-.183v14.565h5.884V468.867l22.154-.113Z" transform="translate(-205.355 -367.84)" fill="#fff"></path></g></g></svg>