<svg width="167" height="48" viewBox="0 0 167 48" fill="none" xmlns="http://www.w3.org/2000/svg">
<path d="M20.3063 37.0211L32.0124 30.1847C32.1634 30.0965 32.2562 29.9348 32.2562 29.7599V16.2388C32.2562 16.0646 32.1641 15.9034 32.014 15.815L20.5534 9.06106C20.4007 8.97105 20.2114 8.97018 20.0578 9.05879L8.34816 15.8157C8.1959 15.9036 8.10209 16.066 8.10209 16.2418V36.7395C8.10209 36.914 8.1945 37.0754 8.34495 37.1637L19.7435 43.8562C19.8951 43.9452 20.0826 43.9465 20.2355 43.8597L38.1729 33.6731C38.3268 33.5857 38.4219 33.4224 38.4219 33.2454V12.7546C38.4219 12.5776 38.3268 12.4143 38.1729 12.3269L20.2344 2.13966C20.0821 2.05319 19.8954 2.05417 19.744 2.14225L2.2445 12.326C2.09312 12.4141 2 12.576 2 12.7512V33.5317" stroke="white" stroke-width="3" stroke-linecap="round"/>
<path d="M14.2043 26.519V19.7913C14.2043 19.6161 14.2974 19.4542 14.4487 19.3661L20.0562 16.1012C20.2106 16.0113 20.4016 16.0122 20.5552 16.1035L26.0408 19.3654C26.19 19.4541 26.2813 19.6148 26.2813 19.7882V26.261C26.2813 26.4398 26.1843 26.6045 26.028 26.6912L20.2386 29.9015C20.084 29.9872 19.8953 29.9834 19.7443 29.8915L14.2043 26.519ZM14.2043 26.519V33.5296" stroke="#FBB92A" stroke-width="3.39" stroke-linecap="round"/>
<path d="M49.2263 9.60661C49.018 9.81489 48.9219 10.0712 48.9219 10.3756L49.0821 30.8514C49.0821 31.1719 49.1782 31.4282 49.3705 31.6205C49.5627 31.8127 49.8191 31.9089 50.1395 31.9089H51.0688C51.3892 31.9089 51.6456 31.8127 51.8539 31.6044C52.0461 31.4122 52.1422 31.1398 52.1422 30.8194L52.0036 23.7315C52.0005 23.5766 52.1253 23.4494 52.2802 23.4494H57.4615C58.615 23.4494 59.7365 23.2571 60.794 22.8406C61.8194 22.456 62.6044 21.9113 63.1171 21.2384C64.1425 19.8926 64.6712 18.2744 64.6712 16.3838C64.6712 14.4932 64.1425 12.875 63.1171 11.5132C62.6044 10.8403 61.8194 10.3116 60.7299 9.91102C59.6244 9.51048 58.4868 9.30219 57.3012 9.30219H49.9953C49.6909 9.30219 49.4346 9.41434 49.2263 9.60661ZM58.9355 20.2931C58.3747 20.4854 57.8139 20.5815 57.2532 20.5815H52.2748C52.1219 20.5815 51.998 20.4576 51.998 20.3048V12.4308C51.998 12.2779 52.1219 12.1541 52.2748 12.1541H57.2692C57.7498 12.1541 58.2625 12.2181 58.8393 12.3303C59.352 12.4425 59.7526 12.6027 60.0249 12.7949C61.0824 13.58 61.6111 14.7816 61.6111 16.3838C61.6111 17.8097 61.1945 18.8511 60.3774 19.508C59.9608 19.8445 59.4802 20.1008 58.9355 20.2931Z" fill="white"/>
<path d="M67.3629 24.2024C67.3629 25.0676 67.427 25.8526 67.5872 26.5416C67.7314 27.2305 67.9717 27.8554 68.3082 28.4161C69.0131 29.6498 69.9744 30.5951 71.1921 31.2359C72.3937 31.9089 73.7395 32.2293 75.2135 32.2293C76.6875 32.2293 78.0173 31.9089 79.219 31.252C80.4206 30.6111 81.3659 29.6658 82.0708 28.4161C82.7437 27.1985 83.0962 25.7886 83.0962 24.2024C83.0962 23.3052 83.0161 22.5361 82.8879 21.8632C82.7437 21.2224 82.5034 20.5975 82.1509 20.0047C81.43 18.8191 80.4687 17.8898 79.251 17.2169C78.0334 16.5761 76.6875 16.2556 75.2135 16.2556C73.7395 16.2556 72.3937 16.5761 71.2081 17.2169C69.9904 17.8578 69.0612 18.7871 68.3883 20.0047C67.6993 21.2384 67.3629 22.6323 67.3629 24.2024ZM72.6501 28.8487C71.849 28.4161 71.2401 27.8073 70.8236 27.0222C70.375 26.2372 70.1507 25.356 70.1507 24.3626C70.1507 23.3853 70.375 22.5041 70.8236 21.7351C71.2562 20.982 71.865 20.3892 72.6501 19.9566C73.4191 19.5401 74.2683 19.3318 75.2135 19.3318C76.1428 19.3318 77.008 19.5401 77.777 19.9566C78.5621 20.4052 79.1709 20.9981 79.6035 21.7511C80.0361 22.5361 80.2604 23.4013 80.2604 24.3626C80.2604 25.356 80.0361 26.2372 79.6035 27.0222C79.1549 27.8073 78.5461 28.4161 77.777 28.8487C76.9919 29.2973 76.1428 29.5056 75.2135 29.5056C74.2843 29.5056 73.4351 29.2973 72.6501 28.8487Z" fill="white"/>
<path d="M89.9055 31.6044C90.0977 31.4122 90.2099 31.1558 90.2099 30.8514V9.39832C90.2099 9.10993 90.1137 8.86961 89.9215 8.67735C89.7292 8.48508 89.5049 8.38895 89.2325 8.35691L88.3834 8.30885C88.0469 8.29282 87.7746 8.38895 87.5503 8.59724C87.326 8.80552 87.2298 9.07789 87.2298 9.39832V30.8514C87.2298 31.1558 87.326 31.4122 87.5342 31.6044C87.7265 31.8127 87.9829 31.9089 88.2873 31.9089H89.1524C89.4569 31.9089 89.7132 31.8127 89.9055 31.6044Z" fill="white"/>
<path d="M95.2087 16.8688C95.2087 16.716 95.3325 16.5921 95.4854 16.5921H97.7226C97.8743 16.5921 97.9977 16.7142 97.9993 16.8659L98.1537 31.6292C98.1553 31.7832 98.031 31.9089 97.877 31.9089H95.4854C95.3325 31.9089 95.2087 31.785 95.2087 31.6321V16.8688Z" fill="white"/>
<path d="M103.46 16.8965C103.252 17.0888 103.155 17.3451 103.155 17.6495V30.8514C103.155 31.1558 103.252 31.4122 103.46 31.6044C103.652 31.8127 103.908 31.9089 104.213 31.9089H105.046C105.366 31.9089 105.623 31.8127 105.831 31.6044C106.023 31.4122 106.119 31.1398 106.119 30.8194L105.975 23.6416C105.959 22.9687 106.087 22.3118 106.376 21.671C106.632 21.0782 107.017 20.5815 107.497 20.1809C107.882 19.8605 108.314 19.6522 108.827 19.5241C109.34 19.3959 109.933 19.3318 110.622 19.3318C111.679 19.3318 112.48 19.6683 113.057 20.3251C113.602 20.9981 113.858 21.9594 113.842 23.2411L113.698 30.8354C113.682 31.1558 113.778 31.4122 113.986 31.6205C114.194 31.8287 114.451 31.9249 114.755 31.9249H115.54C115.829 31.9249 116.085 31.8287 116.293 31.6365C116.486 31.4442 116.598 31.2039 116.614 30.8995L116.838 23.0488C116.87 22.0234 116.646 20.9981 116.181 20.0047C115.668 18.9953 114.979 18.1943 114.082 17.6175C113.169 17.0407 112.112 16.7363 110.926 16.7363C108.98 16.7363 107.578 17.1732 106.728 18.0394C106.529 18.2415 106.081 18.1329 106.061 17.8504L106.039 17.5534C106.023 17.265 105.911 17.0407 105.719 16.8644C105.527 16.6882 105.286 16.5921 105.014 16.5921H104.213C103.908 16.5921 103.652 16.7042 103.46 16.8965Z" fill="white"/>
<path d="M124.528 17.2169C123.311 17.8898 122.349 18.8351 121.677 20.0528C120.972 21.3025 120.619 22.6964 120.619 24.2344C120.619 25.7565 120.956 27.1344 121.661 28.368C122.333 29.5857 123.279 30.531 124.48 31.2039C125.65 31.8928 126.964 32.2293 128.406 32.2293C129.559 32.2293 130.617 31.989 131.594 31.5083C132.319 31.1581 132.907 30.6987 133.365 30.1369C133.525 29.9413 133.866 30.0041 133.917 30.2514L134.093 31.1078C134.125 31.3641 134.238 31.5564 134.43 31.7006C134.606 31.8448 134.814 31.9089 135.071 31.9089H135.68C135.984 31.9089 136.24 31.8127 136.433 31.6044C136.625 31.4122 136.737 31.1558 136.737 30.8514V17.4893C136.737 17.1849 136.625 16.9285 136.433 16.7363C136.24 16.544 135.984 16.4319 135.68 16.4319H134.83C134.526 16.4319 134.27 16.544 134.077 16.7363C133.869 16.9285 133.773 17.1849 133.773 17.4893V17.867C133.773 18.1489 133.357 18.2776 133.164 18.0727C132.745 17.6294 132.227 17.2587 131.61 16.9606C130.617 16.4959 129.543 16.2556 128.406 16.2556C126.996 16.2556 125.698 16.5761 124.528 17.2169ZM126.259 28.6404C125.458 28.1918 124.817 27.583 124.368 26.7979C123.904 26.0289 123.679 25.1637 123.679 24.2024C123.679 23.2091 123.904 22.3439 124.368 21.5909C124.833 20.8378 125.458 20.245 126.243 19.8124C127.012 19.3959 127.877 19.1716 128.822 19.1716C129.207 19.1716 129.591 19.2196 129.976 19.2998C130.296 19.3799 130.665 19.5241 131.081 19.7163C131.882 20.1169 132.523 20.7097 133.02 21.5107C133.501 22.3118 133.741 23.2091 133.741 24.2024C133.741 25.2278 133.533 26.125 133.116 26.8941C132.667 27.6791 132.091 28.2719 131.354 28.6725C130.601 29.105 129.752 29.3133 128.822 29.3133C127.893 29.3133 127.044 29.089 126.259 28.6404Z" fill="white"/>
<path d="M141.175 18.9473H142.436C142.589 18.9473 142.713 19.0712 142.713 19.224V30.8514C142.713 31.1558 142.809 31.4122 143.017 31.6044C143.21 31.8127 143.466 31.9089 143.771 31.9089H144.652C144.956 31.9089 145.212 31.8127 145.405 31.6044C145.597 31.4122 145.709 31.1558 145.709 30.8514V19.224C145.709 19.0712 145.833 18.9473 145.986 18.9473H148.048C148.353 18.9473 148.609 18.8511 148.801 18.6429C148.994 18.4506 149.106 18.1943 149.106 17.8898V17.6495C149.106 17.3451 148.994 17.0888 148.801 16.8965C148.609 16.7042 148.353 16.5921 148.048 16.5921H145.986C145.833 16.5921 145.709 16.4682 145.709 16.3154V11.8657C145.709 11.5613 145.597 11.3049 145.405 11.1126C145.212 10.9204 144.956 10.8082 144.652 10.8082H143.771C143.466 10.8082 143.21 10.9204 143.017 11.1126C142.809 11.3049 142.713 11.5613 142.713 11.8657V16.3154C142.713 16.4682 142.589 16.5921 142.436 16.5921H141.175C140.871 16.5921 140.614 16.7042 140.422 16.8965C140.214 17.0888 140.118 17.3451 140.118 17.6495V17.8898C140.118 18.1943 140.214 18.4506 140.422 18.6429C140.614 18.8511 140.871 18.9473 141.175 18.9473Z" fill="white"/>
<path d="M155.322 17.249C154.105 17.9539 153.175 18.8992 152.502 20.0848C151.813 21.3025 151.477 22.6643 151.477 24.2024C151.477 25.7725 151.829 27.1504 152.55 28.304C153.255 29.5056 154.233 30.4349 155.45 31.0757C156.668 31.7486 158.014 32.0691 159.488 32.0691C161.026 32.0691 162.404 31.7166 163.605 31.0116C164.23 30.6431 164.775 30.2105 165.24 29.6979C165.56 29.3294 165.736 28.8807 165.736 28.368C165.736 28.2784 165.722 28.2027 165.72 28.1279C165.72 28.1172 165.718 28.1016 165.715 28.0912C165.697 28.0208 165.629 27.9675 165.556 27.9675H165.16C164.631 27.9675 164.214 27.9515 163.894 27.9194C163.525 27.8874 163.237 28.0156 163.013 28.304C162.804 28.5763 162.596 28.7846 162.388 28.9128C162.035 29.1691 161.635 29.3454 161.186 29.4095C160.722 29.5056 160.129 29.5537 159.424 29.5537C158.591 29.5537 157.806 29.3934 157.069 29.041C156.364 28.7205 155.787 28.2239 155.338 27.567C154.93 27.0319 154.658 26.3978 154.522 25.6756C154.491 25.5141 154.616 25.3682 154.78 25.364L166.476 25.0586C166.626 25.0547 166.768 24.9337 166.827 24.796C166.832 24.7853 166.837 24.7744 166.842 24.7632C166.906 24.635 166.938 24.4587 166.938 24.2024C166.938 22.6323 166.601 21.2384 165.961 20.0367C165.288 18.8191 164.374 17.8898 163.253 17.2329C162.099 16.5921 160.802 16.2556 159.328 16.2556C157.854 16.2556 156.524 16.5921 155.322 17.249ZM163.141 20.8699C163.53 21.4262 163.787 22.0549 163.921 22.7351C163.954 22.9 163.824 23.0488 163.656 23.0488H154.947C154.78 23.0488 154.651 22.9027 154.679 22.7387C154.877 21.6032 155.356 20.6972 156.091 20.0207C156.86 19.3158 157.886 18.9473 159.167 18.9473C160.017 18.9473 160.77 19.1235 161.442 19.4439C162.147 19.7964 162.724 20.2771 163.141 20.8699Z" fill="white"/>
<path d="M133.982 42.45H130.942L130.382 44H129.422L131.942 37.07H132.992L135.502 44H134.542L133.982 42.45ZM133.722 41.71L132.462 38.19L131.202 41.71H133.722ZM139.11 43.26H141.55V44H138.2V37.03H139.11V43.26ZM148.777 39.07C148.777 39.65 148.577 40.1333 148.177 40.52C147.784 40.9 147.18 41.09 146.367 41.09H145.027V44H144.117V37.03H146.367C147.154 37.03 147.75 37.22 148.157 37.6C148.57 37.98 148.777 38.47 148.777 39.07ZM146.367 40.34C146.874 40.34 147.247 40.23 147.487 40.01C147.727 39.79 147.847 39.4767 147.847 39.07C147.847 38.21 147.354 37.78 146.367 37.78H145.027V40.34H146.367ZM156.878 37.03V44H155.968V40.84H152.418V44H151.508V37.03H152.418V40.09H155.968V37.03H156.878ZM164.152 42.45H161.112L160.552 44H159.592L162.112 37.07H163.162L165.672 44H164.712L164.152 42.45ZM163.892 41.71L162.632 38.19L161.372 41.71H163.892Z" fill="#E1E1E1"/>
<path d="M96.2674 10.7999C96.5242 10.6517 96.8407 10.6517 97.0975 10.7999L98.6828 11.7152C98.9396 11.8635 99.0978 12.1375 99.0978 12.4341V14.2646C99.0978 14.5612 98.9396 14.8352 98.6828 14.9835L97.0975 15.8988C96.8407 16.0471 96.5242 16.0471 96.2674 15.8988L94.6821 14.9835C94.4253 14.8352 94.267 14.5612 94.267 14.2646V12.4341C94.267 12.1375 94.4253 11.8635 94.6821 11.7152L96.2674 10.7999Z" fill="white"/>
</svg>
