<svg xmlns="http://www.w3.org/2000/svg" width="411" height="656" viewBox="0 0 411 656"><defs><clipPath id="c"><path class="a" d="M0 15.443h375v620L0 566.139z" transform="translate(7601 -17084.443)"/></clipPath><filter id="a" x="0" y="0" width="411" height="656" filterUnits="userSpaceOnUse"><feOffset dy="6"/><feGaussianBlur stdDeviation="6" result="b"/><feFlood flood-opacity=".161"/><feComposite operator="in" in2="b"/><feComposite in="SourceGraphic"/></filter><style>.a{fill:#383d51}.e,.g{fill:none;stroke:#fff;stroke-linecap:round;stroke-width:.5px}.g{stroke-linejoin:round}</style></defs><path d="M18 540.478v57.274l375-28.723z" fill="#2b2d3c"/><g filter="url(#a)"><path class="a" d="M18 12.003h375v620L18 562.699z"/></g><g transform="translate(-7583 17081)" opacity=".3" clip-path="url(#c)"><g style="isolation:isolate"><path class="e" d="M7954.746-16533.488l21.092 4.071m-353.583-4.071l-21.092 4.071m194.537-4.073l48.892 217.069m-63.292-217.069l-48.892 217.069m77.769-217.069l146.7 217.326m-190.056-217.326l-146.7 217.326m204.566-217.309l151.079 134.229m-223.453-134.229l-151.079 134.229m237.892-134.246l136.583 86.706m-237.835-86.706l-136.583 86.706m374.445-26.477l-122.264-60.268m-252.208 60.268l122.264-60.268m144.782 0l107.306 43.714m-266.926-43.714l-107.306 43.714m281.418-43.714l93.2 31.663m-281.802-31.663l-93.2 31.663m296.191-31.663l78.627 23.453m-296.009-23.453l-78.627 23.453m310.494-23.397l64.288 16.815m-310.641-16.815l-64.288 16.815m325.14-16.883l49.741 11.713m-325.092-11.713l-49.741 11.713m339.165-11.725l35.591 7.533m-339.087-7.533l-35.591 7.533m-.04 194.277h374.762m-374.762-29.332h374.762m-374.762-26.013h374.762m-374.762-22.691h374.762m-374.762-19.924h374.762m-374.762-17.156h374.762m-374.762-20.059h374.762m-374.762-18.682h374.762m-374.762-8.855h374.762m-374.762-7.748h374.762m-374.762-6.643h374.762m-374.762-4.98h374.762m-374.762-4.428h374.762m-374.762-3.32h374.762m-374.762-3.321h374.762m-374.762-3.32h374.762m-374.762-2.767h374.762m-374.762-2.559h374.762"/><g style="isolation:isolate" opacity=".5"><path class="g" d="M7973.73-16577.044l-40.034-52.619-22.035 26.023m-242.937 69.913l40.479-34.617 15.253 17.8 8.155-9.514 8.155 9.514h14.5l24.122-28.143 21.568 25.163 41.329-48.219 19.762 23.056 35.447-41.355 21.658 25.268-32.459 10.5"/><path class="g" d="M7973.73-16595.639l-10.711-12.5-6.835 8.06-35.266 48.013-1.85-42.767 14.7-34.781 6.762 50.767 20.3-15.06 12.89 32.137-52.812 9.8 54.772 17.964m-184.013-30.882l13.381-15.611 9.543 11.132 1.264 32.569"/><path class="g" d="M7800.941-16553.617l14.747 17.2 18.864-22.009 18.865 22.009m8.51-42.437l27.292 31.843 7.609-8.879 10.215-11.917 26.86 31.52"/><path class="g" d="M7897.449-16619.792l-10.946 35.348 20.47 16.7-37.573-2.52 17.1-14.185"/><path class="g" d="M7906.977-16567.744l-5.567 31.388-12.252-10.581-14.291 10.581-60.26-32.935 47.563-9.334 12.7 42.269-34.516-37.944"/><path class="e" d="M7805.102-16580.35l-8.118 22.1"/><path class="g" d="M7779.455-16578.626l25.071 42.425-49.35-14.1-4.931 14.052-25.753-14.276 16.268-.027-10.968-6.174"/><path class="g" d="M7709.201-16568.254l-25.689 31.872 49.234-9.375-33.241-10.146"/></g><path class="g" d="M7975.999-16574.397l-40.034-52.619-22.035 26.023m-241.185 67.26l38.964-32.113 15.236 17.744 8.146-9.487 8.146 9.487h14.482l24.095-28.062 21.544 25.09 41.282-48.079 19.74 22.988 35.406-41.235 21.634 25.194-32.421 10.47"/><path class="g" d="M7976.001-16592.99l-10.711-12.5-6.835 8.06-35.266 48.013-1.85-42.767 14.706-34.781 6.762 50.767 20.3-15.06 12.89 32.137-52.812 9.8 52.813 15.557m-182.061-28.476l13.381-15.611 9.543 11.132 1.264 32.569"/><path class="g" d="M7803.211-16550.969l14.747 17.2 18.864-22.009 18.865 22.009m8.51-42.437l27.292 31.843 7.609-8.879 10.215-11.917 26.86 31.52"/><path class="g" d="M7899.719-16617.143l-10.946 35.348 20.47 16.7-37.573-2.52 17.1-14.185"/><path class="g" d="M7909.247-16565.096l-5.567 31.388-12.252-10.581-14.291 10.581-60.26-32.935 47.563-9.334 12.7 42.269-34.516-37.944"/><path class="e" d="M7807.372-16577.702l-8.118 22.1"/><path class="g" d="M7781.725-16575.978l25.071 42.425-49.35-14.1-4.931 14.052-25.753-14.276 16.268-.027-10.968-6.174"/><path class="g" d="M7711.47-16565.605l-25.689 31.872 49.234-9.375-33.241-10.146"/></g></g></svg>