<svg xmlns="http://www.w3.org/2000/svg" width="804" height="736" viewBox="0 0 804 736"><defs><linearGradient id="linear-gradient" x1="1" x2="0" y2="1" gradientUnits="objectBoundingBox"><stop offset="0" stop-color="#b6509e"/><stop offset="1" stop-color="#2ebac6"/></linearGradient><clipPath id="clip-path"><path id="Path_9887" fill="url(#linear-gradient)" d="M0-61.271h768v700L0 539.087z" transform="translate(-15 147.271)"/></clipPath><filter id="Path_9353" width="804" height="736" x="0" y="0" filterUnits="userSpaceOnUse"><feOffset dy="6"/><feGaussianBlur result="blur" stdDeviation="6"/><feFlood flood-opacity=".161"/><feComposite in2="blur" operator="in"/><feComposite in="SourceGraphic"/></filter><style>.cls-5{opacity:.5}.cls-6,.cls-7{fill:none;stroke:#fff;stroke-linecap:round;stroke-width:.5px}.cls-7{stroke-linejoin:round}</style></defs><g id="Group_29454" transform="translate(18 12)"><g id="Group_29453"><path id="Path_9356" fill="#2b2d3c" d="M0 639.833V700l393.943-30.174z" transform="translate(0 -44)"/><g filter="url(#Path_9353)" transform="translate(-18 -12)"><path id="Path_9353-2" fill="#383d51" d="M0-61.271h768v700L0 539.087z" transform="translate(18 73.27)"/></g></g><g id="Mask_Group_679" clip-path="url(#clip-path)" opacity=".5" transform="translate(15 -86)"><g id="Group_26013" transform="translate(-60 17)"><g id="Group_25720" class="cls-5" transform="translate(45 658.667)"><path id="Path_7473" d="M0 0l43.2 7.957" class="cls-6" transform="translate(724.472 .125)"/><path id="Path_7484" d="M43.2 0L0 7.957" class="cls-6" transform="translate(.333 .125)"/><path id="Path_7462" d="M0 0l100.13 424.273" class="cls-6" transform="translate(398.746 .123)"/><path id="Path_7487" d="M100.13 0L0 424.273" class="cls-6" transform="translate(269.124 .123)"/><path id="Path_7463" d="M0 0l300.446 424.775" class="cls-6" transform="translate(428.394 .123)"/><path id="Path_7486" d="M300.446 0L0 424.775" class="cls-6" transform="translate(39.16 .123)"/><path id="Path_7464" d="M0 0l309.409 262.358" class="cls-6" transform="translate(458.111 .155)"/><path id="Path_7475" d="M309.41 0L0 262.358" class="cls-6" transform="translate(.48 .155)"/><path id="Path_7465" d="M0 0l279.722 169.473" class="cls-6" transform="translate(487.682 .123)"/><path id="Path_7476" d="M279.722 0L0 169.473" class="cls-6" transform="translate(.596 .123)"/><path id="Path_7466" d="M250.4 117.8L0 0" class="cls-6" transform="translate(517.062 .046)"/><path id="Path_7477" d="M0 117.8L250.4 0" class="cls-6" transform="translate(.541 .046)"/><path id="Path_7467" d="M0 0l219.762 85.441" class="cls-6" transform="translate(547.451 .046)"/><path id="Path_7478" d="M219.762 0L0 85.441" class="cls-6" transform="translate(.787 .047)"/><path id="Path_7468" d="M0 0l190.869 61.888" class="cls-6" transform="translate(577.131 .046)"/><path id="Path_7479" d="M190.869 0L0 61.888" class="cls-6" transform="translate(0 .046)"/><path id="Path_7469" d="M0 0l161.028 45.84" class="cls-6" transform="translate(606.599 .046)"/><path id="Path_7480" d="M161.028 0L0 45.84" class="cls-6" transform="translate(.372 .047)"/><path id="Path_7470" d="M0 0l131.662 32.865" class="cls-6" transform="translate(636.265 .155)"/><path id="Path_7481" d="M131.662 0L0 32.865" class="cls-6" transform="translate(.072 .155)"/><path id="Path_7471" d="M0 0l101.87 22.895" class="cls-6" transform="translate(665.959 .022)"/><path id="Path_7482" d="M101.869 0L0 22.895" class="cls-6" transform="translate(.171 .022)"/><path id="Path_7472" d="M0 0l72.89 14.724" class="cls-6" transform="translate(694.78)"/><path id="Path_7483" d="M72.89 0L0 14.724" class="cls-6" transform="translate(.33)"/><path id="Line_1" d="M0 0h767.512" class="cls-6" transform="translate(.247 394.449)"/><path id="Line_2" d="M0 0h767.512" class="cls-6" transform="translate(.247 337.118)"/><path id="Line_3" d="M0 0h767.512" class="cls-6" transform="translate(.247 286.275)"/><path id="Line_4" d="M0 0h767.512" class="cls-6" transform="translate(.247 241.924)"/><path id="Line_5" d="M0 0h767.512" class="cls-6" transform="translate(.247 202.981)"/><path id="Line_6" d="M0 0h767.512" class="cls-6" transform="translate(.247 169.446)"/><path id="Line_7" d="M0 0h767.512" class="cls-6" transform="translate(.247 130.24)"/><path id="Line_9" d="M0 0h767.512" class="cls-6" transform="translate(.247 93.726)"/><path id="Line_10" d="M0 0h767.512" class="cls-6" transform="translate(.247 76.418)"/><path id="Line_11" d="M0 0h767.512" class="cls-6" transform="translate(.247 61.273)"/><path id="Line_12" d="M0 0h767.512" class="cls-6" transform="translate(.247 48.292)"/><path id="Line_13" d="M0 0h767.512" class="cls-6" transform="translate(.247 38.557)"/><path id="Line_14" d="M0 0h767.512" class="cls-6" transform="translate(.247 29.903)"/><path id="Line_15" d="M0 0h767.512" class="cls-6" transform="translate(.247 23.412)"/><path id="Line_16" d="M0 0h767.512" class="cls-6" transform="translate(.247 16.922)"/><path id="Line_17" d="M0 0h767.512" class="cls-6" transform="translate(.247 10.432)"/><path id="Path_9368" d="M0 0h767.512" class="cls-6" transform="translate(.247 5.023)"/><path id="Path_9369" d="M0 0h767.512" class="cls-6" transform="translate(.247 .023)"/></g><g id="Group_26006" class="cls-5" transform="translate(0 78.749)"><g id="Group_25723" transform="translate(45 477.438)"><g id="Group_25721" class="cls-5" transform="translate(.385)"><path id="Path_9362" d="M-7248-5545.61l49.906-56.222 27.468 27.806" class="cls-7" transform="translate(7250.445 5601.832)"/><path id="Path_9363" d="M-6815.623-5491.448l-50.458-36.987-19.014 19.014-10.166-10.166-10.166 10.166h-18.073l-30.07-30.07-26.886 26.886-51.519-51.52-24.634 24.634-44.187-44.187-27 27 40.461 11.218" class="cls-7" transform="translate(7198.272 5593.953)"/><path id="Path_9364" d="M-7249.875-5565.433l13.351-13.352 8.521 8.612 43.96 51.3 2.306-45.7-18.331-37.162-8.429 54.243-25.311-16.091-16.068 34.337 65.833 10.47-68.277 19.194" class="cls-7" transform="translate(7252.319 5601.787)"/><path id="Path_9365" d="M-6870.136-5492.337l-16.68-16.68-11.9 11.9-1.575 34.8" class="cls-7" transform="translate(7099.53 5561.548)"/><path id="Path_9366" d="M-6917.605-5462.207l-18.382 18.382-23.517-23.517-23.516 23.517" class="cls-7" transform="translate(7135.438 5543.461)"/><path id="Path_9367" d="M-7070.564-5505.914l-34.021 34.022-9.486-9.486-12.733-12.733-33.483 33.678" class="cls-7" transform="translate(7212.376 5560.202)"/><path id="Path_9370" d="M-7089.1-5005.2l13.646 37.769-25.518 17.848 46.837-2.692-21.32-15.156" class="cls-7" transform="translate(7186.632 5015.747)"/><path id="Path_9371" d="M-7100.972-4915.855l6.94 33.537 15.272-11.3 17.813 11.3 75.118-35.19-59.291-9.974-15.827 45.164 43.027-40.542" class="cls-7" transform="translate(7186.632 4982.015)"/><path id="Path_9372" d="M-6876.605-4930.736l10.12 23.608" class="cls-6" transform="translate(7089.252 4983.427)"/><path id="Path_9373" d="M-6844.082-4927.482l-31.254 45.331 61.517-15.071 6.146 15.015 32.1-15.254-20.279-.029 13.673-6.6" class="cls-7" transform="translate(7088.701 4982.015)"/><path id="Path_9374" d="M-6687.892-4907.9l32.022 34.054-61.372-10.017 41.436-10.84" class="cls-7" transform="translate(7020.085 4973.515)"/></g><g id="Group_25722" transform="translate(0 2.83)"><path id="Path_9362-2" d="M-7248-5545.61l49.906-56.222 27.468 27.806" class="cls-7" transform="translate(7248 5601.832)"/><path id="Path_9363-2" d="M-6817.807-5494.282l-48.571-34.312-18.992 18.959-10.154-10.136-10.154 10.136h-18.053l-30.036-29.982-26.855 26.808-51.461-51.37-24.606 24.563-44.136-44.059-26.967 26.919 40.415 11.186" class="cls-7" transform="translate(7195.828 5593.953)"/><path id="Path_9364-2" d="M-7248-5565.433l13.352-13.352 8.521 8.612 43.96 51.3 2.306-45.7-18.331-37.162-8.429 54.243-25.311-16.091-16.068 34.343 65.832 10.47-65.832 16.622" class="cls-7" transform="translate(7248 5601.787)"/><path id="Path_9365-2" d="M-6870.136-5492.337l-16.68-16.68-11.9 11.9-1.575 34.8" class="cls-7" transform="translate(7097.085 5561.548)"/><path id="Path_9366-2" d="M-6917.605-5462.207l-18.382 18.382-23.517-23.517-23.516 23.517" class="cls-7" transform="translate(7132.994 5543.461)"/><path id="Path_9367-2" d="M-7070.564-5505.914l-34.021 34.022-9.486-9.486-12.733-12.733-33.483 33.678" class="cls-7" transform="translate(7209.931 5560.202)"/><path id="Path_9370-2" d="M-7089.1-5005.2l13.646 37.769-25.518 17.848 46.837-2.692-21.32-15.156" class="cls-7" transform="translate(7184.187 5015.747)"/><path id="Path_9371-2" d="M-7100.972-4915.855l6.94 33.537 15.272-11.3 17.813 11.3 75.118-35.19-59.291-9.974-15.827 45.164 43.027-40.542" class="cls-7" transform="translate(7184.187 4982.015)"/><path id="Path_9372-2" d="M-6876.605-4930.736l10.12 23.608" class="cls-6" transform="translate(7086.808 4983.427)"/><path id="Path_9373-2" d="M-6844.082-4927.482l-31.254 45.331 61.517-15.071 6.146 15.015 32.1-15.254-20.279-.029 13.673-6.6" class="cls-7" transform="translate(7086.257 4982.015)"/><path id="Path_9374-2" d="M-6687.892-4907.9l32.022 34.054-61.372-10.017 41.436-10.84" class="cls-7" transform="translate(7017.641 4973.515)"/></g></g><g id="Group_25724" transform="translate(429.965 477.438)"><g id="Group_25721-2" class="cls-5"><path id="Path_9362-3" d="M-7170.626-5545.61l-49.906-56.222-27.468 27.806" class="cls-7" transform="translate(7550.831 5601.832)"/><path id="Path_9363-3" d="M-7127.793-5491.448l50.458-36.987 19.014 19.014 10.166-10.166 10.165 10.166h18.074l30.07-30.07 26.885 26.886 51.52-51.52 24.634 24.634 44.187-44.187 27 27-40.461 11.218" class="cls-7" transform="translate(7127.793 5593.953)"/><path id="Path_9364-3" d="M-7184.181-5565.433l-13.352-13.352-8.521 8.612-43.96 51.3-2.306-45.7 18.33-37.162 8.429 54.243 25.311-16.091 16.068 34.337-65.832 10.47 68.276 19.194" class="cls-7" transform="translate(7564.385 5601.787)"/><path id="Path_9365-3" d="M-6900.286-5492.337l16.68-16.68 11.9 11.9 1.576 34.8" class="cls-7" transform="translate(7053.541 5561.548)"/><path id="Path_9366-3" d="M-6983.02-5462.207l18.382 18.382 23.516-23.517 23.517 23.517" class="cls-7" transform="translate(7147.836 5543.461)"/><path id="Path_9367-3" d="M-7160.288-5505.914l34.022 34.022 9.485-9.486 12.733-12.733 33.482 33.678" class="cls-7" transform="translate(7401.125 5560.202)"/><path id="Path_9370-3" d="M-7066.006-5005.2l-13.645 37.769 25.517 17.848-46.837-2.692 21.32-15.156" class="cls-7" transform="translate(7351.124 5015.747)"/><path id="Path_9371-3" d="M-6985.83-4915.855l-6.939 33.537-15.272-11.3-17.813 11.3-75.117-35.19 59.29-9.974 15.827 45.164-43.026-40.542" class="cls-7" transform="translate(7282.82 4982.015)"/><path id="Path_9372-3" d="M-6866.485-4930.736l-10.12 23.608" class="cls-6" transform="translate(7036.488 4983.427)"/><path id="Path_9373-3" d="M-6806.824-4927.482l31.253 45.331-61.517-15.071-6.146 15.015-32.1-15.254 20.279-.029-13.673-6.6" class="cls-7" transform="translate(6944.855 4982.015)"/><path id="Path_9374-3" d="M-6685.22-4907.9l-32.022 34.054 61.373-10.017-41.436-10.84" class="cls-7" transform="translate(6735.675 4973.515)"/></g><g id="Group_25722-2" transform="translate(5.013 2.83)"><path id="Path_9362-4" d="M-7170.626-5545.61l-49.906-56.222-27.468 27.806" class="cls-7" transform="translate(7548.647 5601.832)"/><path id="Path_9363-4" d="M-7127.793-5494.282l48.57-34.312 18.993 18.959 10.154-10.136 10.154 10.136h18.053l30.036-29.982 26.855 26.808 51.461-51.37 24.606 24.563 44.136-44.059 26.968 26.919-40.415 11.186" class="cls-7" transform="translate(7127.793 5593.953)"/><path id="Path_9364-4" d="M-7179.862-5565.433l-13.352-13.352-8.521 8.612-43.961 51.3-2.306-45.7 18.331-37.162 8.429 54.243 25.311-16.091 16.068 34.337-65.833 10.47 65.833 16.622" class="cls-7" transform="translate(7557.884 5601.787)"/><path id="Path_9365-4" d="M-6900.286-5492.337l16.68-16.68 11.9 11.9 1.576 34.8" class="cls-7" transform="translate(7051.357 5561.548)"/><path id="Path_9366-4" d="M-6983.02-5462.207l18.382 18.382 23.516-23.517 23.517 23.517" class="cls-7" transform="translate(7145.653 5543.461)"/><path id="Path_9367-4" d="M-7160.288-5505.914l34.022 34.022 9.485-9.486 12.733-12.733 33.482 33.678" class="cls-7" transform="translate(7398.942 5560.202)"/><path id="Path_9370-4" d="M-7066.006-5005.2l-13.645 37.769 25.517 17.848-46.837-2.692 21.32-15.156" class="cls-7" transform="translate(7348.94 5015.747)"/><path id="Path_9371-4" d="M-6985.83-4915.855l-6.939 33.537-15.272-11.3-17.813 11.3-75.117-35.19 59.29-9.974 15.827 45.164-43.026-40.542" class="cls-7" transform="translate(7280.636 4982.015)"/><path id="Path_9372-4" d="M-6866.485-4930.736l-10.12 23.608" class="cls-6" transform="translate(7034.304 4983.427)"/><path id="Path_9373-4" d="M-6806.824-4927.482l31.253 45.331-61.517-15.071-6.146 15.015-32.1-15.254 20.279-.029-13.673-6.6" class="cls-7" transform="translate(6942.671 4982.015)"/><path id="Path_9374-4" d="M-6685.22-4907.9l-32.022 34.054 61.373-10.017-41.436-10.84" class="cls-7" transform="translate(6733.492 4973.515)"/></g></g></g></g></g></g></svg>