<svg width="172" height="42" viewBox="0 0 172 42" fill="none" xmlns="http://www.w3.org/2000/svg">
<path fill-rule="evenodd" clip-rule="evenodd" d="M45.7594 5.94938V8.89876L47.4507 11.2294C48.4613 12.6319 49.0388 13.6425 48.9357 13.7869C48.8326 13.9313 48.0901 14.9419 47.2651 16.035L45.7594 18.015V23.8313H48.1726V18.9225L49.7607 16.7981C51.2869 14.7356 51.4107 14.6531 52.2769 14.6531C53.1638 14.6531 53.2669 14.7563 54.7932 16.8188L56.3813 18.9638V23.8313H59.042V18.4688L57.3095 16.0556C56.3401 14.6944 55.577 13.5188 55.6182 13.395C55.6388 13.2713 56.4432 12.1575 57.3507 10.92L59.0626 8.65126L58.9801 5.92875L58.8976 3.165H56.5051L56.3813 5.70188L56.2576 8.25939L54.8138 10.2394C53.4113 12.1575 53.3494 12.1988 52.3388 12.2194C51.3488 12.2194 51.2663 12.1781 49.8019 10.2188L48.2757 8.23876L48.0282 3.165L46.8938 3.0825L45.7388 3V5.94938H45.7594ZM24 3.06197V13.4364V23.8314H35.6119V21.4182H26.4131V14.6532H33.9206V12.2401H26.4131V5.70198H35.6119V3.06197H24ZM79.5844 8.21817L78.3057 6.96005L77.0475 5.72254H72.1594L71.0457 6.98067L69.9319 8.25943V18.7988L71.0869 20.1188L72.2213 21.4182H77.0888L79.5844 18.8607V8.21817ZM67.5188 7.14567L69.375 5.08317L71.2519 3.08254H78.0375L82.0182 7.06317V19.8713L78.0375 23.8519H71.19L69.3544 21.8719L67.5188 19.9126V7.14567ZM100.189 6.83636L101.344 7.97073V19.0876L99.0751 21.4182H93.1351V5.70198H99.0339L100.189 6.83636ZM90.722 13.4364V23.8314H100.024L104.004 19.8507V7.29011L99.7764 3.06197H90.722V13.4364ZM113.203 19.995V11.5387V3.04119H115.616V19.0256L116.73 20.2218L117.865 21.4181H121.433L122.773 20.1806L124.073 18.9225V3.02057L125.228 3.10307L126.362 3.16494L126.445 11.5181L126.486 19.83L124.506 21.8306L122.505 23.8312H116.668L114.936 21.9337L113.203 19.995ZM136.324 5.10368C135.19 6.36181 134.468 7.37243 134.468 7.72306C134.468 8.09431 136.076 9.86806 139.83 13.6218L145.213 19.0049L143.996 20.2218L142.821 21.4387H139.315L137.933 19.995L136.53 18.5306L135.726 19.3349C135.293 19.7474 134.921 20.1806 134.921 20.2631C134.921 20.3456 135.643 21.1912 136.51 22.14L138.098 23.8725H143.976L145.853 21.9956C147.523 20.3043 147.709 20.0362 147.709 19.1906C147.709 18.3037 147.461 18.0149 142.635 13.0856C139.851 10.2599 137.561 7.80556 137.561 7.70243C137.561 7.57868 137.891 7.10431 138.304 6.60931C139.046 5.76368 139.067 5.76368 141.006 5.76368H142.965L145.77 8.52743L147.461 6.87743L145.605 5.00055L143.728 3.12368H138.18L136.324 5.10368ZM73.7888 39.3V35.4431V31.5656H74.5107C75.1913 31.5656 75.2326 31.6069 75.2326 32.535V33.5044H77.3157C78.4501 33.5044 79.5844 33.6281 79.8732 33.7725C80.6157 34.1644 81.0282 35.4844 81.0282 37.485V39.3H79.5844V37.3819C79.5844 35.0719 79.3782 34.8244 77.3569 34.8244C75.4801 34.8244 75.2326 35.1544 75.2326 37.5262V39.3H73.7888ZM82.0182 34.2263V34.9482H84.9263V37.1138C84.9263 39.2588 84.9264 39.2794 85.5245 39.2794C86.1226 39.2794 86.1226 39.2588 86.1226 37.1138V37.1138V34.9482H89.0307V33.5044H82.0182V34.2263ZM89.9795 37.485C89.6701 36.1238 89.9382 34.8244 90.6601 34.1025C91.2376 33.525 91.382 33.5044 94.1045 33.5044H96.9714V34.9482H94.3108C91.9389 34.9482 91.6501 34.9894 91.4026 35.4019C91.0314 36.165 91.1139 37.0725 91.6501 37.6088C92.0626 38.0007 92.4545 38.0832 94.5583 38.0832H96.9714V39.3H94.1045C90.8045 39.3 90.3507 39.0938 89.9795 37.485Z" fill="white"/>
</svg>
