<svg width="80" height="80" viewBox="0 0 80 80" fill="none" xmlns="http://www.w3.org/2000/svg">
<rect width="80" height="80" rx="20" fill="#0000D8"/>
<path fill-rule="evenodd" clip-rule="evenodd" d="M33 24C33 28.9706 28.9706 33 24 33C22.3877 33 20.8744 32.576 19.5656 31.8335C21.7983 26.2518 26.2518 21.7983 31.8335 19.5656C32.576 20.8744 33 22.3877 33 24ZM48.1665 19.5656C45.6415 18.5556 42.8856 18 40 18C37.1144 18 34.3585 18.5556 31.8335 19.5656C30.2869 16.8393 27.3583 15 24 15C19.0294 15 15 19.0294 15 24C15 27.3583 16.8393 30.2869 19.5656 31.8335C18.5556 34.3585 18 37.1144 18 40C18 42.8856 18.5556 45.6415 19.5656 48.1665C16.8393 49.7131 15 52.6417 15 56C15 60.9706 19.0294 65 24 65C27.3583 65 30.2869 63.1607 31.8335 60.4344C34.3585 61.4444 37.1144 62 40 62C42.8856 62 45.6415 61.4444 48.1665 60.4344C49.7131 63.1607 52.6417 65 56 65C60.9706 65 65 60.9706 65 56C65 52.6417 63.1607 49.7131 60.4344 48.1665C61.4444 45.6415 62 42.8856 62 40C62 37.1144 61.4444 34.3585 60.4344 31.8335C63.1607 30.2869 65 27.3583 65 24C65 19.0294 60.9706 15 56 15C52.6417 15 49.7131 16.8393 48.1665 19.5656ZM48.1665 19.5656C47.424 20.8744 47 22.3877 47 24C47 28.9706 51.0294 33 56 33C57.6123 33 59.1256 32.576 60.4344 31.8335C58.2017 26.2518 53.7482 21.7983 48.1665 19.5656ZM60.4344 48.1665C59.1256 47.424 57.6123 47 56 47C51.0294 47 47 51.0294 47 56C47 57.6123 47.424 59.1256 48.1665 60.4344C53.7482 58.2017 58.2017 53.7482 60.4344 48.1665ZM31.8335 60.4344C26.2518 58.2017 21.7983 53.7482 19.5656 48.1665C20.8744 47.424 22.3877 47 24 47C28.9706 47 33 51.0294 33 56C33 57.6123 32.576 59.1256 31.8335 60.4344Z" fill="white"/>
<circle cx="40" cy="40" r="10" fill="#0000D8"/>
</svg>
