<svg width="239" height="80" viewBox="0 0 239 80" fill="none" xmlns="http://www.w3.org/2000/svg">
<rect width="239" height="80" rx="20" fill="black"/>
<path d="M173 22V58.001H187.466V41.9043L177.237 31.9521L187.466 22H173V22ZM187.466 22V41.9043L204.011 58.001V38.0967L187.466 22ZM204.011 22V38.0967L214.24 48.0489L204.011 58.001H218.477V22H204.011Z" fill="white"/>
<path d="M42.2188 44.6172L45.6641 26.4062H50.9199L45.2422 52H39.9336L35.7676 34.8789L31.6016 52H26.293L20.6152 26.4062H25.8711L29.334 44.582L33.5527 26.4062H38.0176L42.2188 44.6172Z" fill="white"/>
<path d="M60.9226 52.3516C58.1335 52.3516 55.8601 51.4961 54.1023 49.7852C52.3562 48.0742 51.4831 45.7949 51.4831 42.9473V42.4551C51.4831 40.5449 51.8523 38.8398 52.5905 37.3398C53.3288 35.8281 54.3718 34.668 55.7195 33.8594C57.0788 33.0391 58.6257 32.6289 60.3601 32.6289C62.9616 32.6289 65.0066 33.4492 66.4948 35.0898C67.9948 36.7305 68.7448 39.0566 68.7448 42.0684V44.1426H56.6335C56.7976 45.3848 57.2898 46.3809 58.1101 47.1309C58.9421 47.8809 59.9909 48.2559 61.2566 48.2559C63.2136 48.2559 64.7429 47.5469 65.8445 46.1289L68.3405 48.9238C67.5788 50.002 66.5476 50.8457 65.2468 51.4551C63.946 52.0527 62.5046 52.3516 60.9226 52.3516ZM60.3425 36.7422C59.3347 36.7422 58.5144 37.082 57.8816 37.7617C57.2605 38.4414 56.862 39.4141 56.6862 40.6797H63.7527V40.2754C63.7292 39.1504 63.4245 38.2832 62.8386 37.6738C62.2527 37.0527 61.4206 36.7422 60.3425 36.7422Z" fill="white"/>
<path d="M88.0639 42.666C88.0639 45.7129 87.4135 48.0918 86.1127 49.8027C84.812 51.502 82.9955 52.3516 80.6635 52.3516C78.601 52.3516 76.9545 51.5605 75.7241 49.9785L75.4955 52H70.9252V25H76.0053V34.6855C77.1772 33.3145 78.7182 32.6289 80.6284 32.6289C82.9487 32.6289 84.7651 33.4844 86.0776 35.1953C87.4018 36.8945 88.0639 39.291 88.0639 42.3848V42.666ZM82.9838 42.2969C82.9838 40.375 82.6791 38.9746 82.0698 38.0957C81.4604 37.2051 80.5522 36.7598 79.3452 36.7598C77.728 36.7598 76.6147 37.4219 76.0053 38.7461V46.252C76.6264 47.5879 77.7514 48.2559 79.3803 48.2559C81.0209 48.2559 82.0991 47.4473 82.6147 45.8301C82.8608 45.0566 82.9838 43.8789 82.9838 42.2969Z" fill="white"/>
<path d="M103.692 36.9531H106.399C107.688 36.9531 108.643 36.6309 109.265 35.9863C109.886 35.3418 110.196 34.4863 110.196 33.4199C110.196 32.3887 109.886 31.5859 109.265 31.0117C108.655 30.4375 107.811 30.1504 106.733 30.1504C105.761 30.1504 104.946 30.4199 104.29 30.959C103.634 31.4863 103.306 32.1777 103.306 33.0332H98.2255C98.2255 31.6973 98.5829 30.502 99.2977 29.4473C100.024 28.3809 101.032 27.5488 102.321 26.9512C103.622 26.3535 105.052 26.0547 106.61 26.0547C109.317 26.0547 111.438 26.7051 112.974 28.0059C114.509 29.2949 115.276 31.0762 115.276 33.3496C115.276 34.5215 114.919 35.5996 114.204 36.584C113.489 37.5684 112.552 38.3242 111.391 38.8516C112.833 39.3672 113.905 40.1406 114.608 41.1719C115.323 42.2031 115.681 43.4219 115.681 44.8281C115.681 47.1016 114.849 48.9238 113.184 50.2949C111.532 51.666 109.341 52.3516 106.61 52.3516C104.056 52.3516 101.964 51.6777 100.335 50.3301C98.7177 48.9824 97.9091 47.2012 97.9091 44.9863H102.989C102.989 45.9473 103.347 46.7324 104.061 47.3418C104.788 47.9512 105.679 48.2559 106.733 48.2559C107.94 48.2559 108.884 47.9395 109.563 47.3066C110.255 46.6621 110.6 45.8125 110.6 44.7578C110.6 42.2031 109.194 40.9258 106.382 40.9258H103.692V36.9531Z" fill="white"/>
<path d="M118.951 49.5039C118.951 48.6953 119.22 48.0391 119.759 47.5352C120.31 47.0312 120.996 46.7793 121.816 46.7793C122.648 46.7793 123.334 47.0312 123.873 47.5352C124.423 48.0391 124.699 48.6953 124.699 49.5039C124.699 50.3008 124.429 50.9512 123.89 51.4551C123.351 51.9473 122.66 52.1934 121.816 52.1934C120.984 52.1934 120.298 51.9473 119.759 51.4551C119.22 50.9512 118.951 50.3008 118.951 49.5039Z" fill="white"/>
<path d="M145.459 41.418C145.459 44.957 144.727 47.6641 143.262 49.5391C141.797 51.4141 139.653 52.3516 136.828 52.3516C134.039 52.3516 131.907 51.4316 130.43 49.5918C128.953 47.752 128.198 45.1152 128.162 41.6816V36.9707C128.162 33.3965 128.901 30.6836 130.377 28.832C131.866 26.9805 134.004 26.0547 136.793 26.0547C139.582 26.0547 141.715 26.9746 143.192 28.8145C144.668 30.6426 145.424 33.2734 145.459 36.707V41.418ZM140.379 36.25C140.379 34.1289 140.086 32.5879 139.5 31.627C138.926 30.6543 138.024 30.168 136.793 30.168C135.598 30.168 134.713 30.6309 134.139 31.5566C133.576 32.4707 133.278 33.9062 133.243 35.8633V42.0859C133.243 44.1719 133.524 45.7246 134.086 46.7441C134.66 47.752 135.575 48.2559 136.828 48.2559C138.071 48.2559 138.967 47.7695 139.518 46.7969C140.069 45.8242 140.356 44.3359 140.379 42.332V36.25Z" fill="white"/>
<path d="M148.642 49.5039C148.642 48.6953 148.911 48.0391 149.45 47.5352C150.001 47.0312 150.687 46.7793 151.507 46.7793C152.339 46.7793 153.024 47.0312 153.564 47.5352C154.114 48.0391 154.39 48.6953 154.39 49.5039C154.39 50.3008 154.12 50.9512 153.581 51.4551C153.042 51.9473 152.351 52.1934 151.507 52.1934C150.675 52.1934 149.989 51.9473 149.45 51.4551C148.911 50.9512 148.642 50.3008 148.642 49.5039ZM148.642 35.1074C148.642 34.2988 148.911 33.6426 149.45 33.1387C150.001 32.6348 150.687 32.3828 151.507 32.3828C152.339 32.3828 153.024 32.6348 153.564 33.1387C154.114 33.6426 154.39 34.2988 154.39 35.1074C154.39 35.9043 154.12 36.5547 153.581 37.0586C153.042 37.5508 152.351 37.7969 151.507 37.7969C150.675 37.7969 149.989 37.5508 149.45 37.0586C148.911 36.5547 148.642 35.9043 148.642 35.1074Z" fill="white"/>
</svg>
