<svg width="157" height="32" viewBox="0 0 157 32" fill="none" xmlns="http://www.w3.org/2000/svg">
<path fill-rule="evenodd" clip-rule="evenodd" d="M23.44 3.14313C23.2832 3.1101 23.1263 3.05505 22.9694 3H22.0619C21.1743 3.22334 20.475 3.75487 19.7619 4.29688L19.7619 4.29691L19.6865 4.35421C18.4988 5.26805 16.8741 5.26805 15.7537 4.3432C15.0478 3.75968 14.3307 3.25322 13.4343 3H12.538C11.5856 3.22019 10.8461 3.7817 10.0954 4.35421C8.89647 5.26805 7.26058 5.26805 6.12894 4.31017C5.42301 3.71564 4.69473 3.23121 3.79836 3H2.90199C2.68911 3.07707 2.46502 3.15414 2.24094 3.2312V3.2312L2.24092 3.23121C1.15408 3.62756 0.481797 4.39825 0.14566 5.4662C0.123251 5.53225 0.0980403 5.59834 0.0728298 5.66439L0.0728112 5.66444C0.0476074 5.73047 0.0224037 5.79651 0 5.86254V6.74335C0.224092 7.65718 0.739502 8.37282 1.37817 9.05543C2.38658 10.1894 2.39779 11.8739 1.40058 12.9859C0.773118 13.6795 0.257706 14.4062 0.0112046 15.309V16.1898C0.246502 17.0926 0.773118 17.8082 1.40058 18.5129C2.37538 19.6138 2.38658 21.2983 1.41178 22.3993C0.784322 23.115 0.235297 23.8416 0.0112046 24.7775V25.6583C0.100834 25.8674 0.179261 26.0876 0.257687 26.3078H0.257706C0.66107 27.3758 1.43419 28.0474 2.52104 28.3777C2.58591 28.3989 2.65078 28.4228 2.71566 28.4466L2.71581 28.4467L2.72272 28.4492L2.72285 28.4492C2.79004 28.474 2.85722 28.4988 2.9244 28.5208H3.82077C4.73953 28.2896 5.46786 27.7721 6.18494 27.1556C7.32782 26.1757 9.0533 26.1757 10.185 27.1666C10.9021 27.7832 11.6416 28.2896 12.5604 28.5208H13.4567C13.5487 28.4907 13.6407 28.456 13.7337 28.4209L13.7338 28.4208H13.7339L13.7395 28.4187C13.8486 28.3776 13.9591 28.3359 14.073 28.3006C15.5632 27.7942 16.5492 26.2638 16.3139 24.8105C16.045 23.115 14.7789 21.97 13.1094 21.9039C12.1346 21.8709 11.3166 22.1902 10.6108 22.8287C9.65839 23.6985 8.5603 24.1059 7.27178 23.7425C4.77318 23.0489 3.8992 20.0543 5.66954 18.1936C6.46506 17.3568 6.82362 16.41 6.70034 15.287C6.6053 14.4462 6.10186 13.8304 5.59386 13.2092L5.59377 13.2091L5.59368 13.209L5.50146 13.096C3.6415 10.817 5.38942 8.17462 7.39502 7.69021C8.62755 7.39294 9.65839 7.76727 10.5548 8.62601C11.9217 9.92518 13.9834 10.0243 15.2383 8.72513C16.65 7.2718 18.8573 7.22777 20.2803 8.73614C21.2215 9.72703 22.7902 9.89216 24.0227 9.29762C25.3112 8.67005 26.0059 7.39294 25.8602 5.88456C25.7482 4.64047 24.7286 3.49544 23.44 3.14313ZM22.566 24.1498C21.905 24.1388 21.4008 24.6123 21.4008 25.2729C21.4008 25.9335 21.8938 26.4289 22.5436 26.4179C23.1823 26.4179 23.7201 25.8784 23.7089 25.2619C23.6977 24.6673 23.1823 24.1608 22.566 24.1498ZM21.4008 16.0137C21.412 15.3531 21.8938 14.8907 22.5773 14.9017C23.2047 14.9127 23.7089 15.4192 23.7089 16.0247C23.7089 16.6413 23.1599 17.1808 22.5324 17.1808C21.8938 17.1697 21.4008 16.6523 21.4008 16.0137ZM12.9524 17.2469C13.6023 17.2579 14.1065 16.7625 14.1065 16.1129C14.1177 15.4523 13.6247 14.9678 12.9524 14.9788C12.3249 14.9899 11.8207 15.4743 11.7983 16.0799C11.7759 16.6964 12.3137 17.2359 12.9524 17.2469ZM38.7239 27.541C41.6585 27.541 43.7796 26.7388 45.3774 25.2201C46.8011 23.8735 47.7309 22.011 47.8762 19.9767H42.7336C42.5011 21.9537 40.9902 23.3864 38.6949 23.3864C35.615 23.3864 33.6973 20.6643 33.6973 16.9108C33.6973 13.1859 35.2954 10.4066 38.6658 10.4066C40.874 10.4066 42.3268 11.8106 42.5883 13.6444H47.7309C47.4694 11.3521 46.4234 9.3464 44.622 7.99971C43.1403 6.88225 41.1065 6.19458 38.6949 6.19458C32.5061 6.19458 28.4673 10.8077 28.4673 16.9108C28.4673 23.0425 32.6223 27.541 38.7239 27.541ZM56.9683 24.2173C54.9054 24.2173 53.8303 22.4408 53.8303 19.7761C53.8303 17.1114 54.9054 15.3062 56.9683 15.3062C59.0312 15.3062 60.1353 17.1114 60.1353 19.7761C60.1353 22.4408 59.0312 24.2173 56.9683 24.2173ZM56.9974 27.541C61.7915 27.541 64.9295 24.1886 64.9295 19.7761C64.9295 15.3635 61.7915 12.0111 56.9974 12.0111C52.2323 12.0111 49.0362 15.3635 49.0362 19.7761C49.0362 24.1886 52.2323 27.541 56.9974 27.541ZM95.3902 22.8116V10.8347H98.4701C101.695 10.8347 103.526 13.2415 103.526 16.9664C103.526 20.72 101.782 22.8116 98.4119 22.8116H95.3902ZM90.2474 27.0809H98.7897C101.405 27.0809 103.497 26.4219 105.124 25.2185C107.448 23.4706 108.727 20.5767 108.727 16.9664C108.727 10.6914 104.862 6.59403 99.1093 6.59403H90.2474V27.0809ZM117.707 27.5107C119.596 27.5107 121.107 27.0236 122.356 26.164C123.664 25.2758 124.535 24.015 124.855 22.697H120.235C119.828 23.6139 119.015 24.1583 117.766 24.1583C115.819 24.1583 114.715 22.9262 114.424 20.9492H125.117C125.146 17.9693 124.274 15.4192 122.502 13.8146C121.223 12.6684 119.538 11.9808 117.417 11.9808C112.884 11.9808 109.775 15.3332 109.775 19.7171C109.775 24.1583 112.797 27.5107 117.707 27.5107ZM114.453 18.1698C114.773 16.422 115.703 15.3046 117.504 15.3046C119.044 15.3046 120.148 16.422 120.322 18.1698H114.453ZM133.036 27.5393C136.93 27.5393 139.806 25.8775 139.806 22.6683C139.806 18.9148 136.726 18.2558 134.111 17.826C133.878 17.7835 133.648 17.7441 133.423 17.7057C131.832 17.4332 130.537 17.2114 130.537 16.3074C130.537 15.3905 131.438 14.9607 132.6 14.9607C133.908 14.9607 134.809 15.3619 134.983 16.6799H139.341C139.109 13.7859 136.842 11.9808 132.629 11.9808C129.114 11.9808 126.208 13.5854 126.208 16.6799C126.208 20.1182 128.968 20.8059 131.554 21.2357C131.761 21.2716 131.965 21.3053 132.166 21.3385C133.887 21.6223 135.332 21.8605 135.332 23.0408C135.332 23.9864 134.431 24.5021 133.007 24.5021C131.438 24.5021 130.45 23.7858 130.276 22.3245H125.801C125.947 25.5623 128.678 27.5393 133.036 27.5393ZM141.343 27.0809H146.021V22.5824L147.445 21.0924L151.019 27.0809H156.51L150.67 17.912L155.9 12.4106H150.438L146.021 17.3676V6.59403H141.343V27.0809ZM73.814 27.0808H78.5501V18.972C78.5501 17.1669 79.5961 15.8775 81.1651 15.8775C82.705 15.8775 83.4895 16.9377 83.4895 18.4849V27.0808H88.2255V17.5394C88.2255 14.2729 86.3079 11.9807 83.0537 11.9807C80.9907 11.9807 79.567 12.8403 78.4629 14.4162H78.3757V12.4105H73.814V27.0808ZM65.9615 15.4247L65.9616 12.4424H71.8059V27.1168H67.2996V15.4247H65.9615ZM71.8065 8.61458C71.8065 10.0241 70.6478 11.1667 69.2185 11.1667C67.7893 11.1667 66.6306 10.0241 66.6306 8.61458C66.6306 7.20511 67.7893 6.0625 69.2185 6.0625C70.6478 6.0625 71.8065 7.20511 71.8065 8.61458Z" fill="white"/>
</svg>
