<svg width="188" height="32" viewBox="0 0 188 32" fill="none" xmlns="http://www.w3.org/2000/svg">
<path fill-rule="evenodd" clip-rule="evenodd" d="M0 4H10.1164V8.8075L8.04529 8.7747L11.4799 22.2601L15.1863 8.7747L13.1199 8.8075V4H22.3975V8.8075L20.8278 8.7747L14.9848 27.5642H7.37524L1.46661 8.7747L0 8.8075V4ZM36.8809 21.6228L36.8754 21.6514C36.6419 22.8849 36.3349 24.5064 34.8145 25.9617C33.2823 27.4283 31.066 27.9672 28.9059 27.9672C24.2998 27.9672 20.2608 25.7321 20.2608 18.9894C20.2368 17.8148 20.3948 16.6436 20.7294 15.5173C21.8961 11.5439 25.1339 9.89453 28.695 9.89453C31.3658 9.89453 33.5353 10.8317 34.7864 12.0968C37.2798 14.5212 37.1942 18.4271 37.1592 20.023L37.1573 20.1093H26.6005C26.6005 21.4447 26.6333 23.811 28.8028 23.811C30.6045 23.811 30.8404 22.2827 30.9391 21.6439L30.9394 21.6415L36.8809 21.6228ZM30.9394 16.8153C30.9638 16.3532 30.9084 15.8903 30.7754 15.4471C30.6305 15.056 30.3637 14.722 30.0144 14.4942C29.6651 14.2664 29.2518 14.1569 28.8356 14.1819C26.8348 14.1819 26.7692 16.1171 26.7692 16.8153H30.9394ZM57.0105 22.7569H55.572V14.8896L55.5715 14.873C55.5389 13.6633 55.5012 12.2698 54.3724 11.1411C53.7399 10.471 52.5357 9.80098 50.7317 9.80098C49.9261 9.77949 49.1243 9.9193 48.3735 10.2122C47.6228 10.5051 46.9382 10.9452 46.36 11.5066C45.9378 11.9133 45.5877 12.3886 45.3244 12.9123L45.1276 10.2742H38.2819V15.063H39.6876V22.7569H38.2819V27.5644H47.03V22.8037H45.8586V18.118C45.8914 17.1387 45.9289 16.375 46.5286 15.7752C46.6932 15.6062 46.8899 15.4719 47.1072 15.3802C47.3245 15.2884 47.5579 15.2411 47.7938 15.241C48.0972 15.2234 48.3986 15.3006 48.6563 15.4617C48.914 15.6229 49.1153 15.8602 49.2323 16.1407C49.3397 16.5533 49.3839 16.9799 49.3635 17.4058V27.5644H57.0105V22.7569ZM65.2854 4.86694V10.2742H68.0547V15.063H65.2854V21.2902L65.2856 21.2925C65.3184 21.9259 65.3858 23.2254 66.9863 23.2254C67.2954 23.2281 67.6022 23.1725 67.8907 23.0614V27.4659C66.6926 27.72 65.4741 27.8658 64.2499 27.9017C62.3147 27.9017 60.8481 27.3628 60.1125 26.6319C59.1753 25.6947 59.1425 24.4624 59.1425 23.4925V15.063H57.6384V10.2742H59.6111V6.16019L65.2854 4.86694ZM76.6669 20.3905V10.2742H69.0199V15.0957L70.4256 15.0629V22.1336C70.4631 23.7314 70.5287 25.4042 71.8313 26.6693C72.3241 27.125 72.9028 27.4778 73.5335 27.7072C74.1643 27.9365 74.8345 28.0376 75.5049 28.0047C76.4079 28.0053 77.303 27.8352 78.1429 27.5034C79.0939 27.1273 79.91 26.4743 80.4857 25.6291V27.5643H87.6033V22.7568L86.1694 22.7896V10.2742H78.6724V15.0957L79.9375 15.0629V20.0578C79.9375 20.9575 79.8719 22.6912 78.3022 22.6912C76.7325 22.6912 76.6669 21.0887 76.6669 20.3905ZM95.8594 13.2776L95.8623 13.2671C96.1312 12.3237 96.7713 10.0773 100.076 10.0773C100.63 10.0681 101.181 10.1343 101.716 10.274V15.8172C101.234 15.703 100.741 15.6463 100.245 15.6485C99.1747 15.6022 98.126 15.9601 97.3072 16.6512C96.506 17.4525 96.4732 18.3521 96.4732 19.9312L96.4076 22.7426H98.4412V27.5642H88.948V22.7567H90.3818V15.0628H88.948V10.274H95.6579L95.8594 13.2776ZM119.618 21.6333L119.62 21.6228L113.684 21.6415L113.681 21.6557C113.577 22.3011 113.333 23.811 111.542 23.811C109.378 23.811 109.345 21.4447 109.345 20.1093H119.873L119.875 20.0306C119.91 18.4396 119.995 14.5251 117.502 12.0968C116.251 10.8317 114.082 9.89453 111.411 9.89453C107.873 9.89453 104.636 11.5439 103.469 15.5173C103.134 16.6436 102.976 17.8148 103 18.9894C103 25.7321 107.039 27.9672 111.645 27.9672C113.805 27.9672 116.017 27.4283 117.554 25.9617C119.087 24.4993 119.389 22.8691 119.618 21.6333ZM113.515 15.4471C113.652 15.8896 113.709 16.3528 113.684 16.8153H109.509C109.509 16.1171 109.574 14.1819 111.58 14.1819C111.996 14.1564 112.408 14.2658 112.757 14.4937C113.106 14.7216 113.371 15.056 113.515 15.4471ZM131.738 4C134.108 4.0656 136.981 4.16868 138.714 5.96798C139.738 7.18076 140.295 8.71967 140.284 10.3069C140.314 10.9998 140.199 11.6914 139.945 12.337C139.692 12.9826 139.306 13.568 138.813 14.0554C138.112 14.6765 137.312 15.1755 136.447 15.5314C137.51 15.7744 138.495 16.2785 139.314 16.998C140.397 18.2146 140.975 19.7981 140.931 21.426C140.95 22.1894 140.815 22.9489 140.534 23.659C140.253 24.3691 139.832 25.0152 139.296 25.5588C137.448 27.4386 135.027 27.4973 132.382 27.5614L132.267 27.5642H121.457V22.7567L123.561 22.7895V8.7747L121.457 8.8075V4H131.738ZM129.685 13.4791C131.588 13.5119 131.855 13.5119 132.323 13.4135C132.853 13.3006 133.325 13.0028 133.654 12.5734C133.984 12.1441 134.15 11.6113 134.123 11.0707C134.149 10.6381 134.054 10.2067 133.85 9.82457C133.646 9.4424 133.339 9.12439 132.965 8.9059C132.44 8.64345 132.11 8.63889 129.849 8.60769L129.727 8.60601L129.685 13.4791ZM129.685 22.7567H131.559C132.857 22.7567 134.694 22.7239 134.694 20.4889C134.722 20.0085 134.598 19.5316 134.341 19.1249C134.084 18.7182 133.706 18.4021 133.26 18.221C132.693 17.9867 132.426 17.9867 129.723 17.9867L129.685 22.7567ZM158.574 21.6379L158.577 21.6228L152.636 21.6415L152.633 21.6557C152.529 22.3012 152.285 23.811 150.494 23.811C148.329 23.811 148.292 21.4447 148.292 20.1093H158.849L158.85 20.0513C158.889 18.4738 158.986 14.5357 156.478 12.0968C155.227 10.8317 153.057 9.89453 150.386 9.89453C146.83 9.89453 143.592 11.5439 142.421 15.5173C142.088 16.644 141.93 17.8149 141.952 18.9894C141.952 25.7321 145.991 27.9672 150.597 27.9672C152.757 27.9672 154.974 27.4283 156.506 25.9617C158.032 24.501 158.34 22.8731 158.574 21.6379ZM152.476 15.4471C152.613 15.8896 152.67 16.3528 152.645 16.8153H148.47C148.47 16.1171 148.536 14.1819 150.541 14.1819C150.957 14.158 151.369 14.2679 151.717 14.4956C152.065 14.7234 152.332 15.0568 152.476 15.4471ZM176.5 22.7568V27.5643H169.288L169.157 25.5635C168.637 26.3423 167.923 26.973 167.086 27.3942C166.25 27.8154 165.318 28.0129 164.382 27.9673C161.276 27.9673 159.341 26.1305 159.341 22.7896C159.304 21.8861 159.5 20.9883 159.91 20.1825C160.32 19.3766 160.931 18.6899 161.684 18.1883C163.804 16.7402 167.053 16.8079 168.798 16.8442L168.993 16.8482C169.037 16.2369 169.015 15.6227 168.928 15.0161C168.879 14.6556 168.698 14.326 168.42 14.0914C168.142 13.8567 167.787 13.7337 167.423 13.7463C167.213 13.7434 167.003 13.7835 166.808 13.864C166.613 13.9446 166.437 14.0639 166.29 14.2148C166.095 14.4436 165.948 14.7091 165.858 14.9957C165.768 15.2822 165.736 15.5839 165.765 15.8829H159.94C159.94 14.9141 160.145 13.9561 160.54 13.0715C161.777 10.5694 164.917 9.83374 167.32 9.83374C169.588 9.83374 172.193 10.4991 173.627 11.9704C174.93 13.2683 175.061 14.7818 175.061 16.0423V22.7568H176.5ZM169.003 19.8892C168.375 19.8134 167.738 19.8595 167.128 20.0251C166.665 20.1485 166.26 20.4283 165.979 20.8168C165.699 21.2054 165.562 21.6789 165.591 22.1571C165.591 23.3238 166.196 23.961 167.095 23.961C167.396 23.965 167.693 23.8901 167.956 23.7437C168.219 23.5974 168.44 23.3848 168.595 23.127C168.866 22.6488 169.005 22.107 168.998 21.5573L169.003 19.8892ZM184.91 10.2742V4.86694L179.236 6.16019V10.2742H177.263V15.063H178.768V23.4925C178.768 24.4624 178.796 25.6947 179.733 26.6319C180.468 27.3628 181.94 27.9017 183.875 27.9017C185.098 27.8658 186.314 27.72 187.511 27.4659V23.0614C187.224 23.1721 186.919 23.2278 186.611 23.2254C185.011 23.2254 184.943 21.9259 184.911 21.2925L184.91 21.2902V15.063H187.68V10.2742H184.91Z" fill="white"/>
</svg>
