<?xml version="1.0" encoding="UTF-8"?>
<svg width="240px" height="100px" viewBox="0 0 240 100" version="1.1" xmlns="http://www.w3.org/2000/svg" xmlns:xlink="http://www.w3.org/1999/xlink">
    <title>10_Parami</title>
    <defs>
        <linearGradient x1="-12.2889425%" y1="76.3999817%" x2="80.4445361%" y2="24.5460463%" id="linearGradient-1">
            <stop stop-color="#FE2105" offset="0%"></stop>
            <stop stop-color="#FF5B00" offset="26.5622018%"></stop>
            <stop stop-color="#96E9EA" offset="100%"></stop>
        </linearGradient>
    </defs>
    <g id="页面-1" stroke="none" stroke-width="1" fill="none" fill-rule="evenodd">
        <g id="parters" transform="translate(-1200.000000, -195.000000)">
            <g id="10_Parami" transform="translate(1200.000000, 195.000000)">
                <rect id="矩形备份-8" x="0" y="0" width="240" height="100"></rect>
                <g id="编组" transform="translate(15.000000, 32.000000)" fill-rule="nonzero">
                    <path d="M162.350907,0 C163.023697,0 163.657777,0.315973533 164.065752,0.854115952 L164.065752,0.854115952 L175.0399,15.341379 C175.650019,16.146124 176.856125,16.146124 177.466244,15.3407618 L177.466244,15.3407618 L188.436091,0.854115952 C188.844066,0.315973533 189.478147,0 190.150936,0 L190.150936,0 L191.533995,0 C192.343185,0 193,0.659718175 193,1.47248603 L193,1.47248603 L193,35.1637809 C193,35.6253985 192.627047,36 192.167462,36 L192.167462,36 L189.914999,36 C189.455413,36 189.083075,35.6253985 189.083075,35.1637809 L189.083075,35.1637809 L189.083075,8.1974149 C189.083075,7.65063258 188.391238,7.41673808 188.061295,7.85181885 L188.061295,7.85181885 L178.588174,20.3568416 C178.033353,21.0893818 177.169479,21.5195255 176.253379,21.5195255 C175.336665,21.5195255 174.472791,21.0893818 173.91797,20.3568416 L173.91797,20.3568416 L164.43809,7.84317895 C164.108762,7.40809818 163.416925,7.64199267 163.416925,8.18939212 L163.416925,8.18939212 L163.416925,21.0986389 C163.416925,21.5602565 163.044587,21.9342408 162.585001,21.9342408 L162.585001,21.9342408 L160.332538,21.9342408 C159.872953,21.9342408 159.5,21.5602565 159.5,21.0986389 L159.5,21.0986389 L159.5,1.47248603 C159.5,0.659718175 160.1562,0 160.966005,0 L160.966005,0 L162.350907,0 Z M162.699864,23.984 C163.092981,23.984 163.411248,24.3075581 163.411248,24.705831 L163.411248,35.2461691 C163.411248,35.6444418 163.092981,35.9679999 162.699864,35.9679999 L160.243792,35.9679999 C159.850674,35.9679999 159.531799,35.6444418 159.531799,35.2461691 L159.531799,24.705831 C159.531799,24.3075581 159.850674,23.984 160.243792,23.984 L162.699864,23.984 Z" id="形状结合备份-21" fill="#BDCAC3"></path>
                    <path d="M152.433526,35.0398845 L136.603194,1.95235807 C136.032254,0.759319009 134.829334,0 133.508649,0 L132.991351,0 C131.670666,0 130.467746,0.759319009 129.896806,1.95235807 L114.066474,35.0398845 C113.853759,35.4847258 114.177456,36 114.669475,36 L117.03154,36 C117.593232,36 118.104981,35.6768724 118.348525,35.1696298 L131.492479,7.72169974 C131.800145,7.07976934 132.446306,6.66952703 133.15659,6.66582 L133.250308,6.66520216 L133.34341,6.66582 C134.053694,6.66952703 134.699855,7.07976934 135.007521,7.72169974 L148.152092,35.1696298 C148.395019,35.6768724 148.906768,36 149.46846,36 L151.830525,36 C152.322544,36 152.646241,35.4847258 152.433526,35.0398845" id="Fill-1备份-11" fill="#BDCAC3"></path>
                    <path d="M99.2195699,0 C99.2195699,0 109.173382,0.476437009 108.997702,10.8136389 C108.943834,13.9771313 108.566763,15.8365934 108.069104,16.7092383 C107.926478,16.9591826 105.761993,21.9346168 99.2195699,21.9346168 C99.1871271,21.9346168 99.157745,21.9327653 99.1253022,21.9327653 L99.1253022,21.9327653 L99.1253022,21.9346168 L97.4623071,21.9346092 L107.402103,35.0154466 C107.698651,35.4052347 107.421096,35.9680567 106.932772,35.9680567 L103.764487,35.9680567 C103.442205,35.9680567 103.137692,35.8171908 102.941627,35.5597954 L92.5506603,21.9346092 L83.9696268,21.9346168 C83.1357616,21.9346168 82.4584825,22.6090414 82.4450203,23.4459027 L82.4448161,23.4713113 L82.4448161,35.2100526 C82.4448161,35.6463752 82.0940669,36 81.6612923,36 L81.6612923,36 L79.3260242,36 C78.8932499,36 78.5425006,35.6463752 78.5425006,35.2100526 L78.5425006,35.2100526 L78.5425006,20.810176 C78.5425006,19.2580529 79.7906295,18.0003086 81.3301311,18.0003086 L81.3301311,18.0003086 L98.8767782,18.0003086 C104.82605,18.0003086 105.19149,13.621655 105.19149,11.1222121 C105.19149,4.68105532 99.2195699,3.93430819 99.2195699,3.93430819 L99.2195699,3.93430819 L79.6008697,3.93430819 C78.9936389,3.93430819 78.420687,3.64733512 78.0540224,3.15978948 L78.0540224,3.15978948 L76.6669404,1.31513894 C76.2604876,0.775135857 76.6424555,0 77.3145719,0 L77.3145719,0 L99.2195699,0 Z" id="形状结合备份-22" fill="#BDCAC3"></path>
                    <path d="M22.7194896,0 L0.81431137,0 C0.142189373,0 -0.239169466,0.764370083 0.166674691,1.29687313 L1.55376799,3.11590353 C1.92104778,3.59667769 2.4933921,3.87966501 3.100628,3.87966501 L22.7194896,3.87966501 C22.7194896,3.87966501 28.6914588,4.61604065 28.6914588,10.967737 C28.6914588,13.4324653 28.3260154,17.7503043 22.3766951,17.7503043 L3.90925564,17.7503043 C2.87842373,17.7503043 2.04286223,18.581009 2.04286223,19.6058492 L2.04286223,34.7210243 C2.04286223,35.1512865 2.39300229,35.5 2.8257803,35.5 L5.1616797,35.5 C5.59384559,35.5 5.94520989,35.1512865 5.94520989,34.7210243 L5.94520989,23.1453208 C5.94520989,22.3085303 6.62773817,21.6299693 7.46942098,21.6299693 L22.6258332,21.6299693 L22.6258332,21.6281436 C22.6576642,21.6281436 22.6870465,21.6299693 22.7194896,21.6299693 C29.2619667,21.6299693 31.4264689,16.7236384 31.5690959,16.4771656 C32.06676,15.6166407 32.444446,13.7830045 32.4977015,10.6634495 C32.6733837,0.469819829 22.7194896,0 22.7194896,0" id="Fill-7备份-11" fill="#BDCAC3"></path>
                    <path d="M209.121047,36 L205.87921,36 C205.669769,36 205.5,35.8330215 205.5,35.6272751 L205.5,0.372978223 C205.5,0.166978702 205.669769,0 205.87921,0 L209.121047,0 C209.330231,0 209.5,0.166978702 209.5,0.372978223 L209.5,35.6272751 C209.5,35.8330215 209.330231,36 209.121047,36" id="Fill-13备份-15" fill="#BDCAC3"></path>
                    <path d="M67.4082603,33.635963 C65.516604,33.6503457 39.3550436,33.6335027 39.3550436,33.6335027 L66.7881801,27.5167187 C66.7881801,27.5167187 68.7535871,30.8629528 69.0775153,31.4342841 C69.4014435,32.0054262 69.2999166,33.6217698 67.4082603,33.635963 L67.4082603,33.635963 Z M62.0014262,19.2391886 L65.6139793,25.461057 L38.8467038,31.7267053 L62.0014262,19.2391886 Z M38.5131057,29.5267499 L57.2140022,10.9774855 L60.8324067,17.218151 L38.5131057,29.5267499 Z M50.6593647,4.25523691 C51.2616759,3.21556006 52.767645,3.21556006 53.3699562,4.25523691 L56.1302622,9.01885067 L36.7498014,28.2605885 L50.6593647,4.25523691 Z M54.8335945,2.12727615 C53.5759555,-0.0424253824 50.4316672,-0.0424253824 49.1738368,2.12727615 C49.1738368,2.12727615 33.2418291,29.6641662 32.350906,31.1924986 C31.4599827,32.721022 32.1943717,36 35.3756383,36 C38.5570967,36 64.5519388,35.9854972 68.4469023,35.9927485 C72.3418654,36 72.367348,32.3746711 71.6189724,31.0833456 C70.8702136,29.7920202 54.8335945,2.12727615 54.8335945,2.12727615 Z" id="Fill-15备份-15" fill="url(#linearGradient-1)"></path>
                </g>
            </g>
        </g>
    </g>
</svg>