<?xml version="1.0" encoding="UTF-8"?>
<svg width="240px" height="100px" viewBox="0 0 240 100" version="1.1" xmlns="http://www.w3.org/2000/svg" xmlns:xlink="http://www.w3.org/1999/xlink">
    <title>11_Pyth</title>
    <g id="页面-1" stroke="none" stroke-width="1" fill="none" fill-rule="evenodd">
        <g id="parters" transform="translate(0.000000, -335.000000)">
            <g id="11_Pyth" transform="translate(0.000000, 335.000000)">
                <rect id="矩形备份-5" x="0" y="0" width="240" height="100"></rect>
                <g id="pyth" transform="translate(43.000000, 22.000000)" fill-rule="nonzero">
                    <path d="M5.70437571,56 C5.2290085,56 4.94379639,55.6196487 4.94379639,55.2394001 L4.94379639,17.3053679 C4.84871884,15.6891317 5.03886367,9.79461118 9.60236013,5.04096989 C11.0284412,3.51981125 15.0215135,0.0971862348 21.1062097,0.00211350147 C27.0007302,-0.0929593141 31.0888389,3.04444404 32.5148994,4.37545785 C34.0360992,5.80154921 37.5537837,9.69953363 37.7438566,15.8793074 C37.9340322,22.1540765 34.4163477,26.2421852 32.9902872,27.7633849 C28.8070393,32.0416693 23.6731186,32.5169543 21.6766339,32.6120935 C21.2962826,32.6120935 20.916034,32.2317422 20.916034,31.8514936 C20.916034,31.3761059 21.2012461,31.0908937 21.6766339,31.0908937 C23.482943,31.0908937 28.1415786,30.5204695 31.9444752,26.7175729 C32.9902872,25.671761 36.4128325,21.7738279 36.317796,15.9743438 C36.2227596,10.2699784 32.7050751,6.5621388 31.5641239,5.61140438 C30.5184147,4.66068023 26.905591,1.71341996 21.4864582,1.71341996 C21.3914218,1.71341996 21.2962826,1.71341996 21.2012461,1.71341996 C15.6869741,1.80849751 12.0742532,4.94590261 10.7432291,6.27691642 C6.56003258,10.4600718 6.46495503,15.7841682 6.46495503,17.3053679 L6.46495503,55.2394001 C6.46495503,55.7147879 6.17974292,56 5.70437571,56 Z" id="路径" fill="#6633CC"></path>
                    <path d="M21.2014516,21.9639008 C18.1591549,21.9639008 15.6872824,19.4920283 15.6872824,16.4497316 C15.6872824,13.4073321 18.1591549,10.9354596 21.2014516,10.9354596 C24.2437483,10.9354596 26.7157236,13.4073321 26.7157236,16.4497316 C26.7157236,19.4920283 24.2437483,21.9639008 21.2014516,21.9639008 Z M21.2014516,12.3615201 C19.0147912,12.3615201 17.2083794,14.167932 17.2083794,16.3545924 C17.2083794,18.5412528 19.0147912,20.3476646 21.2014516,20.3476646 C23.388112,20.3476646 25.1945238,18.5412528 25.1945238,16.3545924 C25.1945238,14.167932 23.388112,12.3615201 21.2014516,12.3615201 Z" id="形状" fill="#6633CC"></path>
                    <path d="M10.8386765,42.6897592 C10.3632888,42.6897592 10.0780561,42.3095106 10.0780561,41.9292621 L10.0780561,17.3053679 C10.0780561,16.8299802 10.4583252,16.544768 10.8386765,16.544768 C11.2189251,16.544768 11.5991737,16.9251193 11.5991737,17.3053679 L11.5991737,41.9292621 C11.5991737,42.3095106 11.2189251,42.6897592 10.8386765,42.6897592 Z" id="路径" fill="#6633CC"></path>
                    <path d="M16.3525375,50.3906916 C15.8771498,50.3906916 15.5919377,50.0103403 15.5919377,49.6300917 L15.5919377,36.5100265 C15.5919377,36.0346388 15.9721862,35.7494267 16.3525375,35.7494267 C16.7327861,35.7494267 17.1130347,36.129778 17.1130347,36.5100265 L17.1130347,49.6300917 C17.2081739,50.0103403 16.8278226,50.3906916 16.3525375,50.3906916 Z" id="路径" fill="#6633CC"></path>
                    <path d="M0.760582401,44.2109589 C0.285218272,44.2109589 0,43.8306076 0,43.450359 L0,26.7175729 C0,26.2421852 0.380290687,25.9569731 0.760582401,25.9569731 C1.14086898,25.9569731 1.52116891,26.3372216 1.52116891,26.7175729 L1.52116891,43.450359 C1.52116891,43.9257468 1.23594653,44.2109589 0.760582401,44.2109589 Z" id="路径" fill="#6633CC"></path>
                    <path d="M21.2015543,27.4781728 C15.0218217,27.4781728 10.0780561,22.4392886 10.0780561,16.3545924 C10.0780561,10.2699681 15.0218217,5.23110444 21.2015543,5.23110444 C27.381287,5.23110444 32.3251348,10.2699681 32.3251348,16.3545924 C32.3251348,22.4392886 27.2862505,27.4781728 21.2015543,27.4781728 Z M21.2015543,6.75227336 C15.877458,6.75227336 11.5991737,11.0304961 11.5991737,16.3545924 C11.5991737,21.6786887 15.877458,25.9569731 21.2015543,25.9569731 C26.5256507,25.9569731 30.803935,21.6786887 30.803935,16.3545924 C30.803935,11.0304961 26.4306142,6.75227336 21.2015543,6.75227336 Z" id="形状" fill="#6633CC"></path>
                    <path d="M100.96786,15.3088832 L97.7353877,15.3088832 C97.545212,15.3088832 97.4501756,15.4039196 97.3550364,15.4989561 L91.555655,23.0097128 C91.1753037,23.4851006 90.8900916,23.9604883 90.6048795,24.3407369 C90.4147039,23.9604883 90.0344553,23.4851006 89.6542067,23.0097128 L83.7596862,15.4989561 C83.664547,15.4039196 83.5695105,15.3088832 83.3793349,15.3088832 L80.2420017,15.3088832 C80.0518261,15.3088832 79.8616504,15.4039196 79.8616504,15.5940953 C79.7666139,15.7841682 79.7666139,15.9743438 79.9567896,16.069483 L88.7984677,27.6683485 L88.7984677,38.0312263 C88.7984677,38.3164384 88.9886433,38.506614 89.2738554,38.506614 L92.03094,38.506614 C92.3162549,38.506614 92.5063278,38.3164384 92.5063278,38.0312263 L92.5063278,27.5732093 L101.348109,15.9743438 C101.443145,15.7841682 101.443145,15.5940953 101.443145,15.4989561 C101.348109,15.4989561 101.157933,15.3088832 100.96786,15.3088832 Z" id="路径" fill="#000000"></path>
                    <path d="M126.637874,15.3088832 L107.337768,15.3088832 C107.052145,15.3088832 106.862072,15.4989561 106.862072,15.7841682 L106.862072,18.1610042 C106.862072,18.4462163 107.052145,18.636392 107.337768,18.636392 L115.13384,18.636392 L115.13384,38.0312263 C115.13384,38.3164384 115.323913,38.506614 115.609536,38.506614 L118.366107,38.506614 C118.65173,38.506614 118.841803,38.3164384 118.841803,38.0312263 L118.841803,18.7314284 L126.637874,18.7314284 C126.92247,18.7314284 127.112543,18.5413555 127.112543,18.2561434 L127.112543,15.8793074 C127.112543,15.5940953 126.92247,15.3088832 126.637874,15.3088832 Z" id="路径" fill="#000000"></path>
                    <path d="M63.9843979,15.3088832 L54.857405,15.3088832 C54.5721928,15.3088832 54.3821199,15.4989561 54.3821199,15.7841682 L54.3821199,38.0312263 C54.3821199,38.3164384 54.5721928,38.506614 54.857405,38.506614 L57.6145923,38.506614 C57.8998044,38.506614 58.0898773,38.3164384 58.0898773,38.0312263 L58.0898773,34.2283297 L58.0898773,32.8973056 L58.0898773,29.5697968 L58.0898773,28.9993725 L58.0898773,18.5413555 L64.26961,18.5413555 C67.692258,18.5413555 70.1641305,20.8230524 70.1641305,24.0555248 C70.1641305,27.2879972 67.692258,29.5697968 64.1745735,29.5697968 L63.2239007,29.5697968 C63.2239007,29.5697968 62.9385859,29.5697968 62.8435494,29.7598697 C62.748513,29.8550089 62.748513,30.0450818 62.748513,30.0450818 C62.748513,30.8056816 62.748513,31.661318 62.748513,32.4219178 C62.748513,32.4219178 62.748513,32.6120935 62.8435494,32.8022691 C62.9385859,32.8973056 63.1287615,32.8973056 63.2239007,32.8973056 C63.4139737,32.8973056 63.6991858,32.8973056 63.8893614,32.8973056 C64.3647492,32.8973056 69.1183185,33.1825177 71.9705424,29.5697968 C73.7769542,27.2879972 73.8719907,24.625949 73.8719907,24.0555248 C74.0621663,18.9216041 69.9740576,15.3088832 63.9843979,15.3088832 Z" id="路径" fill="#000000"></path>
                    <path d="M138.426505,24.5309125 L138.426505,15.7841682 C138.426505,15.4989561 138.236432,15.3088832 137.950809,15.3088832 L135.194238,15.3088832 C134.908615,15.3088832 134.718542,15.4989561 134.718542,15.7841682 L134.718542,38.0312263 C134.718542,38.3164384 134.908615,38.506614 135.194238,38.506614 L137.950809,38.506614 C138.236432,38.506614 138.426505,38.3164384 138.426505,38.0312263 L138.426505,27.8584214" id="路径" fill="#000000"></path>
                    <path d="M153.638502,15.3088832 L150.880904,15.3088832 C150.59528,15.3088832 150.405208,15.4989561 150.405208,15.7841682 L150.405208,24.5309125 L142.894759,24.5309125 C142.704686,24.5309125 142.514613,24.7210882 142.514613,24.9111611 L142.514613,27.4781728 C142.514613,27.6683485 142.704686,27.8584214 142.894759,27.8584214 L150.405208,27.8584214 L150.405208,38.1263655 C150.405208,38.4115776 150.59528,38.6016505 150.880904,38.6016505 L153.638502,38.6016505 C153.923098,38.6016505 154.11317,38.4115776 154.11317,38.1263655 L154.11317,15.7841682 C154.11317,15.5940953 153.923098,15.3088832 153.638502,15.3088832 Z" id="路径" fill="#000000"></path>
                </g>
            </g>
        </g>
    </g>
</svg>