<?xml version="1.0" encoding="UTF-8"?>
<svg width="240px" height="100px" viewBox="0 0 240 100" version="1.1" xmlns="http://www.w3.org/2000/svg" xmlns:xlink="http://www.w3.org/1999/xlink">
    <title>12_AXIA8</title>
    <g id="页面-1" stroke="none" stroke-width="1" fill="none" fill-rule="evenodd">
        <g id="parters" transform="translate(-310.000000, -335.000000)">
            <g id="12_AXIA8" transform="translate(310.000000, 335.000000)">
                <rect id="矩形备份-9" x="0" y="0" width="240" height="100"></rect>
                <path d="M49.8635803,66.3202181 L51.8249857,66.3202181 L48.8473942,74.8819493 L47.0103068,74.8819493 L44.0445431,66.3202181 L45.9999087,66.3202181 L47.9260822,72.7587771 L49.8635803,66.3202181 Z M67.4475265,71.1713115 L70.8302839,71.1713115 L70.8302839,69.7897124 L67.4475265,69.7897124 L67.4475265,67.7486852 L71.405569,67.7486852 L71.405569,66.3197142 L65.6856842,66.3197142 L65.6856842,74.8814454 L71.4181518,74.8814454 L71.4181518,73.4643174 L67.4475265,73.4643174 L67.4475265,71.1713115 Z M90.7964039,71.9650443 L87.3607988,66.3207221 L85.5992082,66.3207221 L85.5992082,74.8824533 L87.3607988,74.8824533 L87.3607988,69.2484622 L90.7906158,74.8819493 L92.5522065,74.8819493 L92.5522065,66.3202181 L90.795649,66.3202181 L90.7964039,71.9650443 Z M106.514574,67.7491892 L109.098324,67.7491892 L109.098324,74.8819493 L110.859915,74.8819493 L110.859915,67.7491892 L113.478897,67.7491892 L113.478897,66.3202181 L106.514574,66.3202181 L106.514574,67.7491892 Z M132.184725,72.0179598 C132.16929,73.0611515 131.665978,73.5825793 130.67479,73.5822434 C130.26758,73.6060804 129.8675,73.4675669 129.561968,73.196968 C129.293535,72.9401177 129.159318,72.5314083 129.159318,71.9708398 L129.159318,66.3202181 L127.397728,66.3202181 L127.397728,72.0242593 C127.366482,72.8474684 127.6944,73.6435745 128.296139,74.2053866 C128.883336,74.7350458 129.676136,74.9996234 130.674538,74.9991201 C131.688375,74.9991201 132.48797,74.7268145 133.073321,74.1822046 C133.672995,73.6030478 133.993084,72.7924279 133.951097,71.9592488 L133.951097,66.3202181 L132.183466,66.3202181 L132.184725,72.0179598 Z M155.154357,74.7998043 L155.154357,74.8822013 L153.263667,74.8822013 L151.660367,71.7483426 L150.256631,71.7483426 L150.256631,74.8822013 L148.495041,74.8822013 L148.495041,66.3202181 L151.672699,66.3202181 C152.682342,66.3202181 153.461384,66.545655 154.009826,66.9965289 C154.56786,67.4693914 154.872123,68.1769211 154.831734,68.9077871 C154.85092,69.4213791 154.719709,69.9293808 154.45425,70.3692634 C154.170302,70.785253 153.771318,71.109263 153.306196,71.3015844 L155.154357,74.7998043 Z M153.070143,69.0491471 C153.089663,68.6979845 152.965548,68.3540002 152.726381,68.0964158 C152.436057,67.8434105 152.05606,67.7183996 151.672447,67.7496931 L150.256631,67.7496931 L150.256631,70.3198755 L151.678235,70.3198755 C152.05147,70.3436773 152.419499,70.2224681 152.705746,69.9814682 C152.95636,69.7380138 153.089283,69.3977443 153.070143,69.0486432 L153.070143,69.0491471 Z M170.941732,71.1718154 L174.324489,71.1718154 L174.324489,69.7902164 L170.941732,69.7902164 L170.941732,67.7491892 L174.89902,67.7491892 L174.89902,66.3202181 L169.17989,66.3202181 L169.17989,74.8819493 L174.911602,74.8819493 L174.911602,73.4643174 L170.941732,73.4643174 L170.941732,71.1718154 Z M190.509733,67.8817299 C190.805472,67.6829101 191.15828,67.5869364 191.513839,67.6085851 C191.888737,67.5852737 192.25903,67.7013856 192.553681,67.9346455 C192.80722,68.1688232 192.942912,68.5042388 192.923615,68.849076 L194.685206,68.849076 C194.692619,68.3612193 194.554624,67.8822235 194.288848,67.4732725 C194.014575,67.0609481 193.628532,66.7355114 193.176026,66.5351559 C192.662648,66.3063287 192.105388,66.1930478 191.543535,66.2033 C190.981526,66.1949411 190.423484,66.2987606 189.901984,66.5086982 C189.45592,66.6811123 189.067256,66.975626 188.780354,67.3586222 C188.520919,67.7185558 188.383987,68.1524974 188.389784,68.5963414 C188.389784,69.4866661 188.875396,70.1943062 189.84662,70.7192617 C190.312175,70.9560687 190.797438,71.1518394 191.296912,71.3043562 C191.7458,71.4273256 192.173511,71.6176255 192.565509,71.8687884 C192.802291,72.0507062 192.934133,72.3379243 192.917827,72.6363154 C192.929202,72.9187608 192.796495,73.1876484 192.565509,73.350171 C192.273504,73.5370028 191.929981,73.6266099 191.584051,73.6061813 C190.456633,73.6061813 189.892924,73.1338053 189.892924,72.1890533 L188.125042,72.1890533 C188.11459,72.7072616 188.263119,73.216213 188.550592,73.6472539 C188.860663,74.0880772 189.289315,74.4317356 189.786726,74.638286 C190.35359,74.8845858 190.966169,75.0077397 191.584051,74.9996234 C192.531619,74.9996234 193.285161,74.7889692 193.844675,74.3676609 C194.396879,73.9625082 194.711666,73.3088903 194.684451,72.6239685 C194.700285,71.9955521 194.450971,71.3895349 193.997682,70.9546098 C193.539669,70.5072637 192.809867,70.1329074 191.808277,69.8315409 C191.373243,69.7147789 190.957024,69.5366067 190.572143,69.3023857 C190.318549,69.1597362 190.15883,68.8938035 190.151878,68.6026409 C190.144853,68.3177507 190.278778,68.0477642 190.509733,67.881226 L190.509733,67.8817299 Z M121.493631,53.7469865 L125.925038,53.7469865 L125.925038,25.7032725 L121.493631,25.7032725 L121.493631,53.7469865 Z M196.678571,45.7088669 C196.678571,50.5030131 192.421058,54.402131 187.187624,54.402131 C181.95419,54.402131 177.697181,50.5020052 177.697181,45.7088669 C177.697181,42.7571888 179.314572,40.1484536 181.776773,38.5763587 C179.92418,37.1887441 178.82239,35.0166136 178.796161,32.7002162 C178.796161,28.4541236 182.560429,25 187.187624,25 C191.81482,25 195.579087,28.4541236 195.579087,32.7002162 C195.552858,35.0165436 194.45106,37.188597 192.598476,38.5761067 C195.060928,40.1487056 196.678571,42.7574408 196.678571,45.7091189 L196.678571,45.7088669 Z M187.187624,37.0156028 C189.889653,37.0156028 192.088118,35.0799027 192.088118,32.7004681 C192.088118,30.3210336 189.889653,28.3853334 187.187624,28.3853334 C184.485596,28.3853334 182.287131,30.3210336 182.287131,32.7004681 C182.287131,35.0799027 184.485596,37.0156028 187.187624,37.0156028 L187.187624,37.0156028 Z M193.187602,45.7088669 C193.187602,42.7818827 190.494885,40.4004323 187.187624,40.4004323 C183.880364,40.4004323 181.18815,42.7818827 181.18815,45.7088669 C181.18815,48.6358512 183.879357,51.0180575 187.187624,51.0180575 C190.495892,51.0180575 193.187602,48.6368591 193.187602,45.7091189 L193.187602,45.7088669 Z M65.5502934,53.7469865 L54.3868418,25.6566564 L58.1727517,25.6566564 L69.9185349,53.7469865 L65.5502934,53.7469865 Z M57.5682745,43.3276685 L55.880419,39.4071324 L50.5037927,39.4071324 L44,53.7469865 L48.4653806,53.7469865 L52.7686949,43.3281725 L57.5682745,43.3276685 Z M162.193421,53.7469865 L151.02997,25.6566564 L154.816886,25.6566564 L166.561663,53.7469865 L162.193421,53.7469865 Z M154.211402,43.3276685 L152.523547,39.4071324 L147.146921,39.4071324 L140.643128,53.7469865 L145.108509,53.7469865 L149.411823,43.3281725 L154.211402,43.3276685 Z M80.9941586,53.7469865 L85.8438176,53.7469865 L91.5840866,45.5392853 L86.6886262,45.5392853 L80.9941586,53.7469865 Z M95.6908577,39.6689382 L105.458123,53.7469865 L100.607206,53.7469865 L80.9941586,25.7032725 L86.0000959,25.7032725 L93.2253858,36.1175509 L93.2253858,36.1175509 L100.450927,25.7032725 L105.456865,25.7032725 L95.6908577,39.6689382 Z" id="AXIA8" fill="#222222" fill-rule="nonzero"></path>
            </g>
        </g>
    </g>
</svg>