<?xml version="1.0" encoding="UTF-8"?>
<svg width="240px" height="100px" viewBox="0 0 240 100" version="1.1" xmlns="http://www.w3.org/2000/svg" xmlns:xlink="http://www.w3.org/1999/xlink">
    <title>13_KRYPITAL</title>
    <g id="页面-1" stroke="none" stroke-width="1" fill="none" fill-rule="evenodd">
        <g id="parters" transform="translate(-620.000000, -335.000000)">
            <g id="13_KRYPITAL" transform="translate(620.000000, 335.000000)">
                <rect id="矩形备份-10" x="0" y="0" width="240" height="100"></rect>
                <path d="M179.611668,62.3773776 C179.509147,62.6229144 179.355365,62.8442435 179.14502,63.0240732 C178.934675,63.2090906 178.669533,63.3543377 178.349597,63.4546274 C178.027892,63.5618337 177.647857,63.6119784 177.211258,63.6119784 L174.665903,63.6119784 L174.665903,59.6021191 L177.151159,59.6021191 C178.020822,59.6021191 178.674836,59.7698449 179.113203,60.1174007 C179.546267,60.4614981 179.767217,60.942197 179.767217,61.5612268 C179.767217,61.8569085 179.715957,62.1283824 179.611668,62.3773776 L179.611668,62.3773776 Z M180.608599,60.445936 C180.46012,60.1139425 180.237401,59.8286355 179.938675,59.5900151 C179.638182,59.3600403 179.266985,59.1784814 178.823315,59.0453382 C178.381413,58.9156532 177.861737,58.8482171 177.271356,58.8482171 L173.61948,58.8482171 L173.61948,68.0057056 L174.665903,68.0057056 L174.665903,64.3537766 L177.365039,64.3537766 C177.943047,64.3537766 178.45035,64.2794239 178.885182,64.125531 C179.318245,63.9716382 179.68414,63.7658714 179.97226,63.5082305 C180.256845,63.2609645 180.476028,62.9618245 180.620972,62.6229144 C180.760613,62.2857334 180.83662,61.927803 180.83662,61.5560393 C180.83662,61.1462348 180.758845,60.7796587 180.608599,60.445936 L180.608599,60.445936 Z M156.71055,67.9227072 C157.224923,67.7757308 157.666825,67.5595893 158.043325,67.2708241 C158.423361,66.9803296 158.723854,66.6120243 158.943037,66.1710954 C159.162221,65.7284374 159.270045,65.2010518 159.270045,64.5975844 L159.270045,58.8482171 L158.220086,58.8482171 L158.220086,64.5630017 C158.220086,65.047159 158.129938,65.4604217 157.954945,65.8114357 C157.779952,66.165908 157.546628,66.4581315 157.25674,66.6829188 C156.963317,66.9128935 156.634543,67.0788902 156.261577,67.1878256 C155.886845,67.3036776 155.497971,67.3538224 155.100259,67.3538224 C154.688407,67.3538224 154.304836,67.3036776 153.944244,67.1964713 C153.583652,67.0909942 153.272554,66.9284557 153.003877,66.7071267 C152.731666,66.490985 152.523088,66.2108655 152.369306,65.8684971 C152.213757,65.5278579 152.141285,65.1180533 152.141285,64.6425417 L152.141285,58.8482171 L151.080721,58.8482171 L151.080721,64.7307276 C151.080721,65.3238203 151.188545,65.8356435 151.397122,66.2661977 C151.602165,66.6915644 151.883214,67.0425785 152.242039,67.322698 C152.599095,67.5959011 153.019786,67.8051261 153.502343,67.9382693 C153.99197,68.0714125 154.511646,68.1388488 155.07021,68.1388488 C155.657056,68.1388488 156.203246,68.0644961 156.71055,67.9227072 L156.71055,67.9227072 Z M135.916419,64.9762644 C135.76794,65.4656092 135.539918,65.8875176 135.230587,66.2368025 C134.928326,66.5860873 134.535918,66.8662068 134.063966,67.0581406 C133.586713,67.2552619 133.026381,67.3538224 132.370599,67.3538224 C131.755471,67.3538224 131.212816,67.2587201 130.7444,67.0667863 C130.277752,66.8696652 129.881808,66.5964621 129.560103,66.2419898 C129.241934,65.8909759 128.999772,65.4725257 128.833617,64.9849101 C128.670997,64.502482 128.589687,63.9664508 128.589687,63.383733 C128.589687,62.799286 128.669229,62.2684422 128.828314,61.7860141 C128.985631,61.3053151 129.22249,60.8989688 129.538892,60.5583296 C129.857061,60.2246069 130.24947,59.9600496 130.723189,59.7750323 C131.193372,59.5900151 131.743098,59.498371 132.370599,59.498371 C132.985726,59.498371 133.526614,59.5900151 133.99503,59.7750323 C134.468748,59.9600496 134.85939,60.2246069 135.181094,60.5583296 C135.497496,60.8989688 135.73789,61.3053151 135.898743,61.7860141 C136.057827,62.2684422 136.135602,62.799286 136.135602,63.383733 C136.135602,63.9595343 136.066665,64.4921073 135.916419,64.9762644 L135.916419,64.9762644 Z M136.911582,61.4592079 C136.697701,60.8868648 136.384835,60.3975203 135.972982,59.991174 C135.557595,59.5865569 135.052059,59.2649381 134.44577,59.0453382 C133.843016,58.8240092 133.151881,58.7133447 132.370599,58.7133447 C131.589316,58.7133447 130.892879,58.8205508 130.29366,59.0401507 C129.690906,59.2614799 129.187138,59.574453 128.775286,59.9756118 C128.365201,60.3819581 128.052335,60.8713027 127.840222,61.447104 C127.626341,62.0263635 127.522052,62.6730593 127.522052,63.383733 C127.522052,64.0719279 127.622806,64.7082488 127.824313,65.2892375 C128.02582,65.8684971 128.333384,66.373404 128.739934,66.7953124 C129.144716,67.2172209 129.650251,67.5474854 130.254773,67.7843765 C130.86283,68.0178095 131.566337,68.1388488 132.370599,68.1388488 C133.128902,68.1388488 133.809431,68.0212678 134.412185,67.7930222 C135.011404,67.5665058 135.520475,67.243158 135.939398,66.829895 C136.354785,66.4200905 136.67649,65.918642 136.897441,65.3307368 C137.118392,64.7428316 137.227983,64.0961357 137.227983,63.383733 C137.227983,62.6730593 137.125462,62.0350092 136.911582,61.4592079 L136.911582,61.4592079 Z M112.804955,62.1802563 C112.705969,62.4136894 112.552187,62.6177271 112.352448,62.7871821 C112.145638,62.9618245 111.884032,63.0949678 111.564095,63.1987157 C111.24239,63.2920889 110.864122,63.3491503 110.423988,63.3491503 L107.860958,63.3491503 L107.860958,59.6021191 L110.374495,59.6021191 C110.779277,59.6021191 111.134566,59.6367016 111.450968,59.7162419 C111.769137,59.7940527 112.037814,59.9081755 112.264067,60.0672558 C112.492089,60.2211486 112.663546,60.4130824 112.783744,60.6378696 C112.902173,60.862657 112.960505,61.1272144 112.960505,61.4228961 C112.960505,61.6926409 112.911011,61.9399069 112.804955,62.1802563 L112.804955,62.1802563 Z M114.376358,68.0057056 L111.378496,63.9629925 C111.84868,63.9007437 112.249926,63.7883501 112.584004,63.6240825 C112.919849,63.4667313 113.195596,63.2696102 113.405941,63.0327189 C113.618054,62.799286 113.771836,62.5468326 113.877893,62.2684422 C113.975111,61.9900517 114.026372,61.7030157 114.026372,61.4228961 C114.026372,61.0130916 113.948597,60.6499737 113.787745,60.330084 C113.621589,60.0153818 113.388265,59.7473662 113.080702,59.5312245 C112.780209,59.3098956 112.405476,59.1438988 111.965342,59.0280468 C111.52344,58.9104658 111.021439,58.8482171 110.464643,58.8482171 L106.810999,58.8482171 L106.810999,68.0057056 L107.860958,68.0057056 L107.860958,64.0840318 L110.325002,64.0840318 L113.128427,68.0057056 L114.376358,68.0057056 Z M89.8826251,68.0178095 C90.2944777,67.9348111 90.6762808,67.8224175 91.0156615,67.6806286 C91.3656476,67.5474854 91.6732112,67.3849469 91.9507255,67.1964713 C92.2264723,67.0114541 92.4668669,66.8091456 92.6772121,66.6085661 L92.6772121,63.5410841 L88.5975748,63.5410841 L88.5975748,64.2742364 L91.692655,64.2742364 L91.692655,66.2489065 C91.5636197,66.3785914 91.4009997,66.5117346 91.2030278,66.6414196 C91.0068233,66.7659171 90.7734992,66.8886856 90.5083581,66.9958918 C90.2449846,67.1013689 89.9497943,67.1878256 89.6245545,67.2552619 C89.2993148,67.322698 88.9404905,67.3538224 88.5480817,67.3538224 C87.9400249,67.3538224 87.4026723,67.2587201 86.944862,67.0667863 C86.4817489,66.8696652 86.0999458,66.5964621 85.7959174,66.2419898 C85.4901213,65.8909759 85.2656352,65.4725257 85.1083182,64.9849101 C84.9545364,64.502482 84.8785294,63.9664508 84.8785294,63.383733 C84.8785294,62.799286 84.9492336,62.2684422 85.0871069,61.7860141 C85.2285155,61.3053151 85.4441635,60.8989688 85.7375864,60.5583296 C86.0310092,60.2246069 86.4022067,59.9600496 86.8582494,59.7750323 C87.3089891,59.5900151 87.849877,59.498371 88.4773775,59.498371 C88.898068,59.498371 89.2692655,59.5415994 89.59097,59.6245977 C89.9144422,59.7075962 90.1972592,59.8182606 90.4429566,59.9669661 C90.6833512,60.1139425 90.8936965,60.2799392 91.066922,60.4684146 C91.2366123,60.653432 91.3833237,60.8557405 91.5017534,61.0632365 L92.4544936,60.7675548 C92.3113174,60.5116431 92.1310215,60.2557314 91.9153734,60.0067361 C91.6997253,59.7629284 91.4328167,59.5415994 91.116415,59.3531238 C90.7964781,59.1560027 90.4217453,59.0055682 89.9869141,58.8862579 C89.5591531,58.7686769 89.0553851,58.7133447 88.4773775,58.7133447 C87.6890247,58.7133447 87.0031932,58.8205508 86.4234179,59.0401507 C85.8454105,59.2614799 85.3575508,59.574453 84.9686772,59.9756118 C84.5798037,60.3819581 84.2899161,60.8713027 84.0954793,61.447104 C83.9063453,62.0263635 83.8091269,62.6730593 83.8091269,63.383733 C83.8091269,64.0719279 83.9063453,64.7082488 84.0954793,65.2892375 C84.2899161,65.8684971 84.5798037,66.373404 84.9722125,66.7953124 C85.3646213,67.2172209 85.8577837,67.5474854 86.4516997,67.7843765 C87.0473833,68.0178095 87.745588,68.1388488 88.5480817,68.1388488 C89.023568,68.1388488 89.4690051,68.0956204 89.8826251,68.0178095 L89.8826251,68.0178095 Z M204.248577,45.4629983 C203.963992,45.4629983 203.734204,45.2191905 203.734204,44.9235086 L203.734204,33.6288118 C203.734204,33.3279426 203.506182,33.085864 203.21983,33.085864 L200.815884,33.085864 C200.531299,33.085864 200.30151,33.3279426 200.30151,33.6288118 L200.30151,47.9391167 C200.30151,48.2399859 200.531299,48.4837936 200.815884,48.4837936 L212.485626,48.4837936 C212.768444,48.4837936 213,48.2399859 213,47.9391167 L213,46.0076751 C213,45.7068059 212.768444,45.4629983 212.485626,45.4629983 L204.248577,45.4629983 Z M190.238523,36.7274181 C190.180191,36.4369238 189.895606,36.1948452 189.614557,36.1948452 L186.89421,36.1948452 C186.61316,36.1948452 186.335645,36.4369238 186.284385,36.7274181 L185.900815,38.8352313 C185.844251,39.1257257 186.038688,39.3626169 186.319738,39.3626169 L190.261502,39.3626169 C190.546086,39.3626169 190.729917,39.1257257 190.669819,38.8352313 L190.238523,36.7274181 Z M192.221778,33.085864 C192.502827,33.085864 192.780342,33.3244843 192.845743,33.6167078 L195.817091,48.046323 C195.87719,48.3385465 195.696893,48.5754376 195.410541,48.5754376 L193.176286,48.5754376 C192.895236,48.5754376 192.610652,48.3385465 192.548785,48.046323 L191.465242,43.0024419 C191.403376,42.7154058 191.120558,42.4785146 190.834207,42.4785146 L185.761173,42.4785146 C185.481891,42.4785146 185.202609,42.7154058 185.146046,43.0059002 L184.140278,48.046323 C184.083714,48.3385465 183.802665,48.5754376 183.521615,48.5754376 L181.283824,48.5754376 C180.99924,48.5754376 180.817176,48.3385465 180.875507,48.046323 L183.751404,33.6167078 C183.811503,33.3244843 184.089017,33.085864 184.375369,33.085864 L192.221778,33.085864 Z M164.912247,35.4737967 C164.912247,35.7729367 165.140268,36.0150153 165.423085,36.0150153 L169.725441,36.0150153 C170.008258,36.0150153 170.239815,36.2605522 170.239815,36.5579631 L170.239815,47.9391167 C170.239815,48.2399859 170.471371,48.4837936 170.754189,48.4837936 L172.972536,48.4837936 C173.255353,48.4837936 173.486909,48.2399859 173.486909,47.9391167 L173.486909,36.5579631 C173.486909,36.2605522 173.716698,36.0150153 174.003051,36.0150153 L178.307174,36.0150153 C178.593526,36.0150153 178.823315,35.7729367 178.823315,35.4737967 L178.823315,33.6288118 C178.823315,33.3279426 178.593526,33.085864 178.307174,33.085864 L165.423085,33.085864 C165.140268,33.085864 164.912247,33.3279426 164.912247,33.6288118 L164.912247,35.4737967 Z M157.270881,47.9391167 C157.270881,48.2399859 157.502438,48.4837936 157.785255,48.4837936 L160.192736,48.4837936 C160.473785,48.4837936 160.703574,48.2399859 160.703574,47.9391167 L160.703574,33.6288118 C160.703574,33.3279426 160.473785,33.085864 160.192736,33.085864 L157.785255,33.085864 C157.502438,33.085864 157.270881,33.3279426 157.270881,33.6288118 L157.270881,47.9391167 Z M142.260361,36.1066594 C141.977544,36.1066594 141.745987,36.348738 141.745987,36.6496072 L141.745987,39.272702 C141.745987,39.571842 141.977544,39.8156497 142.260361,39.8156497 L148.18538,39.8156497 C148.468197,39.8156497 148.701521,39.571842 148.701521,39.272702 L148.701521,36.6496072 C148.701521,36.348738 148.468197,36.1066594 148.18538,36.1066594 L142.260361,36.1066594 Z M138.40521,33.6288118 C138.40521,33.3279426 138.634999,33.085864 138.919583,33.085864 L151.52439,33.085864 C151.810743,33.085864 152.042299,33.3279426 152.042299,33.6288118 L152.042299,42.2934974 C152.042299,42.5891791 151.810743,42.8329869 151.52439,42.8329869 L142.260361,42.8329869 C141.977544,42.8329869 141.745987,43.0767946 141.745987,43.3776638 L141.745987,47.9391167 C141.745987,48.2399859 141.514431,48.4837936 141.231614,48.4837936 L138.919583,48.4837936 C138.634999,48.4837936 138.40521,48.2399859 138.40521,47.9391167 L138.40521,33.6288118 Z M127.209186,39.1568501 C127.050101,39.4058452 126.793798,39.4058452 126.638249,39.1533918 L123.138387,33.5371677 C122.984605,33.29336 122.627548,33.085864 122.344731,33.085864 L119.661503,33.085864 C119.378686,33.085864 119.274397,33.2899017 119.433482,33.5371677 L124.964325,42.3159761 C125.119874,42.5649713 125.247142,43.0110876 125.247142,43.3102276 L125.247142,47.9391167 C125.247142,48.2399859 125.480466,48.4837936 125.761516,48.4837936 L128.071778,48.4837936 C128.356363,48.4837936 128.589687,48.2399859 128.589687,47.9391167 L128.589687,43.2237709 C128.589687,42.9280892 128.718722,42.4819729 128.879575,42.2347069 L134.504101,33.5371677 C134.663185,33.2899017 134.565967,33.085864 134.281382,33.085864 L131.589316,33.085864 C131.308267,33.085864 130.947675,33.2899017 130.786823,33.5371677 L127.209186,39.1568501 Z M104.716385,36.1066594 C104.433567,36.1066594 104.200243,36.348738 104.200243,36.6496072 L104.200243,38.8231274 C104.200243,39.1222674 104.433567,39.3626169 104.716385,39.3626169 L110.918918,39.3626169 C111.207038,39.3626169 111.438595,39.1222674 111.438595,38.8231274 L111.438595,36.6496072 C111.438595,36.348738 111.207038,36.1066594 110.918918,36.1066594 L104.716385,36.1066594 Z M111.808025,42.3834123 C111.52344,42.3834123 111.433292,42.5857209 111.599447,42.820883 L115.291978,48.0497812 C115.461669,48.2918598 115.369753,48.4837936 115.085168,48.4837936 L112.177454,48.4837936 C111.89287,48.4837936 111.52344,48.2918598 111.355517,48.0497812 L107.661218,42.820883 C107.495063,42.5857209 107.125633,42.3834123 106.841048,42.3834123 L104.716385,42.3834123 C104.433567,42.3834123 104.200243,42.6324074 104.200243,42.9280892 L104.200243,47.9391167 C104.200243,48.2399859 103.970454,48.4837936 103.687637,48.4837936 L101.373839,48.4837936 C101.094557,48.4837936 100.863001,48.2399859 100.863001,47.9391167 L100.863001,33.6288118 C100.863001,33.3279426 101.094557,33.085864 101.373839,33.085864 L114.169548,33.085864 C114.44883,33.085864 114.687457,33.3279426 114.687457,33.6288118 L114.687457,41.8439228 C114.687457,42.1396045 114.44883,42.3834123 114.169548,42.3834123 L111.808025,42.3834123 Z M96.1664687,33.5112307 C96.3432293,33.281256 96.2530815,33.085864 95.9720318,33.085864 L93.0395716,33.085864 C92.7567545,33.085864 92.3802541,33.2743395 92.2034934,33.5112307 L88.3554125,38.584507 C88.1804195,38.8144817 87.7986163,39.0029572 87.5193343,39.0029572 L86.3173615,39.0029572 C86.036312,39.0029572 85.8029878,38.7643369 85.8029878,38.4634677 L85.8029878,33.6288118 C85.8029878,33.3279426 85.5731988,33.085864 85.2903817,33.085864 L83.0702671,33.085864 C82.78745,33.085864 82.5558934,33.3279426 82.5558934,33.6288118 L82.5558934,47.9391167 C82.5558934,48.2399859 82.78745,48.4837936 83.0702671,48.4837936 L85.2903817,48.4837936 C85.5731988,48.4837936 85.8029878,48.2399859 85.8029878,47.9391167 L85.8029878,42.5736169 C85.8029878,42.2727478 86.036312,42.0272109 86.3173615,42.0272109 L87.3337357,42.0272109 C87.6183204,42.0272109 87.9965883,42.2139573 88.1768842,42.4473902 L92.5764585,48.0705309 C92.7567545,48.293589 93.1350224,48.4837936 93.4178395,48.4837936 L96.3502999,48.4837936 C96.633117,48.4837936 96.7197298,48.293589 96.5465042,48.0584269 L91.2100981,40.9880019 C91.0315698,40.7511107 91.0315698,40.3672432 91.206563,40.1355393 L96.1664687,33.5112307 Z M51.2586408,52.1512848 L51.2586408,52.1512848 C49.7402662,50.1921771 50.8273446,48.4336487 51.1649576,47.9719702 L51.2586408,47.8492017 L65.859076,29.0189431 C66.2691609,28.4932867 66.0517452,28.0592743 65.3765194,28.0592743 L55.5539263,28.0592743 C54.8787003,28.0592743 53.9772207,28.4811827 53.5512273,28.9947352 L43.5642469,40.9586067 C43.1417887,41.4721592 42.2385414,41.8906094 41.5650831,41.8906094 L28.2231842,41.8906094 C27.5514934,41.8906094 27,42.4266406 27,43.0854403 L27,43.6491377 C27,44.3079373 27.5514934,44.8508851 28.2231842,44.8508851 L43.0021478,44.8508851 C43.675606,44.8508851 44.5770857,44.4307058 45.0048467,43.9206116 L54.988292,31.9567401 C55.4142853,31.4431876 56.3193001,31.0247374 56.9892232,31.0247374 L59.2782746,31.0247374 C59.9517329,31.0247374 60.1709162,31.4552915 59.7643666,31.980948 L47.6792363,47.5621657 C47.2744543,48.0895513 46.3871154,48.514918 45.7118896,48.514918 L28.2231842,48.514918 C27.5514934,48.514918 27,49.0561367 27,49.7149364 L27,50.282092 C27,50.9408916 27.5514934,51.4803811 28.2231842,51.4803811 L45.7118896,51.4803811 C46.3871154,51.4803811 47.2744543,51.9109352 47.6792363,52.4348626 L59.7643666,68.0178095 C60.1709162,68.5400077 59.9517329,68.9705618 59.2782746,68.9705618 L56.9892232,68.9705618 C56.3193001,68.9705618 55.4142853,68.5521116 54.988292,68.0402882 L45.0048467,56.0746876 C44.5770857,55.5628642 43.675606,55.1478724 43.0021478,55.1478724 L28.2231842,55.1478724 C27.5514934,55.1478724 27,55.6890909 27,56.3478907 L27,56.911588 C27,57.5703878 27.5514934,58.1098773 28.2231842,58.1098773 L41.5650831,58.1098773 C42.2385414,58.1098773 43.1417887,58.5283273 43.5642469,59.0401507 L53.5512273,71.0057513 C53.9772207,71.5141165 54.8787003,71.9325667 55.5539263,71.9325667 L65.3765194,71.9325667 C66.0517452,71.9325667 66.2691609,71.5020126 65.859076,70.9798144 L51.2586408,52.1512848 Z M41.5421042,63.0119693 C41.1320193,62.4863129 40.2446805,62.0609462 39.5694546,62.0609462 L28.2231842,62.0609462 C27.5514934,62.0609462 27,62.5987065 27,63.2609645 L27,70.5959468 C27,71.2547465 27.5514934,71.7907778 28.2231842,71.7907778 L34.9277182,71.7907778 C35.6029441,71.7907778 36.1544376,71.2547465 36.1544376,70.5959468 L36.1544376,70.0322494 C36.1544376,69.3699915 35.6029441,68.8287729 34.9277182,68.8287729 L31.2528629,68.8287729 C30.5794045,68.8287729 30.0279111,68.2927417 30.0279111,67.6304837 L30.0279111,66.2229694 C30.0279111,65.5607114 30.5794045,65.0229511 31.2528629,65.0229511 L38.0740589,65.0229511 C38.7492849,65.0229511 39.6366237,65.4483178 40.0449409,65.9774324 L44.3932545,71.5314079 C44.8051071,72.0553352 45.5757837,72.1538957 46.1113687,71.7561951 L46.569179,71.4086394 C47.1065316,71.0092096 47.2072853,70.2535786 46.7972003,69.727922 L41.5421042,63.0119693 Z M27,36.7360638 L27,29.4062689 C27,28.7422818 27.5514934,28.2062506 28.2231842,28.2062506 L34.9277182,28.2062506 C35.6029441,28.2062506 36.1544376,28.7422818 36.1544376,29.4062689 L36.1544376,29.9699663 C36.1544376,30.628766 35.6029441,31.1682555 34.9277182,31.1682555 L31.2528629,31.1682555 C30.5794045,31.1682555 30.0279111,31.7094741 30.0279111,32.3682738 L30.0279111,33.7740589 C30.0279111,34.438046 30.5794045,34.9775355 31.2528629,34.9775355 L38.0740589,34.9775355 C38.7492849,34.9775355 39.6366237,34.5469814 40.0449409,34.0230541 L44.3932545,28.4708079 C44.8051071,27.9468806 45.5757837,27.8431326 46.1113687,28.2460206 L46.569179,28.5849307 C47.1065316,28.9860896 47.2072853,29.7434498 46.7972003,30.2691063 L41.5421042,36.9833298 C41.1320193,37.5089863 40.2446805,37.934353 39.5694546,37.934353 L28.2231842,37.934353 C27.5514934,37.934353 27,37.4000509 27,36.7360638 L27,36.7360638 Z" id="krypital" fill="#000000" fill-rule="nonzero"></path>
            </g>
        </g>
    </g>
</svg>