<?xml version="1.0" encoding="UTF-8"?>
<svg width="220px" height="100px" viewBox="0 0 220 100" version="1.1" xmlns="http://www.w3.org/2000/svg" xmlns:xlink="http://www.w3.org/1999/xlink">
    <title>15_Dodo</title>
    <defs>
        <polygon id="path-1" points="3.57233972e-16 1.12273534e-16 49.2910044 1.12273534e-16 49.2910044 37.5655501 3.57233972e-16 37.5655501"></polygon>
    </defs>
    <g id="页面-1" stroke="none" stroke-width="1" fill="none" fill-rule="evenodd">
        <g id="parters" transform="translate(-1200.000000, -335.000000)">
            <g id="15_Dodo" transform="translate(1200.000000, 335.000000)">
                <rect id="矩形备份-11" x="0" y="0" width="220" height="100"></rect>
                <g id="dodo" transform="translate(30.000000, 31.000000)">
                    <path d="M100.299027,28.1231558 C99.9811568,28.9992466 99.5435527,29.7500135 98.9869496,30.3756036 C98.4306407,31.0016349 97.7660708,31.4967528 96.9936811,31.8606629 C96.2211443,32.2245731 95.3919764,32.4069694 94.505736,32.4069694 C93.619937,32.4069694 92.790769,32.2245731 92.0182322,31.8606629 C91.2456954,31.4967528 90.5815668,31.0016349 90.0249637,30.3756036 C89.4682136,29.7500135 89.0307565,28.9992466 88.7128867,28.1231558 C88.395017,27.2470649 88.2357143,26.3084592 88.2357143,25.3071914 C88.2357143,24.3054825 88.395017,23.3668767 88.7128867,22.4912271 C89.0307565,21.614695 89.4682136,20.8639281 90.0249637,20.238338 C90.5815668,19.6121596 91.2456954,19.1171888 92.0182322,18.7532787 C92.790769,18.3893685 93.619937,18.2069722 94.505736,18.2069722 C95.3919764,18.2069722 96.2211443,18.3893685 96.9936811,18.7532787 C97.7660708,19.1171888 98.4306407,19.6121596 98.9869496,20.238338 C99.5435527,20.8639281 99.9811568,21.614695 100.299027,22.4912271 C100.616896,23.3668767 100.776052,24.3054825 100.776052,25.3071914 C100.776052,26.3084592 100.616896,27.2470649 100.299027,28.1231558 Z M106.089228,20.3714579 C105.450988,18.8544792 104.579163,17.541961 103.474194,16.4353741 C102.369225,15.328493 101.064503,14.4558736 99.5607626,13.816795 C98.0567282,13.1781724 96.4388431,12.8588611 94.7069604,12.8588611 C92.975666,12.8588611 91.3518972,13.1781724 89.8369778,13.816795 C88.3211759,14.4558736 87.0110111,15.328493 85.9060422,16.4353741 C84.8010734,17.541961 83.9292482,18.8544792 83.2914494,20.3714579 C82.6533563,21.889025 82.3344569,23.5032327 82.3344569,25.2149636 C82.3344569,26.9262533 82.6533563,28.540461 83.2914494,30.058028 C83.9292482,31.575448 84.8010734,32.887525 85.9060422,33.9941119 C87.0110111,35.1009929 88.3211759,35.9735536 89.8369778,36.6126762 C91.3518972,37.2513577 92.975666,37.5705513 94.7069604,37.5705513 C96.4388431,37.5705513 98.0567282,37.2513577 99.5607626,36.6126762 C101.064503,35.9735536 102.369225,35.1009929 103.474194,33.9941119 C104.579163,32.887525 105.450988,31.575448 106.089228,30.058028 C106.72688,28.540461 107.046221,26.9262533 107.046221,25.2149636 C107.046221,23.5032327 106.72688,21.889025 106.089228,20.3714579 Z" id="形状" fill="#000000"></path>
                    <path d="M72.0827523,28.0743206 C71.7666477,28.944969 71.3336034,29.6980894 70.7840609,30.3336819 C70.2340771,30.9691272 69.5848049,31.4690991 68.8359502,31.8340389 C68.0872426,32.1988316 67.2919062,32.381228 66.4490586,32.381228 L62.4826734,32.381228 L62.4826734,18.048258 L66.4490586,18.048258 C67.2919062,18.048258 68.0872426,18.2365381 68.8359502,18.6130983 C69.5848049,18.9900998 70.2340771,19.5016921 70.7840609,20.1490521 C71.3336034,20.7958236 71.7666477,21.5611528 72.0827523,22.4434216 C72.3984157,23.3258375 72.5565416,24.2735631 72.5565416,25.2852745 C72.5565416,26.2738921 72.3984157,27.2036722 72.0827523,28.0743206 Z M77.8391223,20.3958755 C77.1951455,18.8778672 76.3178779,17.5657902 75.2068782,16.4596446 C74.0948488,15.3537931 72.784537,14.4772463 71.2753543,13.8295333 C69.7661716,13.1822616 68.1571121,12.8588611 66.4490586,12.8588611 L56.4459426,12.8588611 L56.4459426,37.5705513 L66.4490586,37.5705513 C68.1571121,37.5705513 69.7661716,37.2531228 71.2753543,36.6175303 C72.784537,35.9819379 74.0948488,35.1112895 75.2068782,34.0049968 C76.3178779,32.8988512 77.1951455,31.5929522 77.8391223,30.08627 C78.4822166,28.5806176 78.804205,26.9797954 78.804205,25.2852745 C78.804205,23.5438306 78.4822166,21.9137368 77.8391223,20.3958755 Z" id="形状" fill="#000000"></path>
                    <path d="M153.252806,28.1231558 C152.935083,28.9992466 152.496744,29.7500135 151.940729,30.3756036 C151.384714,31.0016349 150.71985,31.4967528 149.947608,31.8606629 C149.175365,32.2245731 148.345756,32.4069694 147.45878,32.4069694 C146.573275,32.4069694 145.744548,32.2245731 144.972012,31.8606629 C144.199475,31.4967528 143.535346,31.0016349 142.978302,30.3756036 C142.421993,29.7500135 141.984536,28.9992466 141.666225,28.1231558 C141.348208,27.2470649 141.189494,26.3084592 141.189494,25.3071914 C141.189494,24.3054825 141.348208,23.3668767 141.666225,22.4912271 C141.984536,21.614695 142.421993,20.8639281 142.978302,20.238338 C143.535346,19.6121596 144.199475,19.1171888 144.972012,18.7532787 C145.744548,18.3893685 146.573275,18.2069722 147.45878,18.2069722 C148.345756,18.2069722 149.175365,18.3893685 149.947608,18.7532787 C150.71985,19.1171888 151.384714,19.6121596 151.940729,20.238338 C152.496744,20.8639281 152.935083,21.614695 153.252806,22.4912271 C153.570529,23.3668767 153.72939,24.3054825 153.72939,25.3071914 C153.72939,26.3084592 153.570529,27.2470649 153.252806,28.1231558 Z M159.042419,20.3714579 C158.405503,18.8544792 157.533236,17.541961 156.428562,16.4353741 C155.323887,15.328493 154.019165,14.4558736 152.514395,13.816795 C151.011096,13.1781724 149.393064,12.8588611 147.660298,12.8588611 C145.929887,12.8588611 144.305677,13.1781724 142.790757,13.816795 C141.275397,14.4558736 139.965232,15.328493 138.860263,16.4353741 C137.754853,17.541961 136.883469,18.8544792 136.245229,20.3714579 C135.607136,21.889025 135.288236,23.5032327 135.288236,25.2149636 C135.288236,26.9262533 135.607136,28.540461 136.245229,30.058028 C136.883469,31.575448 137.754853,32.887525 138.860263,33.9941119 C139.965232,35.1009929 141.275397,35.9735536 142.790757,36.6126762 C144.305677,37.2513577 145.929887,37.5705513 147.660298,37.5705513 C149.393064,37.5705513 151.011096,37.2513577 152.514395,36.6126762 C154.019165,35.9735536 155.323887,35.1009929 156.428562,33.9941119 C157.533236,32.887525 158.405503,31.575448 159.042419,30.058028 C159.680806,28.540461 160,26.9262533 160,25.2149636 C160,23.5032327 159.680806,21.889025 159.042419,20.3714579 Z" id="形状" fill="#000000"></path>
                    <path d="M126.07825,28.2689257 C125.766264,29.1428102 125.338074,29.8985783 124.794857,30.5363772 C124.250904,31.174176 123.608986,31.6760602 122.86881,32.0421767 C122.128634,32.4082933 121.342417,32.5914251 120.509719,32.5914251 L116.588786,32.5914251 L116.588786,18.2069722 L120.509719,18.2069722 C121.342417,18.2069722 122.128634,18.3958407 122.86881,18.7737247 C123.608986,19.1521972 124.250904,19.6657017 124.794857,20.3152681 C125.338074,20.9643932 125.766264,21.7323701 126.07825,22.618022 C126.390383,23.5035269 126.546597,24.4546356 126.546597,25.4698772 C126.546597,26.4621722 126.390383,27.3951884 126.07825,28.2689257 Z M131.969652,20.3958755 C131.326117,18.8778672 130.448408,17.5657902 129.337261,16.4596446 C128.225232,15.3537931 126.91492,14.4772463 125.405737,13.8295333 C123.896555,13.1822616 122.287789,12.8588611 120.579736,12.8588611 L110.576473,12.8588611 L110.576473,37.5705513 L120.579736,37.5705513 C122.287789,37.5705513 123.896555,37.2531228 125.405737,36.6175303 C126.91492,35.9819379 128.225232,35.1112895 129.337261,34.0049968 C130.448408,32.8988512 131.326117,31.5929522 131.969652,30.08627 C132.612747,28.5806176 132.934735,26.9797954 132.934735,25.2852745 C132.934735,23.5438306 132.612747,21.9137368 131.969652,20.3958755 Z" id="形状" fill="#000000"></path>
                    <g id="Clipped">
                        <mask id="mask-2" fill="white">
                            <use xlink:href="#path-1"></use>
                        </mask>
                        <g id="路径"></g>
                    </g>
                    <path d="M30.4832929,9.90723217 C30.6967261,9.57188765 30.8901544,9.19975497 31.0529873,8.79729153 C31.3336423,8.10322929 31.4886792,7.41041734 31.5261882,6.77950248 C31.6790187,5.44806795 31.3576186,4.36670765 30.6019976,4.04452803 C29.8590267,3.72783501 28.8852655,4.22401192 28.0508022,5.22482365 C28.0522732,5.15845491 28.053597,5.09208617 28.053597,5.02496726 C28.053597,2.24996858 26.7937383,0 25.2395449,0 C23.6853515,0 22.4254928,2.24996858 22.4254928,5.02496726 C22.4254928,5.22185235 22.4324062,5.41575144 22.4447621,5.60666452 C21.4993901,4.30928222 20.2565943,3.64455048 19.368883,4.07287301 C18.2586188,4.6088241 18.1243221,6.6497363 19.0691058,8.63173743 C19.2273787,8.964346 19.5826103,9.53584966 19.7754503,9.81849046 C7.72415569,11.7405803 0.863689086,21.5183485 0,37.5656972 L6.74103935,37.5656972 C7.45185559,24.354906 13.5915962,16.8928359 24.6835302,17.1217139 C34.8691897,17.3320581 42.6535423,24.0201204 42.5489586,37.5656972 L49.2895335,37.5656972 C49.412651,21.584982 41.5584288,12.3908821 30.4832929,9.90723217 Z" id="路径" fill="#000000"></path>
                    <path d="M19.0842564,24.9204818 C18.2717101,24.9204818 17.613171,25.6596283 17.613171,26.5708746 L17.613171,30.6247806 C17.613171,31.536321 18.2717101,32.2751733 19.0842564,32.2751733 C19.8965086,32.2751733 20.5550477,31.536321 20.5550477,30.6247806 L20.5550477,26.5708746 C20.5550477,25.6596283 19.8965086,24.9204818 19.0842564,24.9204818 Z" id="路径" fill="#000000"></path>
                    <path d="M30.8514688,24.9204818 C30.0392166,24.9204818 29.3806775,25.6596283 29.3806775,26.5708746 L29.3806775,30.6247806 C29.3806775,31.536321 30.0392166,32.2751733 30.8514688,32.2751733 C31.6640151,32.2751733 32.3225542,31.536321 32.3225542,30.6247806 L32.3225542,26.5708746 C32.3225542,25.6596283 31.6640151,24.9204818 30.8514688,24.9204818 Z" id="路径" fill="#000000"></path>
                </g>
            </g>
        </g>
    </g>
</svg>