<?xml version="1.0" encoding="UTF-8"?>
<svg width="240px" height="100px" viewBox="0 0 240 100" version="1.1" xmlns="http://www.w3.org/2000/svg" xmlns:xlink="http://www.w3.org/1999/xlink">
    <title>1_FENBUSHI</title>
    <g id="页面-1" stroke="none" stroke-width="1" fill="none" fill-rule="evenodd">
        <g id="parters" transform="translate(0.000000, -55.000000)">
            <g id="1_FENBUSHI" transform="translate(0.000000, 55.000000)">
                <rect id="矩形" x="0" y="0" width="240" height="100"></rect>
                <g id="3备份" transform="translate(20.000000, 31.000000)" fill-rule="nonzero">
                    <g id="组_40">
                        <polygon id="路径_106" fill="#0051A1" points="14.326 5.68434189e-14 1.42108547e-14 9.491 1.42108547e-14 37.014 7.163 32.269 7.163 18.507 14.326 13.762"></polygon>
                        <polygon id="路径_107" fill="#0051A1" points="17.133 13.762 41.621 18.507 17.133 5.68434189e-14"></polygon>
                        <polygon id="路径_108" fill="#42688F" points="9.97 32.268 34.458 37.013 9.97 18.507"></polygon>
                        <polygon id="路径_109" fill="#3B6896" points="17.133 5.68434189e-14 41.621 18.507 41.621 4.745"></polygon>
                        <polygon id="路径_110" fill="#65809C" points="9.97 18.507 34.458 23.252 34.458 37.014"></polygon>
                    </g>
                    <g id="组_41" transform="translate(50.513000, 2.157216)">
                        <path d="M0.916,0.473783521 L11.516,0.473783521 L11.516,3.94578352 L3.616,3.94578352 L3.616,7.46278352 L10.742,7.46278352 L10.742,10.7517835 L3.616,10.7517835 L3.616,17.9697835 L0,17.9697835 L0,0.469783521 L0.916,0.473783521 Z M16.338,0.473783521 L27.667,0.473783521 L27.667,3.94578352 L19.809,3.94578352 L19.809,7.46278352 L26.936,7.46278352 L26.936,10.7057835 L19.809,10.7057835 L19.809,14.3607835 C19.8603177,14.4862124 20.0028179,14.5472203 20.129,14.4977835 L28.352,14.4977835 L28.352,17.9697835 L16.2,17.9697835 L16.2,0.469783521 L16.338,0.473783521 Z M34.455,0.427783521 L38.338,0.427783521 L38.521,0.747783521 L38.704,1.02178352 L38.886,1.29578352 L39.069,1.56978352 L39.252,1.84378352 L39.389,1.98078352 L39.434,2.11778352 C39.472,2.14878352 39.488,2.17978352 39.48,2.20978352 C39.6748114,2.40673032 39.8299583,2.6392809 39.937,2.89478352 C40.1318114,3.09173032 40.2869583,3.3242809 40.394,3.57978352 L40.576,3.80878352 L40.759,4.08278352 C40.8253142,4.19596325 40.9019754,4.30275328 40.988,4.40178352 L41.033,4.53978352 C41.1356257,4.64282804 41.2138736,4.76754626 41.262,4.90478352 C41.5267134,5.1867979 41.7426617,5.51088936 41.901,5.86378352 L42.084,6.13778352 C42.122,6.16878352 42.137,6.19878352 42.13,6.22978352 C42.3214595,6.43894532 42.4891496,6.66868081 42.63,6.91478352 L42.813,7.18878352 L42.95,7.46278352 L43.133,7.73678352 L43.315,7.91978352 L43.452,8.14778352 L43.544,8.37678352 C43.7211784,8.543737 43.8612164,8.74612759 43.955,8.97078352 L44.092,9.15278352 L44.183,9.33578352 L44.32,9.47278352 C44.4420849,9.64599944 44.5491412,9.82933335 44.64,10.0207835 L44.777,10.1577835 L44.868,10.2947835 L44.914,10.4317835 L45.006,10.4777835 C45.0818208,10.6620592 45.189839,10.8313669 45.325,10.9777835 L45.371,11.1147835 C45.409,11.1447835 45.424,11.1757835 45.417,11.2057835 C45.6601319,11.4614996 45.8606786,11.7545543 46.011,12.0737835 L46.056,11.7537835 L46.056,0.427783521 L49.665,0.427783521 L49.665,17.8777835 L45.554,17.8777835 L45.508,17.7867835 C45.4168446,17.6752668 45.3402308,17.5526176 45.28,17.4217835 C45.241,17.3907835 45.226,17.3597835 45.234,17.3297835 C44.9901847,17.074621 44.789558,16.7814493 44.64,16.4617835 C44.602,16.4317835 44.586,16.4007835 44.594,16.3707835 L44.412,16.0967835 C44.2645141,15.9324876 44.1412679,15.747955 44.046,15.5487835 L43.818,15.2747835 L43.635,14.9547835 L43.452,14.6347835 C43.2718664,14.4429636 43.1184787,14.2276826 42.996,13.9947835 L42.904,13.9037835 C42.8040583,13.6691074 42.6650933,13.4530523 42.493,13.2647835 L42.447,13.1727835 L42.356,13.0357835 L41.945,12.3967835 C41.8536404,12.2848551 41.7767046,12.1618922 41.716,12.0307835 C41.678,12.0007835 41.663,11.9697835 41.671,11.9397835 L41.579,11.8937835 L41.397,11.5737835 L41.351,11.4827835 C41.2598446,11.3712668 41.1832308,11.2486176 41.123,11.1177835 C41.0605282,11.0528501 41.0136754,10.974534 40.986,10.8887835 L40.803,10.7057835 L40.62,10.4317835 L40.529,10.2037835 L40.437,10.1577835 L40.255,9.83878352 L39.844,9.24478352 L39.752,9.06178352 L39.661,8.87878352 L39.524,8.74178352 L39.432,8.60478352 L39.387,8.46778352 C39.2538402,8.32473351 39.1315028,8.17197895 39.021,8.01078352 L38.93,7.82878352 C38.8208012,7.68789994 38.7288167,7.53448046 38.656,7.37178352 C38.602,7.34078352 38.572,7.31078352 38.564,7.27978352 L38.473,7.18878352 L38.427,7.09778352 L38.245,6.77778352 L37.834,6.18378352 L37.834,17.8777835 L34.225,17.8777835 L34.225,0.427783521 L34.455,0.427783521 Z M56.923,0.473783521 L64.689,0.473783521 L64.826,0.519783521 L64.963,0.519783521 L65.329,0.564783521 L66.06,0.747783521 C67.2689438,1.23311287 68.2594634,2.14257057 68.846,3.30578352 C69.76,5.46845019 69.3186667,7.18911685 67.522,8.46778352 C68.7164663,8.95986293 69.6006137,9.99738657 69.897,11.2547835 C70.4136667,14.3147835 69.363,16.4147835 66.745,17.5547835 L66.608,17.5547835 C66.293754,17.7099399 65.9525111,17.8029753 65.603,17.8287835 L65.283,17.9197835 L65.146,17.9197835 L64.004,17.9657835 L56.284,17.9657835 L56.284,0.465783521 L56.923,0.473783521 Z M59.847,7.50878352 L64.047,7.50878352 L64.321,7.46278352 C65.2414369,7.11572641 65.7532887,6.13166116 65.509,5.17878352 C65.3522198,4.76331334 65.0832445,4.39948701 64.732,4.12778352 C64.5861778,4.08940334 64.4474275,4.02796163 64.321,3.94578352 L64.138,3.89978352 L63.864,3.89978352 C63.7441376,3.87250975 63.6218814,3.85710211 63.499,3.85378352 L59.844,3.85378352 L59.847,7.50878352 Z M59.847,14.5437835 L63.684,14.5437835 C64.0213585,14.5500205 64.358381,14.5191687 64.689,14.4517835 C65.6633902,14.0481012 66.2313782,13.0264684 66.06,11.9857835 C65.8776049,11.296337 65.4133415,10.7155541 64.781,10.3857835 C64.5797643,10.355498 64.3811722,10.3096948 64.187,10.2487835 L59.847,10.2487835 L59.847,14.5437835 Z M75.486,0.564783521 L78.821,0.564783521 L78.866,11.5737835 L79.141,12.5787835 C79.7086173,13.8518595 80.9560815,14.6865614 82.3494185,14.7255971 C83.7427555,14.7646327 85.0349962,14.0010829 85.673,12.7617835 L85.673,12.6247835 C85.8905249,12.1991993 86.0149496,11.7321803 86.038,11.2547835 C86.0815987,10.9521982 86.0969982,10.6462173 86.084,10.3407835 L86.084,0.564783521 L89.647,0.564783521 L89.647,11.8027835 C89.619381,11.9225601 89.6042998,12.0448854 89.602,12.1677835 L89.556,12.2597835 C89.5292151,12.6001194 89.4678999,12.9368506 89.373,13.2647835 C88.7922466,15.0307973 87.569555,16.5143727 85.947,17.4217835 C84.1964152,18.4236977 82.0991961,18.6233635 80.191,17.9697835 C76.391,16.5231169 74.7313333,13.4777835 75.212,8.83378352 L75.212,0.519783521 L75.486,0.564783521 Z M109.922,2.89478352 L109.831,2.98578352 L109.374,3.35178352 L109.283,3.48878352 L109.146,3.62578352 L108.963,3.71678352 L108.826,3.85378352 L108.689,3.99078352 L108.597,4.12778352 L108.415,4.21978352 C108.333932,4.33482828 108.242192,4.4419695 108.141,4.53978352 L107.867,4.72178352 L107.821,4.81378352 L107.73,4.85878352 C107.59715,5.02942778 107.443644,5.18293319 107.273,5.31578352 C105.682942,3.82788247 103.441107,3.25902469 101.334,3.80878352 C101.22938,3.9091693 101.105104,3.98679962 100.969,4.03678352 C100.829014,4.18691984 100.676091,4.32445 100.512,4.44778352 L100.466,4.53978352 L100.238,5.08778352 C100.227519,5.63558842 100.442236,6.16370645 100.832,6.54878352 L101.608,6.82378352 L102.339,6.96078352 C102.531352,7.02818009 102.73056,7.0741253 102.933,7.09778352 L103.116,7.14278352 L103.298,7.18878352 L103.481,7.23478352 L103.664,7.27978352 L103.892,7.37178352 L104.029,7.37178352 L104.212,7.41678352 L104.44,7.50878352 L104.623,7.55378352 L104.76,7.55378352 C104.907342,7.61469288 105.06045,7.66059166 105.217,7.69078352 L105.583,7.78278352 C105.699667,7.8407996 105.821973,7.8867061 105.948,7.91978352 L106.085,7.96578352 L106.679,8.19378352 L106.77,8.28478352 C107.034398,8.40112914 107.280606,8.55505136 107.501,8.74178352 C107.554,8.77178352 107.585,8.80278352 107.592,8.83378352 L107.684,8.87878352 C107.799686,8.95902424 107.906905,9.05083061 108.004,9.15278352 C108.169011,9.27462008 108.321735,9.41227276 108.46,9.56378352 C109.54027,10.9163552 109.850995,12.7286032 109.283,14.3637835 C108.808899,15.9219697 107.620277,17.1607365 106.083,17.6987835 C101.325,19.1594502 97.442,18.2304502 94.434,14.9117835 L94.571,14.7287835 L94.754,14.6377835 C94.8001205,14.5750353 94.8638014,14.5273616 94.937,14.5007835 C95.0394631,14.3559369 95.1824529,14.2446066 95.348,14.1807835 C95.4699084,14.0897727 95.5915755,13.9984391 95.713,13.9067835 L95.805,13.7697835 L95.942,13.6787835 L96.033,13.5867835 L96.17,13.4957835 L96.307,13.4497835 L96.399,13.3127835 L96.49,13.2677835 L96.581,13.1757835 L96.673,13.1307835 L96.764,13.0847835 L97.404,12.5367835 C99.1064727,14.4172844 101.688464,15.237334 104.164,14.6837835 L104.301,14.5917835 L104.438,14.5467835 L104.484,14.4547835 L105.169,13.9977835 C105.257529,13.7761734 105.364574,13.5624171 105.489,13.3587835 C105.613587,12.6109709 105.315083,11.85548 104.713,11.3947835 L104.53,11.3487835 L104.393,11.2577835 L104.21,11.2117835 L103.845,11.1207835 L103.708,11.1207835 L103.525,11.0747835 L103.433,11.0287835 C103.184336,10.9914592 102.939865,10.930174 102.703,10.8457835 L102.566,10.8457835 L102.429,10.8007835 L102.063,10.7087835 C101.734515,10.6763753 101.411923,10.5996799 101.104,10.4807835 C98.1266667,10.0927835 96.482,8.53978352 96.17,5.82178352 C96.2366667,2.38778352 98.262,0.454450187 102.246,0.0217835208 C105.098494,-0.167117317 107.894535,0.879394621 109.922,2.89478352 L109.922,2.89478352 Z M116.105,0.519783521 L119.12,0.519783521 L119.12,7.14278352 L126.109,7.14278352 L126.109,0.519783521 L129.718,0.519783521 L129.718,17.9697835 L126.109,17.9697835 L126.109,10.5697835 L119.12,10.5697835 L119.12,17.9697835 L115.511,17.9697835 L115.511,0.519783521 L116.105,0.519783521 Z M136.872,0.519783521 L139.887,0.519783521 L139.887,17.9697835 L136.278,17.9697835 L136.278,0.519783521 L136.872,0.519783521 Z" id="路径_111" fill="#0051A1"></path>
                        <path d="M11.27,27.8337835 L11.142,27.9337835 L10.597,28.1257835 L10.469,28.1907835 L10.341,28.2227835 C10.2095838,28.3021129 10.0697164,28.3665123 9.924,28.4147835 L9.764,28.4467835 L9.7,28.5107835 L9.6,28.5107835 L9.536,28.5747835 L9.436,28.5747835 L9.372,28.6387835 L9.272,28.6387835 L9.208,28.7027835 L9.08,28.7357835 L8.727,28.8637835 C8.60824834,28.0258548 8.12671033,27.2826652 7.41045848,26.8318773 C6.69420662,26.3810894 5.81584958,26.2684011 5.009,26.5237835 C3.57688672,26.9919956 2.6589446,28.388413 2.797,29.8887835 C2.50097229,31.3213461 2.97499249,32.8044605 4.047,33.7997835 C4.81281994,34.3624655 5.79995017,34.5290275 6.708,34.2487835 C7.77888737,33.9766462 8.56988492,33.0706017 8.695,31.9727835 C8.87711827,32.0018365 9.05155893,32.0671243 9.208,32.1647835 C9.39511816,32.21254 9.57752916,32.2771369 9.753,32.3577835 L9.881,32.4217835 L10.073,32.4857835 L10.173,32.5177835 L10.397,32.6177835 L10.525,32.6497835 L10.625,32.7137835 C10.7147948,32.735341 10.8012499,32.7689811 10.882,32.8137835 L11.266,32.9427835 C10.6615764,35.1150723 8.74121387,36.6614949 6.49,36.7887835 C4.39354558,37.0781508 2.31563854,36.146528 1.137,34.3887835 C-0.134616753,32.3593785 -0.349454516,29.8412714 0.56,27.6257835 C1.27585991,25.6642351 3.03763159,24.2747886 5.112,24.0357835 C8.22866667,23.8657835 10.2813333,25.1317835 11.27,27.8337835 Z M27.743,24.2757835 L30.82,24.2757835 L30.82,24.3757835 C30.9003849,24.5403069 30.9650068,24.7120738 31.013,24.8887835 L31.077,25.1127835 L31.109,25.2417835 C31.1423866,25.3378492 31.1757082,25.4338164 31.2090364,25.5298017 C31.2605357,25.6072428 31.2946511,25.6949193 31.3090364,25.7868017 L31.5010364,26.2988017 L31.5010364,26.3988017 C31.5933914,26.5689401 31.6585147,26.7525 31.6940364,26.9428017 C31.7823894,27.1376529 31.8468573,27.3424727 31.8860364,27.5528017 C31.9171583,27.613112 31.9387477,27.6778803 31.9500364,27.7448017 L32.0140364,27.8728017 C32.0396275,27.9609604 32.0730956,28.0466389 32.1140364,28.1288017 L32.1140364,28.2288017 C32.1346868,28.258074 32.1458564,28.2929788 32.1460364,28.3288017 C32.1975151,28.4058864 32.2316351,28.4932335 32.2460364,28.5848017 L32.4380364,29.0978017 L32.4700364,29.2258017 L32.5020364,29.2898017 L32.5660364,29.5788017 L32.6300364,29.7068017 L32.6940364,29.8668017 L32.7270364,29.9668017 L32.7590364,30.0948017 L32.8230364,30.2868017 C32.8493129,30.3750495 32.8827576,30.4610022 32.9230364,30.5438017 L32.9230364,30.6438017 C32.9436868,30.673074 32.9548564,30.7079788 32.9550364,30.7438017 C33.0065151,30.8208864 33.0406351,30.9082335 33.0550364,30.9998017 L33.2470364,31.5128017 L33.2790364,31.7048017 L33.3790364,31.8978017 L33.4430364,32.0898017 L33.4430364,32.1898017 L33.5070364,32.2898017 L33.5390364,32.4188017 L33.5710364,32.5788017 C33.7133945,32.886472 33.8207344,33.2091626 33.8910364,33.5408017 C33.9124689,33.5697371 33.9240374,33.6047932 33.9240364,33.6408017 C34.0657526,33.9483791 34.1730696,34.2706656 34.2440364,34.6018017 L34.3080364,34.7018017 L34.3400364,34.8308017 L34.3720364,34.9588017 L34.4040364,35.0588017 L34.4360364,35.1868017 C34.4571767,35.2158278 34.4683982,35.2508949 34.4680364,35.2868017 C34.4888963,35.3514039 34.5105647,35.4157423 34.5330364,35.4798017 L34.5970364,35.5798017 L34.5970364,35.6798017 C34.6176868,35.709074 34.6288564,35.7439788 34.6290364,35.7798017 C34.6805357,35.8572428 34.7146511,35.9449193 34.7290364,36.0368017 C34.7861167,36.1595376 34.8290591,36.2883647 34.8570364,36.4208017 L34.9210364,36.6138017 L32.1,36.6138017 L32.035,36.4208017 L32.035,36.2337835 L31.971,36.1337835 L31.971,36.0337835 C31.9115173,35.9367525 31.8771488,35.8264295 31.871,35.7127835 L31.807,35.6127835 L31.807,35.5127835 L31.775,35.3847835 L31.675,35.1597835 L31.45,34.3597835 L26.867,34.3597835 L26.835,34.5197835 L26.803,34.6807835 L26.739,34.8087835 C26.7137035,34.9177974 26.6802766,35.0247634 26.639,35.1287835 L26.607,35.2897835 L26.575,35.3537835 L26.475,35.6737835 L26.443,35.8017835 L26.411,35.9017835 C26.3821256,35.9887922 26.3487472,36.0742408 26.311,36.1577835 L26.211,36.5427835 L23.48,36.5427835 L23.544,36.2857835 L23.644,35.9657835 L23.676,35.8657835 L23.708,35.7657835 L23.74,35.6657835 L23.773,35.6017835 L23.933,35.0887835 L23.965,34.9887835 L23.997,34.8887835 L24.029,34.7607835 L24.093,34.6317835 L24.193,34.2797835 L24.225,34.1797835 L24.257,34.0797835 L24.289,33.9797835 L24.321,33.9157835 C24.3694878,33.718508 24.4340365,33.5255308 24.514,33.3387835 L24.578,33.1147835 L24.61,33.0507835 C24.6576121,32.8533794 24.7218412,32.6603576 24.802,32.4737835 C24.8237432,32.3840469 24.8573738,32.2976162 24.902,32.2167835 L24.966,31.9607835 L25.066,31.7367835 L25.13,31.4797835 L25.162,31.4157835 C25.2096121,31.2183794 25.2738412,31.0253576 25.354,30.8387835 L25.418,30.5827835 L25.675,29.8767835 L25.739,29.6527835 L25.771,29.5527835 L25.803,29.4527835 C25.8563641,29.2779892 25.9204865,29.1066623 25.995,28.9397835 L26.059,28.7477835 L26.091,28.6477835 L26.091,28.5477835 L26.123,28.4477835 L26.348,27.8707835 L26.38,27.6787835 L26.444,27.5187835 L26.508,27.3897835 C26.5424013,27.2134441 26.596056,27.0414137 26.668,26.8767835 L26.7,26.7167835 L26.732,26.6167835 L26.765,26.5527835 C26.8126121,26.3553794 26.8768412,26.1623576 26.957,25.9757835 L26.989,25.8477835 L27.021,25.7197835 C27.0759517,25.6069413 27.1188554,25.4886209 27.149,25.3667835 L27.249,25.0457835 L27.281,24.9457835 L27.538,24.2087835 L27.743,24.2757835 Z M29.121,27.0967835 L29.021,27.4487835 L28.989,27.5127835 L28.829,28.0897835 L28.637,28.6347835 L28.605,28.6987835 L28.412,29.4047835 L28.38,29.5327835 L28.188,30.0777835 L28.124,30.2377835 C28.1067663,30.3935598 28.0634981,30.5453366 27.996,30.6867835 C27.9796159,30.8082837 27.9459418,30.9268168 27.896,31.0387835 L27.864,31.1677835 C27.8292986,31.2774663 27.7865147,31.384426 27.736,31.4877835 L27.544,32.1927835 L30.781,32.1927835 L30.717,31.9367835 L30.525,31.3277835 L30.365,30.7827835 C30.2958294,30.6170409 30.2419389,30.4453279 30.204,30.2697835 L30.172,30.2057835 C30.1378386,30.0747773 30.0950793,29.9461651 30.044,29.8207835 L30.012,29.6927835 L29.98,29.5647835 L29.916,29.4047835 L29.884,29.2117835 L29.852,29.0837835 L29.788,28.9837835 L29.756,28.7917835 L29.724,28.6627835 C29.6925759,28.6025124 29.6706507,28.5377488 29.659,28.4707835 L29.627,28.3427835 C29.5536548,28.2010205 29.499833,28.049983 29.467,27.8937835 L29.435,27.7937835 L29.403,27.7297835 L29.339,27.4407835 L29.307,27.3407835 L29.147,26.9237835 L29.121,27.0967835 Z M48.383,24.2437835 L53.7,24.2437835 L53.765,24.2757835 L53.865,24.2757835 L54.089,24.3077835 L54.189,24.3397835 L54.638,24.4397835 C56.4896599,25.1243944 57.5649425,27.0575248 57.17,28.9917835 C56.9638804,30.0767136 56.325324,31.0311337 55.4011278,31.6356334 C54.4769317,32.2401332 53.346606,32.4427063 52.27,32.1967835 L50.67,32.1967835 L50.67,36.4967835 L48.138,36.4967835 L48.138,24.2467835 L48.383,24.2437835 Z M50.659,29.8847835 L53.352,29.8847835 C53.4643661,29.8359502 53.5827429,29.8023204 53.704,29.7847835 C54.5340398,29.4117219 54.9288462,28.4558518 54.604,27.6057835 C54.4336682,27.174586 54.0991908,26.8285997 53.674,26.6437835 L53.574,26.6437835 C53.2837838,26.5502362 52.9776726,26.5162238 52.674,26.5437835 L50.654,26.5437835 L50.659,29.8847835 Z M70.978,24.3077835 L73.094,24.3077835 L73.094,36.5527835 L70.562,36.5527835 L70.562,24.3107835 L70.978,24.3077835 Z M86.298,24.2437835 L95.626,24.2437835 L95.626,26.6797835 L92.164,26.6797835 L92.164,36.5207835 L89.631,36.5207835 L89.631,26.6797835 L86.17,26.6797835 L86.17,24.2437835 L86.298,24.2437835 Z M111.618,24.2757835 L114.7,24.2757835 L114.7,24.3757835 C114.780385,24.5403069 114.845007,24.7120738 114.893,24.8887835 L114.957,25.1127835 L114.989,25.2417835 C115.02231,25.3378492 115.055631,25.4338439 115.08896,25.5298291 C115.140459,25.6072702 115.174574,25.6949468 115.18896,25.7868291 L115.38096,26.2988291 L115.38096,26.3988291 C115.473315,26.5689675 115.538438,26.7525274 115.57396,26.9428291 C115.662313,27.1376803 115.72678,27.3425002 115.76596,27.5528291 C115.796627,27.6133299 115.818193,27.6780277 115.82996,27.7448291 L115.89396,27.8728291 C115.920045,27.9608193 115.953496,28.0464555 115.99396,28.1288291 L115.99396,28.2288291 C116.0151,28.2578552 116.026321,28.2929223 116.02596,28.3288291 C116.077786,28.4057323 116.111937,28.493159 116.12596,28.5848291 L116.31796,29.0978291 L116.34996,29.2258291 L116.38196,29.2898291 L116.44596,29.5788291 L116.50996,29.7068291 L116.57396,29.8668291 L116.60596,29.9668291 L116.63796,30.0948291 L116.70296,30.2868291 C116.729236,30.3750769 116.762681,30.4610296 116.80296,30.5438291 L116.80296,30.6438291 C116.82361,30.6731015 116.83478,30.7080062 116.83496,30.7438291 C116.886438,30.8209139 116.920558,30.908261 116.93496,30.9998291 L117.12696,31.5128291 L117.15896,31.7048291 L117.25896,31.8978291 L117.32396,32.0898291 L117.32396,32.1898291 L117.38796,32.2898291 L117.41996,32.4188291 L117.45196,32.5788291 C117.593875,32.8866746 117.701198,33.2093148 117.77196,33.5408291 C117.7931,33.5698552 117.804321,33.6049223 117.80396,33.6408291 C117.946403,33.948213 118.05407,34.2705442 118.12496,34.6018291 L118.18896,34.7018291 L118.22096,34.8308291 L118.25296,34.9588291 L118.28496,35.0588291 L118.31696,35.1868291 C118.3381,35.2158552 118.349321,35.2509223 118.34896,35.2868291 C118.369911,35.315951 118.381112,35.3509543 118.38096,35.3868291 C118.4021,35.4158552 118.413321,35.4509223 118.41296,35.4868291 L118.47796,35.5868291 L118.47796,35.6868291 C118.49861,35.7161015 118.50978,35.7510062 118.50996,35.7868291 C118.561459,35.8642702 118.595574,35.9519468 118.60996,36.0438291 C118.66704,36.166565 118.709982,36.2953922 118.73796,36.4278291 L118.80196,36.6208291 L116.01296,36.6208291 L115.94896,36.4278291 L115.94896,36.2337835 L115.88496,36.1337835 L115.88496,36.0337835 C115.825477,35.9367525 115.791108,35.8264295 115.78496,35.7127835 L115.72096,35.6127835 L115.72096,35.5127835 L115.68896,35.3847835 L115.58896,35.1597835 L115.36396,34.3597835 L110.78096,34.3597835 L110.74896,34.5197835 L110.71596,34.6807835 L110.65196,34.8087835 C110.627118,34.9179206 110.59368,35.0249211 110.55196,35.1287835 L110.51996,35.2897835 L110.48796,35.3537835 L110.38796,35.6737835 L110.35596,35.8017835 L110.32396,35.9017835 C110.28596,36.0137835 110.25396,36.1017835 110.22396,36.1577835 L110.12396,36.5427835 L107.36696,36.5427835 L107.43096,36.2857835 L107.53096,35.9657835 L107.56296,35.8657835 L107.59496,35.7657835 L107.62696,35.6657835 L107.65896,35.6017835 L107.81996,35.0887835 L107.85196,34.9887835 L107.88396,34.8887835 L107.91596,34.7607835 L107.97996,34.6317835 L108.07996,34.2797835 L108.11196,34.1797835 L108.14396,34.0797835 L108.17596,33.9797835 L108.20796,33.9157835 C108.255524,33.7182417 108.320098,33.5251878 108.40096,33.3387835 L108.46496,33.1147835 L108.49696,33.0507835 C108.544572,32.8533794 108.608801,32.6603576 108.68896,32.4737835 C108.710703,32.3840469 108.744333,32.2976162 108.78896,32.2167835 L108.85296,31.9607835 L108.95296,31.7367835 L109.01696,31.4797835 L109.04896,31.4157835 C109.096572,31.2183794 109.160801,31.0253576 109.24096,30.8387835 L109.30496,30.5827835 L109.56196,29.8767835 L109.62596,29.6527835 L109.65796,29.5527835 L109.68996,29.4527835 C109.743324,29.2779892 109.807446,29.1066623 109.88196,28.9397835 L109.94596,28.7477835 L109.97796,28.6477835 L109.97796,28.5477835 L110.00996,28.4477835 L110.23496,27.8707835 L110.26696,27.6787835 L110.33096,27.5187835 L110.39496,27.3897835 C110.429361,27.2134441 110.483016,27.0414137 110.55496,26.8767835 L110.58696,26.7167835 L110.61896,26.6167835 L110.65096,26.5527835 C110.698822,26.3553274 110.763388,26.1622987 110.84396,25.9757835 L110.87596,25.8477835 L110.90796,25.7197835 C110.962911,25.6069413 111.005815,25.4886209 111.03596,25.3667835 L111.13596,25.0457835 L111.16796,24.9457835 L111.42496,24.2087835 L111.618,24.2757835 Z M112.996,27.0967835 L112.896,27.4487835 L112.864,27.5127835 L112.704,28.0897835 L112.512,28.6347835 L112.479,28.6987835 L112.287,29.4047835 L112.255,29.5327835 L112.063,30.0777835 L111.999,30.2377835 C111.981945,30.3937166 111.938315,30.5455778 111.87,30.6867835 C111.853171,30.8081905 111.819514,30.926662 111.77,31.0387835 L111.738,31.1677835 C111.703299,31.2774663 111.660515,31.384426 111.61,31.4877835 L111.418,32.1927835 L114.655,32.1927835 L114.591,31.9367835 L114.399,31.3277835 L114.238,30.7827835 C114.169544,30.6168723 114.115999,30.4451942 114.078,30.2697835 L114.046,30.2057835 C114.011378,30.0749141 113.968629,29.9463312 113.918,29.8207835 L113.886,29.6927835 L113.854,29.5647835 L113.79,29.4047835 L113.758,29.2117835 L113.726,29.0837835 L113.661,28.9837835 L113.629,28.7917835 L113.597,28.6627835 C113.566332,28.6022827 113.544766,28.5375849 113.533,28.4707835 L113.501,28.3427835 C113.427655,28.2010205 113.373833,28.049983 113.341,27.8937835 L113.309,27.7937835 L113.277,27.7297835 L113.213,27.4407835 L113.181,27.3407835 L113.02,26.9237835 L112.996,27.0967835 Z M132.387,24.2757835 L134.5,24.2757835 L134.5,34.0837835 L139.885,34.0837835 L139.885,36.5207835 L131.97,36.5207835 L131.97,24.2787835 L132.387,24.2757835 Z" id="路径_112" fill="#42688F"></path>
                    </g>
                </g>
            </g>
        </g>
    </g>
</svg>