<?xml version="1.0" encoding="UTF-8"?>
<svg width="240px" height="100px" viewBox="0 0 240 100" version="1.1" xmlns="http://www.w3.org/2000/svg" xmlns:xlink="http://www.w3.org/1999/xlink">
    <title>2_Chainlink</title>
    <g id="页面-1" stroke="none" stroke-width="1" fill="none" fill-rule="evenodd">
        <g id="parters" transform="translate(-310.000000, -55.000000)">
            <g id="2_Chainlink" transform="translate(310.000000, 55.000000)">
                <rect id="矩形备份" x="0" y="0" width="240" height="100"></rect>
                <g id="chainlink-logo" transform="translate(35.000000, 24.000000)" fill="#375BD2" fill-rule="nonzero">
                    <path d="M58.4611272,25.6721282 C58.4159035,24.4325241 58.6230392,23.1965492 59.0702514,22.0384595 C59.5174635,20.8803698 60.1955399,19.824173 61.0635838,18.9332381 C61.9316276,18.0423033 62.9717728,17.3349152 64.1216273,16.8537853 C65.2716214,16.3725158 66.5074568,16.1274145 67.7550168,16.1329043 C72.4557695,16.1329043 75.2380042,18.8754523 76.0774343,22.0949891 L73.1274252,23.0846065 C72.8678076,21.8843639 72.1816357,20.8172799 71.1949494,20.0791844 C70.2081235,19.3410889 68.9868044,18.9815326 67.7550168,19.0662572 C64.7089771,19.0662572 61.663077,21.272169 61.663077,25.7317285 C61.663077,30.1912881 64.6370937,32.3137314 67.7908887,32.3137314 C69.0295157,32.3494637 70.2444141,31.9705058 71.2404522,31.2374352 C72.2364903,30.5043645 72.9558822,29.4598924 73.2833353,28.271514 L76.1493177,29.2016707 C75.6586963,31.0159228 74.5583925,32.6085229 73.031255,33.7148287 C71.5041176,34.8211345 69.6421293,35.3744269 67.7550168,35.2827233 C66.4961508,35.3061726 65.2460784,35.0708419 64.0831034,34.5912473 C62.9201284,34.1116527 61.8693752,33.3984024 60.9968648,32.496022 C60.1242149,31.5936416 59.4485113,30.5216724 59.0121863,29.3473915 C58.5758614,28.1731106 58.3882667,26.9219215 58.4611272,25.6721282 Z" id="路径"></path>
                    <path d="M81.8335463,34.8416526 L78.8116538,34.8416526 L78.8116538,16.0852615 L81.8335463,16.0852615 L81.8335463,23.4423484 C82.2737795,22.9247882 82.8260949,22.5133084 83.449177,22.2386162 C84.0723987,21.9639241 84.7500564,21.8332779 85.4312035,21.856448 C88.5611304,21.856448 90.0720766,24.0862278 90.0720766,26.8645544 L90.0720766,34.8416526 L87.1340713,34.8416526 L87.1340713,27.3772292 C87.1892051,27.0141834 87.1612893,26.6433211 87.0524174,26.2924187 C86.9435455,25.9415163 86.7566488,25.6195067 86.5055456,25.3502582 C86.2543028,25.0811493 85.9454137,24.8716407 85.6016299,24.7373654 C85.257846,24.6032297 84.8881003,24.5476771 84.5197505,24.5751742 C84.1543318,24.5754534 83.7929609,24.6512449 83.4583893,24.7976637 C83.1239572,24.944222 82.823722,25.1581971 82.5768062,25.4261894 C82.3298904,25.6940421 82.1417374,26.0100497 82.0240721,26.3542523 C81.9064067,26.6983154 81.8620205,27.0628966 81.8935654,27.4249654 L81.8335463,34.8416526 Z" id="路径"></path>
                    <path d="M96.8236684,27.6157703 L100.073494,27.1149597 C100.805029,27.0194874 101.008815,26.6498814 101.008815,26.2086711 C101.008815,25.1474495 100.289284,24.288897 98.6104234,24.288897 C98.2867389,24.2612603 97.9606816,24.2993655 97.6522113,24.4007 C97.3436014,24.5021742 97.0589991,24.6647841 96.8157123,24.8788988 C96.572286,25.0930135 96.3753396,25.3540269 96.2364581,25.6461664 C96.0977163,25.9383059 96.0199706,26.2554302 96.0082459,26.5782772 L93.2500188,25.9582658 C93.4778123,23.7762221 95.4684927,21.83258 98.5864157,21.83258 C102.495893,21.83258 103.982832,24.0384917 103.982832,26.6021452 L103.982832,32.8622781 C103.975992,33.541192 104.028055,34.219408 104.138742,34.8892492 L101.320635,34.8892492 C101.223907,34.358429 101.183708,33.8188153 101.200737,33.2796203 C100.779765,33.9211269 100.197719,34.4423162 99.5121058,34.7915436 C98.8263526,35.1407711 98.0608995,35.306033 97.2912591,35.2708591 C96.7548558,35.314687 96.2148233,35.2499222 95.7042421,35.0804729 C95.193661,34.9110235 94.7228599,34.6402396 94.3204527,34.2847311 C93.9180455,33.929083 93.5922673,33.4961079 93.3629385,33.0119072 C93.1336096,32.5275669 93.0054758,32.0020507 92.9862139,31.4671828 C92.9862139,29.1657988 94.6530702,27.925776 96.8236684,27.6157703 Z M101.008815,29.6427413 L101.008815,29.0704661 L97.6991099,29.5592729 C97.2492457,29.5746266 96.8226913,29.7615233 96.5079399,30.08116 C96.1930489,30.4009363 96.0141082,30.8288865 96.0082459,31.2763778 C96.0120146,31.5073816 96.0639381,31.7350355 96.1608061,31.9449628 C96.2576742,32.1550297 96.3973931,32.3426243 96.5708902,32.4961616 C96.7445269,32.6496988 96.9483127,32.7658288 97.1692668,32.8370143 C97.3903604,32.9081997 97.6237371,32.9330449 97.85502,32.9098747 C98.2916242,32.9542609 98.7328344,32.8989875 99.1448726,32.7483814 C99.5569108,32.5979149 99.9291689,32.3558843 100.233173,32.0409934 C100.537176,31.7261024 100.76497,31.3464466 100.899385,30.930919 C101.0338,30.5153913 101.071207,30.0748789 101.008815,29.6427413 Z" id="形状"></path>
                    <path d="M109.115443,15.8229919 C109.377294,15.8197816 109.63719,15.8683552 109.880058,15.9659212 C110.122926,16.0633475 110.343881,16.2076726 110.530079,16.3908006 C110.716418,16.5737891 110.864372,16.7916725 110.965288,17.0320281 C111.066204,17.2722441 111.118127,17.5300471 111.118127,17.7905022 C111.118127,18.3090394 110.910991,18.8065001 110.542083,19.173175 C110.173315,19.5399895 109.673062,19.7460086 109.151454,19.7460086 C108.629846,19.7460086 108.129594,19.5399895 107.760825,19.173175 C107.391917,18.8065001 107.184781,18.3090394 107.184781,17.7905022 C107.184642,17.2768502 107.386474,16.7834373 107.747286,16.4157853 C108.107959,16.048273 108.598999,15.8354145 109.115443,15.8229919 Z M107.640508,34.901253 L107.640508,22.2261937 L110.626529,22.2261937 L110.626529,34.8416526 L107.640508,34.901253 Z" id="形状"></path>
                    <path d="M117.557899,34.8416526 L114.535867,34.8416526 L114.535867,22.2261937 L117.485876,22.2261937 L117.485876,23.9074267 C117.868742,23.2620119 118.419382,22.7309125 119.079732,22.3701 C119.740221,22.0091478 120.486273,21.8317425 121.239443,21.856448 C124.333358,21.856448 125.820297,24.0862278 125.820297,26.8645544 L125.820297,34.8416526 L122.798405,34.8416526 L122.798405,27.3772292 C122.798405,25.8272008 122.090877,24.5751742 120.196087,24.5751742 C119.818944,24.5774075 119.446546,24.6590614 119.103321,24.8145528 C118.760235,24.9700441 118.453998,25.1960231 118.204849,25.477415 C117.9557,25.7589465 117.769222,26.0897495 117.657698,26.4480496 C117.546174,26.8062102 117.512256,27.1839119 117.557899,27.5561699 L117.557899,34.8416526 Z" id="路径"></path>
                    <polygon id="路径" points="129.501981 34.8416526 129.501981 16.0852615 132.523873 16.0852615 132.523873 34.8416526"></polygon>
                    <path d="M137.920289,15.8229919 C138.445108,15.8229919 138.948431,16.0302672 139.319433,16.399315 C139.690993,16.7682232 139.898966,17.2686151 139.898966,17.7905022 C139.896174,18.1761599 139.778928,18.5526053 139.56258,18.8723815 C139.345534,19.1921578 139.03832,19.4408882 138.679461,19.5874464 C138.320463,19.7340386 137.926152,19.7716912 137.545659,19.6958996 C137.165305,19.6199684 136.815938,19.4340488 136.541664,19.1611712 C136.267391,18.8884332 136.080355,18.5411598 136.004005,18.1628998 C135.927795,17.7846398 135.96576,17.3925615 136.113016,17.0356572 C136.260412,16.6788924 136.510678,16.3733532 136.832269,16.1575636 C137.153859,15.9417739 137.532399,15.8253648 137.920289,15.8229919 Z M136.433351,34.901253 L136.433351,22.2261937 L139.431236,22.2261937 L139.431236,34.8416526 L136.433351,34.901253 Z" id="形状"></path>
                    <path d="M146.362885,34.8416526 L143.340992,34.8416526 L143.340992,22.2261937 L146.279137,22.2261937 L146.279137,23.9074267 C146.66298,23.2636868 147.214319,22.7341229 147.874529,22.3734499 C148.534739,22.0127769 149.280093,21.8343945 150.032425,21.856448 C153.138065,21.856448 154.624585,24.0862278 154.624585,26.8645544 L154.624585,34.8416526 L151.602693,34.8416526 L151.602693,27.3772292 C151.658525,27.0141834 151.630609,26.6433211 151.521737,26.2924187 C151.412865,25.9415163 151.225829,25.6195067 150.974586,25.3502582 C150.723343,25.0811493 150.414873,24.8716407 150.070112,24.7373654 C149.726747,24.6032297 149.356861,24.5476771 148.988372,24.5751742 C148.612904,24.5772679 148.240227,24.6587822 147.898257,24.8144132 C147.554892,24.9700441 147.249214,25.1961626 147.000762,25.4779733 C146.752311,25.7596444 146.568066,26.090587 146.457799,26.4488871 C146.347531,26.8071873 146.315428,27.1844702 146.362885,27.5561699 L146.362885,34.8416526 Z" id="路径"></path>
                    <polygon id="路径" points="164.96183 27.5561699 170.286782 34.8416526 166.580951 34.8416526 162.851391 29.6427413 161.29229 31.2763778 161.29229 34.8535169 158.294126 34.8535169 158.294126 16.0852615 161.29229 16.0852615 161.29229 27.3294931 166.162213 22.2261937 170.179306 22.2261937"></polygon>
                    <path d="M22.6528877,11.0176664 L35.7242127,18.4819782 L35.7242127,33.4702857 L22.6888991,40.9824452 L9.61760203,33.5300257 L9.61760203,18.5415785 L22.6528877,11.0176664 Z M22.6528877,0 L17.8561044,2.76633669 L4.79681115,10.2903186 L0,13.0566692 L0,18.5654466 L0,33.5418899 L0,39.0506673 L4.79681115,41.7932615 L17.8681083,49.2575453 L22.6648915,52 L27.4618143,49.2336773 L40.4971279,41.7097931 L45.2939111,38.9553346 L45.2939111,33.4465572 L45.2939111,18.4581101 L45.2939111,12.9493327 L40.4971279,10.2068501 L27.4258028,2.74249654 L22.6290196,0 L22.6528877,0 Z" id="形状"></path>
                </g>
            </g>
        </g>
    </g>
</svg>