<?xml version="1.0" encoding="UTF-8"?>
<svg width="240px" height="100px" viewBox="0 0 240 100" version="1.1" xmlns="http://www.w3.org/2000/svg" xmlns:xlink="http://www.w3.org/1999/xlink">
    <title>3_Polygon</title>
    <g id="页面-1" stroke="none" stroke-width="1" fill="none" fill-rule="evenodd">
        <g id="parters" transform="translate(-620.000000, -55.000000)">
            <g id="3_Polygon" transform="translate(620.000000, 55.000000)">
                <rect id="矩形备份-2" x="0" y="0" width="240" height="100"></rect>
                <g id="polygon_logo备份" transform="translate(30.000000, 30.000000)" fill-rule="nonzero">
                    <g id="组_5" transform="translate(55.550462, 0.059073)" fill="#212121">
                        <path d="M14.4917889,12.6500291 C15.6422847,13.3509835 16.5663796,14.3683029 17.1535461,15.5803095 C17.8308078,16.9731116 18.1640396,18.5078923 18.1252987,20.055954 C18.1665063,21.5865242 17.7958962,23.1000948 17.0521458,24.4387077 C16.3551734,25.6561012 15.3107466,26.6381158 14.0523877,27.2592082 C12.6842433,27.9229548 11.1790018,28.2556316 9.65837594,28.2303386 C8.7605969,28.2286555 7.87044001,28.0656122 7.03041888,27.7489957 C6.22720409,27.4659646 5.49900322,27.0039108 4.90101316,26.3978577 L4.90101316,35.2055882 L0,35.2055882 L0,12.0504616 L4.22501135,12.0504616 L4.64751248,13.8829425 C6.3203622,12.4562251 8.43957196,11.6586698 10.6385786,11.628231 C11.9928007,11.6063362 13.326589,11.9600315 14.4917889,12.6500291 Z M11.8131317,23.1551266 C12.6702463,22.383818 13.1458819,21.275741 13.1144352,20.1235109 C13.1587169,18.9691464 12.7352588,17.8457219 11.9398821,17.007449 C11.1823534,16.2106313 10.1242104,15.7692544 9.02462423,15.7914248 C8.17057186,15.7653842 7.32491777,15.9664628 6.57411765,16.374103 C5.87442972,16.7878298 5.30611706,17.3909095 4.93481325,18.1136932 L4.93481325,21.8546564 C5.18401398,22.5915899 5.67541633,23.2225632 6.329067,23.6449141 C7.0257824,24.1021984 7.84481196,24.3377395 8.6781733,24.3204831 C9.83410364,24.3485924 10.956574,23.9313371 11.8131317,23.1551266 L11.8131317,23.1551266 Z" id="路径_18"></path>
                        <path d="M21.0321065,15.6816448 C21.7868587,14.429643 22.8752308,13.4121403 24.1755149,12.7429198 C25.5944364,12.0073801 27.1740877,11.6359354 28.7723273,11.6620094 C30.3497047,11.6294313 31.9090955,12.0015847 33.3015394,12.7429198 C34.5658672,13.4164281 35.6122019,14.4357315 36.3181975,15.6816448 C37.0363309,16.9718687 37.4034359,18.4277018 37.3829004,19.9039509 C37.4041534,21.3936901 37.0372363,22.8633292 36.3181975,24.1684801 C35.6212772,25.4320178 34.5736588,26.4672349 33.3015394,27.1494282 C31.8847648,27.8898884 30.3031211,28.258896 28.7047271,28.221894 C27.1257397,28.2508997 25.5622442,27.9065722 24.1417148,27.2169851 C22.8478573,26.582479 21.7672153,25.5846991 21.0321065,24.345817 C20.2685939,22.9922297 19.8860744,21.4572953 19.9251535,19.9039509 C19.9052155,18.4223661 20.2877826,16.9631212 21.0321065,15.6816448 L21.0321065,15.6816448 Z M25.9500197,22.994679 C26.6407293,23.7623935 27.6251882,24.2008405 28.658252,24.2008405 C29.6913157,24.2008405 30.6757747,23.7623935 31.3664842,22.994679 C32.7440037,21.1829206 32.7440037,18.675649 31.3664842,16.8638906 C30.6757747,16.0961761 29.6913157,15.657729 28.658252,15.657729 C27.6251882,15.657729 26.6407293,16.0961761 25.9500197,16.8638906 C24.5423453,18.6527869 24.5423453,21.1720042 25.9500197,22.9609006 L25.9500197,22.994679 Z" id="路径_19"></path>
                        <polygon id="路径_20" points="45.3090217 1.50006446e-14 45.3090217 27.7658849 40.3742084 27.7658849 40.3742084 1.50006446e-14"></polygon>
                        <polygon id="路径_21" points="65.4623258 12.4051353 55.5250991 35.2055882 50.7592863 35.2055882 54.4603962 26.9974252 47.3370271 12.4051353 52.880242 12.4051353 56.9362529 21.4999827 61.0260639 12.4051353"></polygon>
                        <path d="M84.170676,12.4051353 L84.170676,27.7658849 C84.1837395,29.1850598 83.7458601,30.5717756 82.9200727,31.726408 C82.0611725,32.938936 80.8944789,33.900842 79.5400636,34.51313 C78.0904589,35.1879149 76.5085441,35.5312129 74.9094511,35.5180389 C73.7658964,35.5428231 72.6254842,35.388966 71.5294421,35.0620298 C70.7267559,34.8174383 69.9575558,34.4742146 69.2394859,34.0402318 C68.5267096,33.5569942 67.8385803,33.0384093 67.1776804,32.4864231 L70.0675881,29.1085782 C70.7008269,29.7128055 71.4077504,30.2348563 72.1716438,30.6623869 C72.9846712,31.0642443 73.8846292,31.2586268 74.7911508,31.2281759 C75.913297,31.2673982 77.0174038,30.9381579 77.9345593,30.2908239 C78.766651,29.6948498 79.2429826,28.720582 79.2020627,27.698328 L79.2020627,25.5196181 C78.6827116,26.3623577 77.9277517,27.0346344 77.0304068,27.4534342 C75.9149777,27.9814945 74.6896641,28.2362429 73.4560472,28.1965601 C72.0945733,28.2012035 70.7582514,27.8300783 69.5943869,27.1240944 C68.4018719,26.4049736 67.4220249,25.3820389 66.7551793,24.1600355 C65.329497,21.5208276 65.3486101,18.3373445 66.8058794,15.7154233 C67.5022301,14.471822 68.5096444,13.4301359 69.7295872,12.6922521 C70.8787268,11.9780758 72.204225,11.5979336 73.5574475,11.5944525 C74.7076822,11.5769188 75.8519613,11.7627451 76.9374566,12.1433523 C77.7975129,12.4221442 78.5734379,12.9129582 79.1936127,13.5704918 L79.5823137,12.3713569 L84.170676,12.4051353 Z M79.2358628,21.8546564 L79.2358628,18.0799147 C78.8972686,17.3197279 78.3223795,16.6889394 77.5965584,16.2812123 C76.7974213,15.824534 75.8889463,15.5939116 74.9686013,15.614088 C73.8375535,15.5918154 72.744811,16.0237655 71.9350432,16.8132229 C71.1148368,17.6049632 70.66688,18.7057407 70.7013398,19.8448387 C70.6742151,20.997508 71.1199474,22.1111253 71.9350432,22.9271221 C72.7273495,23.7486056 73.827184,24.2017289 74.9686013,24.1769247 C76.7217678,24.2974841 78.3859876,23.3918061 79.2358628,21.8546564 L79.2358628,21.8546564 Z" id="路径_22"></path>
                        <path d="M88.277387,15.6816448 C89.0321392,14.429643 90.1205114,13.4121403 91.4207955,12.7429198 C92.8423677,12.0063497 94.4250076,11.6348851 96.0260579,11.6620094 C97.6031122,11.6324272 99.1617598,12.0044032 100.55527,12.7429198 C101.816034,13.4212896 102.86116,14.4394157 103.571928,15.6816448 C104.284551,16.9736854 104.648557,18.4287782 104.628181,19.9039509 C104.648176,21.3924971 104.284421,22.8611268 103.571928,24.1684801 C102.869671,25.4279759 101.823405,26.4618568 100.55527,27.1494282 C99.1350744,27.8888508 97.5509807,28.2577519 95.9500076,28.221894 C94.3710203,28.2508997 92.8075247,27.9065722 91.3869954,27.2169851 C90.0948064,26.5800498 89.0147874,25.582845 88.277387,24.345817 C87.5138744,22.9922297 87.131355,21.4572953 87.1704341,19.9039509 C87.150496,18.4223661 87.5330632,16.9631212 88.277387,15.6816448 Z M93.2037503,22.994679 C93.8640195,23.7874797 94.8505712,24.2353424 95.8824075,24.2107032 C96.9275222,24.2476053 97.9324109,23.8061105 98.6117648,23.0115682 C99.9892843,21.1998098 99.9892843,18.6925382 98.6117648,16.8807798 C97.9324109,16.0862375 96.9275222,15.6447427 95.8824075,15.6816448 C94.8505712,15.6570056 93.8640195,16.1048684 93.2037503,16.897669 C91.7836873,18.6822616 91.7836873,21.2100864 93.2037503,22.994679 L93.2037503,22.994679 Z" id="路径_23"></path>
                        <path d="M121.992978,12.9709243 C122.954875,13.8012535 123.504548,15.0109948 123.497157,16.2812123 L123.497157,27.7658849 L118.553818,27.7658849 L118.553818,18.1136932 C118.618353,17.498187 118.401476,16.886449 117.963584,16.4488378 C117.525693,16.0112265 116.913563,15.7944886 116.297662,15.8589817 C115.172234,15.8571048 114.134119,16.464708 113.585205,17.4465688 C112.854728,18.6809429 112.499468,20.1010739 112.562752,21.5337611 L112.562752,27.7658849 L107.627939,27.7658849 L107.627939,12.4051353 L112.106451,12.4051353 L112.452902,14.8709621 C112.99416,13.8771134 113.809473,13.0593918 114.802008,12.5149153 C115.888119,11.9291798 117.10883,11.6380271 118.342568,11.6704541 C119.680441,11.625149 120.985474,12.0900713 121.992978,12.9709243 Z" id="路径_24"></path>
                    </g>
                    <path d="M34.5944061,12.2699819 C33.7097992,11.7635723 32.6229053,11.7635723 31.7382984,12.2699819 L25.1219306,16.0869466 L20.6011685,18.6963318 L13.9848007,22.5132965 C13.1032679,23.0199204 12.0186759,23.0199204 11.1371431,22.5132965 L5.94882915,19.5154592 C5.06317045,19.010532 4.51767154,18.0686167 4.52077531,17.0496324 L4.52077531,11.0624023 C4.51991921,10.0418118 5.06440496,9.09842609 5.94882915,8.58813097 L11.1371431,5.59873826 C12.0186759,5.09211436 13.1032679,5.09211436 13.9848007,5.59873826 L19.1815647,8.58813097 C20.061464,9.1018324 20.6020356,10.0440114 20.6011685,11.0624023 L20.6011685,14.9047009 L25.1219306,12.2953157 L25.1219306,8.45301718 C25.1250028,7.43625319 24.5834411,6.49557009 23.7023268,5.98719042 L13.9848007,0.37996792 C13.1032679,-0.126655973 12.0186759,-0.126655973 11.1371431,0.37996792 L1.42806701,5.98719042 C0.542408308,6.49211756 -0.00309059662,7.43403289 -5.41365894e-14,8.45301718 L-5.41365894e-14,19.6590176 C-0.00132216057,20.6775294 0.543699225,21.6186202 1.42806701,22.1248443 L11.1371431,27.7320668 C12.0186759,28.2386907 13.1032679,28.2386907 13.9848007,27.7320668 L20.6011685,23.9151021 L25.1219306,21.3057169 L31.7382984,17.4887522 C32.6205571,16.9736005 33.7121474,16.9736005 34.5944061,17.4887522 L39.78272,20.4781449 C40.6620105,20.9894487 41.2051726,21.9273291 41.2107738,22.9439717 L41.2107738,28.9396464 C41.2068865,29.9567532 40.663267,30.8954233 39.78272,31.4054731 L34.5944061,34.4033105 C33.7097992,34.90972 32.6229053,34.90972 31.7382984,34.4033105 L26.5499845,31.4054731 C25.6694374,30.8954233 25.125818,29.9567532 25.1219306,28.9396464 L25.1219306,25.0889032 L20.6011685,27.6982884 L20.6011685,31.5490315 C20.6050558,32.5661383 21.1486753,33.5048084 22.0292223,34.0148583 L31.7382984,39.6136362 C32.6205571,40.1287879 33.7121474,40.1287879 34.5944061,39.6136362 L44.3034821,34.0148583 C45.1840292,33.5048084 45.7276486,32.5661383 45.731536,31.5490315 L45.731536,20.3430312 C45.7289262,19.3233695 45.1853663,18.381588 44.3034821,17.8687598 L34.5944061,12.2699819 Z" id="路径_25" fill="#8247E5"></path>
                </g>
            </g>
        </g>
    </g>
</svg>