<?xml version="1.0" encoding="UTF-8"?>
<svg width="160px" height="100px" viewBox="0 0 160 100" version="1.1" xmlns="http://www.w3.org/2000/svg" xmlns:xlink="http://www.w3.org/1999/xlink">
    <title>4_EVG</title>
    <g id="页面-1" stroke="none" stroke-width="1" fill="none" fill-rule="evenodd">
        <g id="parters" transform="translate(-930.000000, -55.000000)">
            <g id="4_EVG" transform="translate(930.000000, 55.000000)">
                <rect id="矩形备份-3" x="0" y="0" width="160" height="100"></rect>
                <g id="EVG" transform="translate(24.000000, 5.000000)">
                    <polygon id="Fill-1" fill="#000000" points="56.5138738 6.02382664 89.0543361 63.5948529 92.4838342 63.5948529 56.5387301 0 19.902291 63.5948529 23.3480286 63.5948529"></polygon>
                    <polygon id="Fill-2" fill="#000000" points="102.776571 80.6255524 99.3467412 80.6255524 102.957856 87.0142686 9.17692339 87.0142686 12.8576352 80.6255524 9.41189771 80.6255524 4.01146554 90 108.074927 90"></polygon>
                    <path d="M65.1222853,42.9641415 L66.7972644,45.4530795 L66.0313608,42.4345379 L62.4189208,40.4377533 L63.6789664,44.1970109 L65.1222853,42.9641415 Z M76.6393408,53.5870351 L74.4473519,54.7426845 L73.0355175,53.186684 L72.7004554,55.5145536 L73.8464938,55.1214936 L71.836784,60.6813371 L75.8134508,57.9574248 L79.2283666,62.2486058 L78.2994061,58.2189124 L79.44909,59.2313899 L76.6393408,53.5870351 Z M64.9108416,44.4634698 L63.2729812,46.5533824 L60.9003703,48.7775186 L59.4921815,48.9760371 L61.7948635,50.5035358 L61.0683985,51.3297572 L59.6877173,51.7784952 L59.5150493,59.875995 L62.8623561,51.7775009 L66.0827304,46.217326 L64.9108416,44.4634698 Z M73.1743811,51.3267745 L72.2172502,49.2405075 L70.8551283,47.9788048 L67.2642303,47.9788048 L67.1866788,47.461795 L61.7398483,57.2226743 L65.0685959,53.8269807 L66.1274716,60.2084058 L67.5976353,55.3571308 L69.5215082,53.2672182 L70.8398831,59.0514307 L72.1155053,51.1030683 L73.1743811,51.3267745 Z M43.4638844,61.0979277 L43.9911681,52.2385013 L38.5082132,64.7991874 L43.4638844,61.0979277 Z M55.8154467,34.8616704 L57.0715153,33.9307214 L55.1121808,31.943548 L48.715842,44.146967 L45.9060928,43.1619971 L42.095797,48.1471644 L39.9419211,46.4980358 L36.7785504,53.4816447 L38.0160597,52.8456564 L41.6364538,49.0840789 L41.7067141,54.9087242 L43.5344762,48.4769238 L45.6081493,46.4748366 L44.7998244,57.8212126 L50.5989507,43.9872243 L51.9342278,47.9917301 L52.7425527,43.5016991 L55.5194917,55.2123017 L57.9447978,47.0816603 L60.1941217,47.6884839 L55.8154467,34.8616704 Z M39.8282452,52.3849874 L34.5716478,62.7361195 L40.1954547,56.7291951 L39.8282452,52.3849874 Z M60.994824,41.622236 L62.1836151,45.6897109 L62.1743354,45.4998093 L61.8101086,37.6966073 L60.0482984,34.6551979 L58.7252837,36.3228859 L56.8524489,34.988603 L60.9083243,47.0700607 L60.994824,41.622236 Z M78.0206848,50.0915851 L75.9264638,51.1968592 L74.6465332,46.7777513 L72.26166,44.5681974 L68.9455063,44.5681974 L68.0728866,38.7432207 L63.1864814,36.5336668 L59.6376734,30.4074324 L58.4744014,31.3112053 L55.2749063,27.0932672 L47.9161339,39.7977881 L45.2687788,38.9437277 L41.6619728,44.0661014 L39.684079,41.7557968 L35.0883262,51.9001251 L32.7614508,53.2052433 L28.8056632,63.298202 L29.4943468,63.5954826 L33.9684698,54.9630765 L36.2950137,53.6576269 L39.684079,45.0003646 L42.0643125,47.0127257 L45.2687788,41.8906834 L48.3184736,42.7447437 L55.2749063,30.0395601 L58.4744014,34.8520593 L59.6376734,32.7594955 L63.5888211,39.480291 L66.8661991,40.5007225 L68.140827,46.3256992 L71.4569807,46.6226484 L73.8421853,48.8328652 L74.7194449,53.5485908 L77.2160055,52.4439796 L83.7193918,63.298202 L84.5946629,63.298202 L78.0206848,50.0915851 Z" id="Fill-3" fill="#2A5A73"></path>
                    <path d="M29.016875,66.6174047 C29.9402014,66.6174047 30.8330375,67.1731902 31.1306495,69.0682298 L29.7556024,69.5670117 C29.6631372,69.0115576 29.5504556,68.3129316 28.9757793,68.3129316 C28.5552118,68.3129316 28.2575997,68.7404589 28.2575997,69.2823249 C28.2575997,69.8096086 28.3295171,69.9802881 29.4888121,70.7929214 C30.1662275,71.26287 30.9049549,71.904161 30.9049549,73.3295834 C30.9049549,74.3128962 30.5662472,75.2392054 30.2069917,75.6952345 C29.6939589,76.350445 28.9346837,76.4644523 28.4832944,76.4644523 C27.2829038,76.4644523 26.3078764,75.7519067 26.1232774,73.6142702 L27.5085984,73.2579974 C27.6623757,74.2128084 27.8777964,74.7689254 28.52439,74.7689254 C29.1603783,74.7689254 29.3757991,74.2416417 29.3757991,73.7282775 C29.3757991,73.0160634 29.0579706,72.7592156 28.4627466,72.3601901 C27.6007322,71.8044046 26.7904188,71.177696 26.7904188,69.6956013 C26.7904188,68.6407025 27.252082,66.6174047 29.016875,66.6174047 Z M100.286307,68.1277692 C100.532881,68.854897 100.594524,69.6668675 100.594524,70.4649185 C100.594524,72.0467695 100.358224,73.6286205 99.7321786,74.9397043 C99.0657,76.3220426 98.2242335,76.4645517 97.7009268,76.4645517 C95.802573,76.4645517 95.4641967,74.3839188 95.4641967,72.7308132 C95.4641967,70.379413 96.1515546,66.6175041 98.4293803,66.6175041 C98.7475402,66.6175041 99.804096,66.7026781 100.286307,68.1277692 Z M78.3906782,66.6174047 C79.3140046,66.6174047 80.2065093,67.1731902 80.5041213,69.0682298 L79.1290742,69.5670117 C79.0369404,69.0115576 78.9239274,68.3129316 78.3495826,68.3129316 C77.9286836,68.3129316 77.631403,68.7404589 77.631403,69.2823249 C77.631403,69.8096086 77.7029889,69.9802881 78.8626153,70.7929214 C79.5396993,71.26287 80.2784267,71.904161 80.2784267,73.3295834 C80.2784267,74.3128962 79.9400504,75.2392054 79.5807949,75.6952345 C79.0677622,76.350445 78.3084869,76.4644523 77.8567662,76.4644523 C76.6563756,76.4644523 75.6816796,75.7519067 75.4967492,73.6142702 L76.8820702,73.2579974 C77.0361789,74.2128084 77.2515996,74.7689254 77.8978618,74.7689254 C78.5338501,74.7689254 78.7496023,74.2416417 78.7496023,73.7282775 C78.7496023,73.0160634 78.4314424,72.7592156 77.8365498,72.3601901 C76.9745354,71.8044046 76.1638906,71.177696 76.1638906,69.6956013 C76.1638906,68.6407025 76.6258853,66.6174047 78.3906782,66.6174047 Z M87.1014311,66.6174047 C89.0408806,66.6174047 89.1847154,69.1394844 89.2152057,69.7526049 L87.8815856,70.0657935 C87.8610378,69.6097644 87.7993943,68.3129316 87.0298452,68.3129316 C86.5168124,68.3129316 86.2500221,68.940303 86.1167927,69.3820813 C85.7475947,70.6076596 85.6137024,72.0327506 85.6137024,72.9733107 C85.6137024,73.6712738 85.7164415,74.7689254 86.4246786,74.7689254 C87.2760876,74.7689254 87.4504127,73.5287647 87.5432093,72.8732229 L86.5270863,72.8732229 L86.7322331,71.2061978 L89.0922502,71.2061978 L88.4665358,76.3931977 L87.8815856,76.3931977 L87.7993943,75.1679508 C87.6045214,75.62398 87.2555398,76.4644523 86.18871,76.4644523 C84.2184388,76.4644523 84.0852094,74.0560484 84.0852094,72.7307138 C84.0852094,69.8381104 84.8544271,66.6174047 87.1014311,66.6174047 Z M103.652041,66.7882499 L103.015721,72.0753376 C102.954409,72.6311231 102.882491,73.3864213 102.882491,73.6714396 C102.882491,74.5407451 103.344155,74.7687596 103.682862,74.7687596 C104.472959,74.7687596 104.585641,74.070465 104.760297,72.5883704 L105.457929,66.7882499 L106.761059,66.7882499 L106.022,72.9446431 C105.919592,73.8139487 105.765815,74.8542651 105.386012,75.4952247 C104.965444,76.2223525 104.134252,76.4642866 103.518811,76.4642866 C102.123216,76.4642866 101.446132,75.4670543 101.446132,73.9849596 C101.446132,73.4149232 101.49717,72.8445553 101.558814,72.2891013 L102.225624,66.7882499 L103.652041,66.7882499 Z M61.5527637,66.7882499 L60.9167754,72.0753376 C60.8551319,72.6311231 60.783546,73.3864213 60.783546,73.6714396 C60.783546,74.5407451 61.2448778,74.7687596 61.5835855,74.7687596 C62.3740139,74.7687596 62.4863641,74.070465 62.6610206,72.5883704 L63.3586523,66.7882499 L64.6617821,66.7882499 L63.9230547,72.9446431 C63.820647,73.8139487 63.6665383,74.8542651 63.2867349,75.4952247 C62.8661674,76.2223525 62.0349748,76.4642866 61.4195343,76.4642866 C60.0242707,76.4642866 59.3468554,75.4670543 59.3468554,73.9849596 C59.3468554,73.4149232 59.3982249,72.8445553 59.4598684,72.2891013 L60.1266784,66.7882499 L61.5527637,66.7882499 Z M5.18169727,66.7882499 L4.98682435,68.4556064 L2.38056485,68.4556064 L2.11377455,70.6217448 L4.27891867,70.6217448 L4.08371434,72.2178467 L1.92917555,72.2178467 L1.63156352,74.6259191 L4.27891867,74.6259191 L4.07377184,76.293607 L0,76.293607 L1.14935249,66.7882499 L5.18169727,66.7882499 Z M68.0172418,66.7881505 C68.9508421,66.7881505 70.1820545,67.0022455 70.1820545,69.3536457 C70.1820545,71.4909509 69.2792759,71.9758132 68.8891986,72.1892455 L69.6484739,76.2935076 L68.0991016,76.2935076 L67.4425655,72.5455182 L66.7346598,72.5455182 L66.2832705,76.2935076 L64.8465799,76.2935076 L65.9959324,66.7881505 L68.0172418,66.7881505 Z M7.13102294,66.7882499 L7.42863498,73.7423627 L9.28589315,66.7882499 L10.5582012,66.7882499 L7.85980787,76.293607 L6.20769652,76.293607 L5.6535681,66.7882499 L7.13102294,66.7882499 Z M15.554968,66.7882499 L15.3600951,68.4556064 L12.7538356,68.4556064 L12.4870453,70.6217448 L14.6521894,70.6217448 L14.4569851,72.2178467 L12.3024463,72.2178467 L12.0048343,74.6259191 L14.6521894,74.6259191 L14.4470426,76.293607 L10.3732707,76.293607 L11.5226232,66.7882499 L15.554968,66.7882499 Z M18.6434717,66.7881505 C19.577072,66.7881505 20.8082844,67.0022455 20.8082844,69.3536457 C20.8082844,71.4909509 19.9055058,71.9758132 19.51576,72.1892455 L20.2750352,76.2935076 L18.7253316,76.2935076 L18.0687954,72.5455182 L17.3608898,72.5455182 L16.909169,76.2935076 L15.4728099,76.2935076 L16.6221623,66.7881505 L18.6434717,66.7881505 Z M59.418839,66.788283 L59.2034183,68.5553959 L57.8078233,68.5553959 L56.874223,76.2936402 L55.4378638,76.2936402 L56.3714642,68.5553959 L54.9244996,68.5553959 L55.1402518,66.788283 L59.418839,66.788283 Z M51.2717925,66.7882499 L52.5338266,72.6026213 L53.200968,66.7882499 L54.4013587,66.7882499 L53.2523376,76.293607 L52.1440808,76.293607 L50.6666259,69.4246683 L49.8765289,76.293607 L48.6758069,76.293607 L49.8251594,66.7882499 L51.2717925,66.7882499 Z M48.7580976,66.7882499 L48.5632247,68.4556064 L45.9569652,68.4556064 L45.6901749,70.6217448 L47.855319,70.6217448 L47.6601147,72.2178467 L45.5055759,72.2178467 L45.2079639,74.6259191 L47.855319,74.6259191 L47.6501722,76.293607 L43.5764003,76.293607 L44.7257528,66.7882499 L48.7580976,66.7882499 Z M36.4146882,66.788283 L36.1992675,68.5553959 L34.8036725,68.5553959 L33.8700722,76.2936402 L32.433713,76.2936402 L33.3673133,68.5553959 L31.9203488,68.5553959 L32.136101,66.788283 L36.4146882,66.788283 Z M92.9297883,66.7881505 C93.8633886,66.7881505 95.094601,67.0022455 95.094601,69.3536457 C95.094601,71.4909509 94.1918224,71.9758132 93.8017452,72.1892455 L94.5610204,76.2935076 L93.0116482,76.2935076 L92.3551121,72.5455182 L91.6472064,72.5455182 L91.1958171,76.2935076 L89.7591265,76.2935076 L90.908479,66.7881505 L92.9297883,66.7881505 Z M40.3341525,66.7882499 L40.6317646,73.7423627 L42.4890227,66.7882499 L43.7613308,66.7882499 L41.0629375,76.293607 L39.4108261,76.293607 L38.8566977,66.7882499 L40.3341525,66.7882499 Z M26.2772866,66.7882499 L26.0824137,68.4556064 L23.4761542,68.4556064 L23.2093639,70.6217448 L25.374508,70.6217448 L25.1793037,72.2178467 L23.0247649,72.2178467 L22.7271529,74.6259191 L25.374508,74.6259191 L25.1693612,76.293607 L21.0959208,76.293607 L22.2449418,66.7882499 L26.2772866,66.7882499 Z M110.095905,66.7883825 C110.680855,66.7883825 112.250775,66.7883825 112.250775,69.4390518 C112.250775,70.3368591 112.05557,71.4480987 111.4915,72.0469683 C110.881551,72.681844 110.32504,72.7271923 109.878752,72.7304315 L108.813323,72.7306806 L108.382481,76.2934082 L106.945791,76.2934082 L108.095143,66.7883825 L110.095905,66.7883825 Z M75.650891,66.7882499 L75.4560181,68.4556064 L72.8497586,68.4556064 L72.5829683,70.6217448 L74.747781,70.6217448 L74.5529081,72.2178467 L72.3983693,72.2178467 L72.1007572,74.6259191 L74.747781,74.6259191 L74.5426342,76.293607 L70.4691937,76.293607 L71.6185462,66.7882499 L75.650891,66.7882499 Z M98.3574629,68.313031 C97.8341562,68.313031 97.5673659,69.0255765 97.4851746,69.3109261 C97.074881,70.6220099 96.9310462,72.2035295 96.9310462,73.2295951 C96.9310462,73.9991442 97.1057027,74.7686934 97.7725128,74.7686934 C98.3064248,74.7686934 98.5626097,74.027646 98.6756228,73.5716169 C99.0348783,72.1037731 99.1270121,70.6220099 99.1270121,69.9803875 C99.1270121,69.7242025 99.1270121,68.313031 98.3574629,68.313031 Z M109.855392,68.4563009 L109.326355,68.455739 L109.018469,71.0636555 L109.705827,71.0636555 C109.921579,71.0636555 110.198644,71.0490732 110.414064,70.8495605 C110.680855,70.5933755 110.783262,69.966004 110.783262,69.5527276 C110.783262,68.5570604 110.298453,68.4636111 109.855392,68.4563009 Z M18.417777,68.298747 L17.8739225,68.298747 L17.5557627,70.9636672 L18.1304389,70.9636672 C19.1256827,70.9636672 19.3102817,70.0088562 19.3102817,69.310893 C19.3102817,68.4130856 18.8999881,68.298747 18.417777,68.298747 Z M92.7040937,68.298747 L92.1602392,68.298747 L91.8420793,70.9636672 L92.4164241,70.9636672 C93.4119993,70.9636672 93.5965983,70.0088562 93.5965983,69.310893 C93.5965983,68.4130856 93.1863047,68.298747 92.7040937,68.298747 Z M67.7915471,68.298747 L67.2476926,68.298747 L66.9295327,70.9636672 L67.5038776,70.9636672 C68.4994528,70.9636672 68.6840518,70.0088562 68.6840518,69.310893 C68.6840518,68.4130856 68.2737581,68.298747 67.7915471,68.298747 Z" id="形状结合" fill="#2A5A73"></path>
                </g>
            </g>
        </g>
    </g>
</svg>