<?xml version="1.0" encoding="UTF-8"?>
<svg width="240px" height="100px" viewBox="0 0 240 100" version="1.1" xmlns="http://www.w3.org/2000/svg" xmlns:xlink="http://www.w3.org/1999/xlink">
    <title>7_Parsiq</title>
    <g id="页面-1" stroke="none" stroke-width="1" fill="none" fill-rule="evenodd">
        <g id="parters" transform="translate(-330.000000, -195.000000)">
            <g id="7_Parsiq" transform="translate(330.000000, 195.000000)">
                <rect id="矩形备份-5" x="0" y="0" width="240" height="100"></rect>
                <g id="rgb_color_logotype_whitespace.07b97397备份" transform="translate(30.000000, 30.000000)" fill="#005CC7" fill-rule="nonzero">
                    <path d="M9.55358434,21.1556813 L9.55360785,26.9341351 L8.40356911,26.9344317 L8.40356911,31.5573843 L13.0051291,31.5573843 L13.0044897,30.4010535 L18.7569569,30.4010535 L18.7569569,40 C8.66058079,39.4229019 0.574663982,31.2995164 4.36071866e-05,21.1564045 L9.55358434,21.1556813 Z M30.2601026,21.1553962 L39.8149068,21.1561815 C39.2403922,31.2993974 31.154431,39.4228977 21.0581307,40 L21.0578001,30.4010535 L26.8095486,30.4010535 L26.8098088,31.5573843 L31.4113686,31.5573843 L31.4113686,26.9344317 L30.2604305,26.9341351 L30.2601026,21.1553962 Z M167.107307,8.09924652 C170.213325,8.09924652 172.952415,9.20310835 174.971866,11.2054305 L175.178193,11.4157638 L175.178193,8.55402853 L179.129114,8.55402853 L179.130435,39.8035518 L175.178193,39.7913779 L175.178193,28.1987848 C173.140881,30.3339993 170.320429,31.5153021 167.107307,31.5153021 C160.506736,31.5153021 155.33642,26.3727002 155.33642,19.8074916 C155.33642,13.2422831 160.506736,8.09924652 167.107307,8.09924652 Z M66.217358,8.09933352 C72.8179287,8.09933352 77.9882438,13.2419353 77.9882438,19.8075786 C77.9882438,26.3727872 72.8179287,31.515389 66.217358,31.515389 C63.1109135,31.515389 60.3726324,30.4119335 58.3532364,28.4096384 L58.1469122,28.1993065 L58.1469122,39.797117 L54.1959904,39.797117 L54.1959904,8.55368068 L58.1469122,8.55368068 L58.1469122,11.415416 C60.1842232,9.28020147 63.0037948,8.09933352 66.217358,8.09933352 Z M133.01479,8.09894221 C136.603805,8.09894221 139.527996,9.76849105 140.886131,12.5768444 L140.980465,12.7793707 L141.319871,13.536761 L137.909972,15.461541 L137.511578,14.4867597 C136.853898,12.8789358 135.17272,11.9189371 133.01479,11.9189371 C130.97704,11.9189371 128.920359,12.8367619 128.920359,14.8876287 C128.920359,16.6411046 130.784226,17.2015387 133.825665,17.970668 C137.291031,18.8471886 141.603809,19.9380567 141.603809,24.7271807 C141.603809,28.7236971 138.141084,31.5154325 133.182072,31.5154325 C128.980874,31.5154325 125.732253,29.6587759 124.440744,26.5365062 L124.3593,26.3310916 L124.083727,25.6054404 L127.549092,23.6150083 L127.910508,24.6850069 C128.546617,26.5706565 130.517456,27.6963072 133.182072,27.6963072 C135.343523,27.6963072 137.652887,26.9163083 137.652887,24.7271807 C137.652887,22.9150092 135.760406,22.3389231 132.671864,21.5489242 C129.240395,20.6710992 124.969437,19.5789268 124.969437,14.8876287 C124.969437,10.9541558 128.352923,8.09894221 133.01479,8.09894221 Z M93.2608125,8.09924652 C96.3442777,8.09924652 99.084673,9.18888852 101.122924,11.1643421 L101.331258,11.3718508 L101.331258,8.55402853 L105.324441,8.55402853 L105.324441,31.0609548 L101.331258,31.0609548 L101.331258,28.2426977 C99.2732572,30.3492166 96.4506042,31.5153021 93.2608125,31.5153021 C86.6602418,31.5153021 81.4899272,26.3727002 81.4899272,19.8074916 C81.4899272,13.2422831 86.6602418,8.09924652 93.2608125,8.09924652 Z M121.783871,8.26446368 L121.783871,12.0840238 L120.78818,12.0843681 C119.316164,12.0994391 114.931018,12.6334279 114.796439,18.3770367 L114.793271,18.6501019 L114.793271,31.0609548 L110.842349,31.0609548 L110.842349,8.55402853 L114.793271,8.55402853 L114.793271,10.507939 C116.230975,9.09006258 118.17824,8.32692206 120.555614,8.26813937 L120.85502,8.26446368 L121.783871,8.26446368 Z M150.350731,8.55368068 L150.350731,31.060607 L146.399809,31.060607 L146.399809,8.55368068 L150.350731,8.55368068 Z M18.7569065,0 L18.7566526,9.59771943 L26.8097853,9.59800451 L26.8098088,8.44262144 L31.4113686,8.44262144 L31.4113686,13.065574 L26.8098088,13.065574 L26.8097853,11.9095399 L18.7566526,11.9092548 L18.757079,21.155741 L27.9592595,21.1553962 L27.9595873,26.9341351 L26.8098088,26.9344317 L26.8095486,28.0895181 L13.0044897,28.0895181 L13.0051291,26.9344317 L11.854451,26.9341351 L11.854451,13.0649229 L13.0051291,13.065574 L13.0051291,8.44262144 L8.40356911,8.44262144 L8.40356911,13.065574 L9.55360785,13.0649229 L9.55358434,18.8441459 L0,18.8443712 C0.574256644,8.70086717 8.66037827,0.577065162 18.7569065,0 Z M66.0918969,11.9188935 C61.6369299,11.9188935 58.1469122,15.3841063 58.1469122,19.8075786 C58.1469122,24.2310509 61.6369299,27.6962637 66.0918969,27.6962637 C70.5473042,27.6962637 74.0373218,24.2310509 74.0373218,19.8075786 C74.0373218,15.3841063 70.5473042,11.9188935 66.0918969,11.9188935 Z M93.4280942,11.9188066 C88.9726872,11.9188066 85.4826695,15.3840194 85.4826695,19.8074916 C85.4826695,24.2313988 88.9726872,27.6961767 93.4280942,27.6961767 C97.8597302,27.6961767 101.331258,24.2313988 101.331258,19.8074916 C101.331258,15.3840194 97.8597302,11.9188066 93.4280942,11.9188066 Z M167.232767,11.9188066 C162.77736,11.9188066 159.287343,15.3840194 159.287343,19.8074916 C159.287343,24.2313988 162.77736,27.6961767 167.232767,27.6961767 C171.688175,27.6961767 175.178193,24.2313988 175.178193,19.8074916 C175.178193,15.3840194 171.688175,11.9188066 167.232767,11.9188066 Z M145.631416,0.2823005 L151.118685,0.298387436 L151.118685,5.59838032 L145.631416,5.59838032 L145.631416,0.2823005 Z" id="Combined-Shape"></path>
                </g>
            </g>
        </g>
    </g>
</svg>