<?xml version="1.0" encoding="UTF-8"?>
<svg width="200px" height="100px" viewBox="0 0 200 100" version="1.1" xmlns="http://www.w3.org/2000/svg" xmlns:xlink="http://www.w3.org/1999/xlink">
    <title>8_Mathwallet</title>
    <g id="页面-1" stroke="none" stroke-width="1" fill="none" fill-rule="evenodd">
        <g id="parters" transform="translate(-660.000000, -195.000000)">
            <g id="8_Mathwallet" transform="translate(660.000000, 195.000000)">
                <rect id="矩形备份-6" x="0" y="0" width="200" height="100"></rect>
                <g id="MathWallet" transform="translate(34.279762, 14.017857)" fill="#000000" fill-rule="nonzero">
                    <path d="M0,70.3547619 L0,54.6464286 L2.93970238,54.6464286 L7.71952381,62.0742262 L12.4993452,54.6464286 L15.4390476,54.6464286 L15.4390476,70.3547619 L12.678869,70.3547619 L12.678869,59.0896429 L7.71952381,66.495 L7.6297619,66.495 L2.71529762,59.1345238 L2.71529762,70.3547619 L0,70.3547619 Z M22.5364286,70.6016072 C20.3148214,70.6016072 18.3400595,69.3225 18.3400595,66.9438095 L18.3400595,66.8989286 C18.3400595,64.3407143 20.3372619,63.0840476 23.2320833,63.0840476 C24.5560714,63.0840476 25.4985714,63.2860119 26.418631,63.5777381 L26.418631,63.2860119 C26.418631,61.6029762 25.386369,60.7053572 23.4789286,60.7053572 C22.1549405,60.7053572 21.1675595,60.9970834 20.0904167,61.4458929 L19.3723214,59.3140476 C20.673869,58.7305953 21.9529762,58.3491072 23.8379762,58.3491072 C25.6107738,58.3491072 26.9347619,58.8203572 27.7650595,59.6730953 C28.6402381,60.5258334 29.0441667,61.7825 29.0441667,63.3308929 L29.0441667,70.3547619 L26.3961905,70.3547619 L26.3961905,68.8736905 C25.5883333,69.838631 24.3541071,70.6016072 22.5364286,70.6016072 Z M23.2994048,68.6268453 C25.0946429,68.6268453 26.4635119,67.5945834 26.4635119,66.0910714 L26.4635119,65.2832143 C25.7678571,65.0139286 24.8477976,64.8119643 23.7706548,64.8119643 C22.0202976,64.8119643 20.9880357,65.5525 20.9880357,66.7867262 L20.9880357,66.8316072 C20.9880357,67.9760714 21.9978571,68.6268453 23.2994048,68.6268453 Z M36.1191071,70.5567262 C34.1219048,70.5567262 32.7081548,69.6815476 32.7081548,67.0784524 L32.7081548,60.84 L31.2046429,60.84 L31.2046429,58.5061905 L32.7081548,58.5061905 L32.7081548,55.2523214 L35.4234524,55.2523214 L35.4234524,58.5061905 L38.61,58.5061905 L38.61,60.84 L35.4234524,60.84 L35.4234524,66.6520834 C35.4234524,67.7067857 35.9620238,68.1331548 36.8820833,68.1331548 C37.4879762,68.1331548 38.0265476,67.9985119 38.565119,67.7292262 L38.565119,69.9508334 C37.8919048,70.3323214 37.151369,70.5567262 36.1191071,70.5567262 Z M41.3314881,70.3547619 L41.3314881,53.9732143 L44.0467857,53.9732143 L44.0467857,60.3238691 C44.8097619,59.2242857 45.9093452,58.2593453 47.7494643,58.2593453 C50.419881,58.2593453 51.9682738,60.0545834 51.9682738,62.7923214 L51.9682738,70.3547619 L49.2529762,70.3547619 L49.2529762,63.6226191 C49.2529762,61.7825 48.3329167,60.7277976 46.7172024,60.7277976 C45.146369,60.7277976 44.0467857,61.827381 44.0467857,63.6675 L44.0467857,70.3547619 L41.3314881,70.3547619 Z M66.4772024,70.4669643 L61.0017262,54.6464286 L63.9863095,54.6464286 L67.733869,66.2930357 L71.593631,54.6015476 L73.9274405,54.6015476 L77.7872024,66.2930357 L81.5347619,54.6464286 L84.4295833,54.6464286 L78.9765476,70.4669643 L76.5754167,70.4669643 L72.7156548,59.1794048 L68.8558929,70.4669643 L66.4772024,70.4669643 Z M88.7443452,70.6016072 C86.5227381,70.6016072 84.5479762,69.3225 84.5479762,66.9438095 L84.5479762,66.8989286 C84.5479762,64.3407143 86.5451786,63.0840476 89.44,63.0840476 C90.7639881,63.0840476 91.7064881,63.2860119 92.6265476,63.5777381 L92.6265476,63.2860119 C92.6265476,61.6029762 91.5942857,60.7053572 89.6868452,60.7053572 C88.3628571,60.7053572 87.3754762,60.9970834 86.2983333,61.4458929 L85.5802381,59.3140476 C86.8817857,58.7305953 88.1608929,58.3491072 90.0458929,58.3491072 C91.8186905,58.3491072 93.1426786,58.8203572 93.9729762,59.6730953 C94.8481548,60.5258334 95.2520833,61.7825 95.2520833,63.3308929 L95.2520833,70.3547619 L92.6041071,70.3547619 L92.6041071,68.8736905 C91.79625,69.838631 90.5620238,70.6016072 88.7443452,70.6016072 Z M89.5073214,68.6268453 C91.3025595,68.6268453 92.6714286,67.5945834 92.6714286,66.0910714 L92.6714286,65.2832143 C91.9757738,65.0139286 91.0557143,64.8119643 89.9785714,64.8119643 C88.2282143,64.8119643 87.1959524,65.5525 87.1959524,66.7867262 L87.1959524,66.8316072 C87.1959524,67.9760714 88.2057738,68.6268453 89.5073214,68.6268453 Z M98.6243452,70.3547619 L98.6243452,53.9732143 L101.339643,53.9732143 L101.339643,70.3547619 L98.6243452,70.3547619 Z M105.003631,70.3547619 L105.003631,53.9732143 L107.718929,53.9732143 L107.718929,70.3547619 L105.003631,70.3547619 Z M116.656429,70.6240476 C113.223036,70.6240476 110.57506,68.1331548 110.57506,64.4753572 L110.57506,64.4304762 C110.57506,61.0419643 112.97619,58.2593453 116.364702,58.2593453 C120.134702,58.2593453 122.042143,61.2214881 122.042143,64.6324405 C122.042143,64.8792857 122.019702,65.126131 121.997262,65.3954167 L113.290357,65.3954167 C113.582083,67.3252976 114.950952,68.4024405 116.70131,68.4024405 C118.025298,68.4024405 118.967798,67.90875 119.910298,66.9886905 L121.503571,68.4024405 C120.381548,69.7488691 118.833155,70.6240476 116.656429,70.6240476 Z M113.267917,63.6001786 L119.349286,63.6001786 C119.169762,61.8498214 118.1375,60.4809524 116.342262,60.4809524 C114.681667,60.4809524 113.514762,61.7600595 113.267917,63.6001786 Z M128.713155,70.5567262 C126.715952,70.5567262 125.302202,69.6815476 125.302202,67.0784524 L125.302202,60.84 L123.79869,60.84 L123.79869,58.5061905 L125.302202,58.5061905 L125.302202,55.2523214 L128.0175,55.2523214 L128.0175,58.5061905 L131.204048,58.5061905 L131.204048,60.84 L128.0175,60.84 L128.0175,66.6520834 C128.0175,67.7067857 128.556071,68.1331548 129.476131,68.1331548 C130.082024,68.1331548 130.620595,67.9985119 131.159167,67.7292262 L131.159167,69.9508334 C130.485952,70.3323214 129.745417,70.5567262 128.713155,70.5567262 Z M86.161376,15.6781566 C84.3993831,13.9161642 84.3993831,11.0594101 86.161376,9.29741779 C87.9233682,7.53542541 90.780122,7.53542541 92.5421142,9.29741779 C94.3041071,11.0594101 94.3041071,13.9161642 92.5421142,15.6781566 C90.780122,17.4401489 87.9233682,17.4401489 86.161376,15.6781566 Z M71.0071212,30.8324111 C69.6856271,29.5109168 69.6856271,27.3683513 71.0071212,26.046857 C72.3286154,24.7253628 74.471181,24.7253628 75.7926751,26.046857 C77.1141692,27.3683513 77.1141692,29.5109168 75.7926751,30.8324111 C74.471181,32.1539054 72.3286154,32.1539054 71.0071212,30.8324111 Z M94.9348918,22.8564877 C93.613397,21.5349934 93.613397,19.3924278 94.9348918,18.0709335 C96.256386,16.7494393 98.3989515,16.7494393 99.7204457,18.0709335 C101.04194,19.3924278 101.04194,21.5349934 99.7204457,22.8564877 C98.3989515,24.1779819 96.256386,24.1779819 94.9348918,22.8564877 Z M86.9589678,30.8324111 C85.6374737,29.5109168 85.6374737,27.3683513 86.9589678,26.046857 C88.2804619,24.7253628 90.4230275,24.7253628 91.7445224,26.046857 C93.0660165,27.3683513 93.0660165,29.5109168 91.7445224,30.8324111 C90.4230275,32.1539054 88.2804619,32.1539054 86.9589678,30.8324111 Z M103.708407,30.0348188 C102.827411,29.1538226 102.827411,27.7254455 103.708407,26.8444494 C104.589404,25.9634532 106.01778,25.9634532 106.898776,26.8444494 C107.779773,27.7254455 107.779773,29.1538226 106.898776,30.0348188 C106.01778,30.9158149 104.589404,30.9158149 103.708407,30.0348188 Z M95.7324836,38.0107422 C94.8514876,37.129746 94.8514876,35.701369 95.7324836,34.8203728 C96.6134797,33.9393767 98.041857,33.9393767 98.9228531,34.8203728 C99.8038492,35.701369 99.8038492,37.129746 98.9228531,38.0107422 C98.041857,38.8917384 96.6134797,38.8917384 95.7324836,38.0107422 Z M78.185452,23.65408 C76.4234598,21.8920876 76.4234598,19.0353336 78.185452,17.2733412 C79.9474449,15.5113488 82.8041987,15.5113488 84.5661909,17.2733412 C86.328183,19.0353336 86.328183,21.8920876 84.5661909,23.65408 C82.8041987,25.4160724 79.9474449,25.4160724 78.185452,23.65408 Z M78.185452,7.70223306 C76.4234598,5.94024068 76.4234598,3.08348666 78.185452,1.32149428 C79.9474449,-0.440498094 82.8041987,-0.440498094 84.5661909,1.32149428 C86.328183,3.08348666 86.328183,5.94024068 84.5661909,7.70223306 C82.8041987,9.46422543 79.9474449,9.46422543 78.185452,7.70223306 Z M70.2095287,15.6781566 C68.4475365,13.9161642 68.4475365,11.0594101 70.2095287,9.29741779 C71.9715208,7.53542541 74.8282755,7.53542541 76.5902676,9.29741779 C78.3522598,11.0594101 78.3522598,13.9161642 76.5902676,15.6781566 C74.8282755,17.4401489 71.9715208,17.4401489 70.2095287,15.6781566 Z M54.183542,15.6781566 C52.4215497,13.9161642 52.4215497,11.0594101 54.183542,9.29741779 C55.9455344,7.53542541 58.8022887,7.53542541 60.5642808,9.29741779 C62.326273,11.0594101 62.326273,13.9161642 60.5642808,15.6781566 C58.8022887,17.4401489 55.9455344,17.4401489 54.183542,15.6781566 Z M39.0292875,30.8324111 C37.7077932,29.5109168 37.7077932,27.3683513 39.0292875,26.046857 C40.3507817,24.7253628 42.4933472,24.7253628 43.8148415,26.046857 C45.1363358,27.3683513 45.1363358,29.5109168 43.8148415,30.8324111 C42.4933472,32.1539054 40.3507817,32.1539054 39.0292875,30.8324111 Z M62.9570577,22.8564877 C61.6355636,21.5349934 61.6355636,19.3924278 62.9570577,18.0709335 C64.2785518,16.7494393 66.4211174,16.7494393 67.7426115,18.0709335 C69.0641064,19.3924278 69.0641064,21.5349934 67.7426115,22.8564877 C66.4211174,24.1779819 64.2785518,24.1779819 62.9570577,22.8564877 Z M54.9811344,30.8324111 C53.6596401,29.5109168 53.6596401,27.3683513 54.9811344,26.046857 C56.3026286,24.7253628 58.4451942,24.7253628 59.7666883,26.046857 C61.0881824,27.3683513 61.0881824,29.5109168 59.7666883,30.8324111 C58.4451942,32.1539054 56.3026286,32.1539054 54.9811344,30.8324111 Z M23.8750328,30.0348188 C22.9940367,29.1538226 22.9940367,27.7254455 23.8750328,26.8444494 C24.756029,25.9634532 26.1844061,25.9634532 27.0654022,26.8444494 C27.9463984,27.7254455 27.9463984,29.1538226 27.0654022,30.0348188 C26.1844061,30.9158149 24.756029,30.9158149 23.8750328,30.0348188 Z M31.8509564,38.0107422 C30.9699601,37.129746 30.9699601,35.701369 31.8509564,34.8203728 C32.7319525,33.9393767 34.1603295,33.9393767 35.0413257,34.8203728 C35.9223219,35.701369 35.9223219,37.129746 35.0413257,38.0107422 C34.1603295,38.8917384 32.7319525,38.8917384 31.8509564,38.0107422 Z M63.7546503,38.0107422 C62.8736542,37.129746 62.8736542,35.701369 63.7546503,34.8203728 C64.6356464,33.9393767 66.0640237,33.9393767 66.9450198,34.8203728 C67.8260158,35.701369 67.8260158,37.129746 66.9450198,38.0107422 C66.0640237,38.8917384 64.6356464,38.8917384 63.7546503,38.0107422 Z M31.0533639,22.8564877 C29.7318697,21.5349934 29.7318697,19.3924278 31.0533639,18.0709335 C32.3748582,16.7494393 34.5174238,16.7494393 35.8389181,18.0709335 C37.1604123,19.3924278 37.1604123,21.5349934 35.8389181,22.8564877 C34.5174238,24.1779819 32.3748582,24.1779819 31.0533639,22.8564877 Z M46.2076186,23.65408 C44.4456262,21.8920876 44.4456262,19.0353336 46.2076186,17.2733412 C47.9696109,15.5113488 50.826365,15.5113488 52.5883573,17.2733412 C54.3503497,19.0353336 54.3503497,21.8920876 52.5883573,23.65408 C50.826365,25.4160724 47.9696109,25.4160724 46.2076186,23.65408 Z M46.2076186,7.70223306 C44.4456262,5.94024068 44.4456262,3.08348666 46.2076186,1.32149428 C47.9696109,-0.440498094 50.826365,-0.440498094 52.5883573,1.32149428 C54.3503497,3.08348666 54.3503497,5.94024068 52.5883573,7.70223306 C50.826365,9.46422543 47.9696109,9.46422543 46.2076186,7.70223306 Z M38.231695,15.6781566 C36.4697027,13.9161642 36.4697027,11.0594101 38.231695,9.29741779 C39.9936874,7.53542541 42.8504415,7.53542541 44.6124338,9.29741779 C46.3744262,11.0594101 46.3744262,13.9161642 44.6124338,15.6781566 C42.8504415,17.4401489 39.9936874,17.4401489 38.231695,15.6781566 Z" id="Combined-Shape"></path>
                </g>
            </g>
        </g>
    </g>
</svg>