<?xml version="1.0" encoding="UTF-8"?>
<svg width="160px" height="100px" viewBox="0 0 160 100" version="1.1" xmlns="http://www.w3.org/2000/svg" xmlns:xlink="http://www.w3.org/1999/xlink">
    <title>9_1Sol</title>
    <defs>
        <linearGradient x1="50%" y1="100%" x2="50%" y2="0.0633345633%" id="linearGradient-1">
            <stop stop-color="#01FFAC" stop-opacity="0.99486451" offset="0%"></stop>
            <stop stop-color="#CE07FF" stop-opacity="0.502157998" offset="99.9683277%"></stop>
        </linearGradient>
        <linearGradient x1="50%" y1="100%" x2="50%" y2="0.253097679%" id="linearGradient-2">
            <stop stop-color="#01FFAC" stop-opacity="0.503223339" offset="0%"></stop>
            <stop stop-color="#CE07FF" offset="99.9683277%"></stop>
        </linearGradient>
        <linearGradient x1="50%" y1="100%" x2="50%" y2="0.0316722973%" id="linearGradient-3">
            <stop stop-color="#01FFAC" stop-opacity="0.99486451" offset="0%"></stop>
            <stop stop-color="#CE07FF" stop-opacity="0.502458479" offset="100%"></stop>
        </linearGradient>
        <path d="M36.2904846,58.9944112 L36.2904846,57.2854268 L33.8881408,56.992458 L33.8881408,44.7756612 L28.6147033,45.7326924 L28.6147033,47.3635518 L31.0463439,47.3635518 L31.0463439,56.992458 L28.6440002,57.2854268 L28.6440002,58.9944112 L36.2904846,58.9944112 Z M43.1947814,59.1994893 C44.2494689,59.1994893 45.1706929,59.0399841 45.9584533,58.7209737 C46.7462137,58.4019633 47.3581929,57.9478617 47.7943908,57.358669 C48.2305887,56.7694763 48.4486877,56.0712341 48.4486877,55.2639424 C48.4486877,54.0985778 48.0434142,53.1578226 47.2328674,52.4416768 C46.4223205,51.725531 45.2325418,51.1493591 43.6635314,50.7131612 C42.9343648,50.4722758 42.3630757,50.2460388 41.9496642,50.0344502 C41.5362528,49.8228617 41.2416564,49.5982523 41.0658752,49.3606221 C40.8900939,49.1229919 40.8022033,48.8446716 40.8022033,48.5256612 C40.8022033,48.1545674 40.9031148,47.8388122 41.1049377,47.5783955 C41.3067606,47.3179789 41.5818257,47.1194112 41.930133,46.9826924 C42.2784403,46.8459737 42.6804585,46.7776143 43.1361877,46.7776143 C43.6700418,46.7776143 44.1469299,46.836208 44.5668517,46.9533955 C44.9867736,47.070583 45.3204325,47.2073018 45.5678283,47.3635518 L45.5678283,47.3635518 L45.9389221,49.3166768 L48.0775939,49.3166768 L48.0775939,46.1135518 C47.4656148,45.6252705 46.7380757,45.2444112 45.8949767,44.9709737 C45.0518778,44.6975362 44.0834533,44.5673278 42.9897033,44.5803487 C42.00012,44.5933695 41.1277241,44.7691508 40.3725158,45.1076924 C39.6173075,45.4462341 39.0264872,45.9101013 38.6000549,46.499294 C38.1736226,47.0884867 37.9604064,47.7671976 37.9604064,48.5354268 C37.9604064,49.3101664 38.1443257,49.9726013 38.5121642,50.5227315 C38.8800028,51.0728617 39.4333882,51.5448669 40.1723205,51.9387471 C40.9112528,52.3326273 41.84387,52.695583 42.9701721,53.0276143 C43.6212137,53.2294372 44.1371642,53.4393982 44.5180236,53.6574971 C44.898883,53.8755961 45.1723205,54.1164815 45.3383361,54.3801534 C45.5043517,54.6438252 45.5873596,54.944932 45.5873596,55.2834737 C45.5873596,55.6415466 45.4945861,55.952419 45.3090392,56.2160909 C45.1234924,56.4797627 44.8533101,56.6832133 44.4984924,56.8264424 C44.1436747,56.9696716 43.7091043,57.0412862 43.1947814,57.0412862 C42.5893127,57.0412862 42.0294168,56.9647888 41.5150939,56.811794 C41.000771,56.6587992 40.5971252,56.4586039 40.3041564,56.211208 L40.3041564,56.211208 L40.0014221,54.1897237 L37.7943908,54.1897237 L37.7943908,57.6272237 C38.6277241,58.2066508 39.4740783,58.6135518 40.3334533,58.8479268 C41.1928283,59.0823018 42.1466043,59.1994893 43.1947814,59.1994893 Z M54.6791564,59.1994893 C55.7143127,59.1994893 56.6029846,58.9716247 57.3451721,58.5158955 C58.0873596,58.0601664 58.657021,57.4270284 59.0541564,56.6164815 C59.4512918,55.8059346 59.6498596,54.8733174 59.6498596,53.8186299 L59.6498596,53.8186299 L59.6498596,53.6135518 C59.6498596,52.5588643 59.4512918,51.6278747 59.0541564,50.820583 C58.657021,50.0132914 58.0873596,49.3801534 57.3451721,48.921169 C56.6029846,48.4621846 55.7078023,48.2326924 54.6596252,48.2326924 C53.6244689,48.2326924 52.7341694,48.4621846 51.9887267,48.921169 C51.243284,49.3801534 50.671995,50.014919 50.2748596,50.8254659 C49.8777241,51.6360127 49.6791564,52.5653747 49.6791564,53.6135518 L49.6791564,53.6135518 L49.6791564,53.8186299 C49.6791564,54.8733174 49.8777241,55.8059346 50.2748596,56.6164815 C50.671995,57.4270284 51.2449116,58.0601664 51.9936096,58.5158955 C52.7423075,58.9716247 53.6374898,59.1994893 54.6791564,59.1994893 Z M54.6791564,57.0119893 C54.1778543,57.0119893 53.7676981,56.8801534 53.4486877,56.6164815 C53.1296773,56.3528096 52.8969299,55.9800883 52.7504455,55.4983174 C52.6039611,55.0165466 52.5307189,54.4566508 52.5307189,53.8186299 L52.5307189,53.8186299 L52.5307189,53.6135518 C52.5307189,52.9885518 52.6039611,52.436794 52.7504455,51.9582784 C52.8969299,51.4797627 53.1296773,51.1054138 53.4486877,50.8352315 C53.7676981,50.5650492 54.1713439,50.429958 54.6596252,50.429958 C55.1609273,50.429958 55.5694559,50.5650492 55.8852111,50.8352315 C56.2009663,51.1054138 56.4337137,51.4797627 56.5834533,51.9582784 C56.7331929,52.436794 56.8080627,52.9885518 56.8080627,53.6135518 L56.8080627,53.6135518 L56.8080627,53.8186299 C56.8080627,54.4566508 56.7331929,55.014919 56.5834533,55.4934346 C56.4337137,55.9719502 56.2025939,56.3446716 55.8900939,56.6115987 C55.5775939,56.8785258 55.1739481,57.0119893 54.6791564,57.0119893 Z M66.1732971,58.9944112 L66.1732971,57.2854268 L64.7963439,56.992458 L64.7963439,43.7600362 L60.4213439,43.7600362 L60.4213439,45.4787862 L61.9447814,45.7717549 L61.9447814,56.992458 L60.5678283,57.2854268 L60.5678283,58.9944112 L66.1732971,58.9944112 Z" id="path-4"></path>
    </defs>
    <g id="页面-1" stroke="none" stroke-width="1" fill="none" fill-rule="evenodd">
        <g id="parters" transform="translate(-950.000000, -195.000000)">
            <g id="9_1Sol" transform="translate(950.000000, 195.000000)">
                <rect id="矩形备份-7" x="0" y="0" width="160" height="100"></rect>
                <g id="logo-黑底备份" transform="translate(33.000000, 1.000000)" fill-rule="nonzero">
                    <rect id="矩形" fill="#000000" x="17" y="20" width="64" height="64" rx="32"></rect>
                    <g id="编组">
                        <path d="M53.2212783,15.0331878 L82.2610602,36.1404676 C85.0934841,38.1991871 86.278667,41.8472667 85.1970249,45.1775823 L74.1034707,79.3340184 C73.0214279,82.6655679 69.917028,84.9213319 66.4141665,84.9213319 L30.5217112,84.9213319 C27.0188496,84.9213319 23.9144498,82.6655679 22.832407,79.3340184 L11.7388527,45.1775823 C10.6572107,41.8472667 11.8423936,38.1991871 14.6748175,36.1404676 L43.7145994,15.0331878 C46.5487217,12.9732339 50.387156,12.9732339 53.2212783,15.0331878 Z M48.4968381,20.6370919 C31.0997402,20.6370919 16.9966059,34.7460037 16.9966059,52.1502285 C16.9966059,69.5544533 31.0997402,83.6633651 48.4968381,83.6633651 C65.893936,83.6633651 79.9970704,69.5544533 79.9970704,52.1502285 C79.9970704,34.7460037 65.893936,20.6370919 48.4968381,20.6370919 Z" id="形状结合" fill="url(#linearGradient-1)" opacity="0.599652"></path>
                        <path d="M54.1847233,15.3223169 L83.2245052,36.4295967 C86.0569292,38.4883162 87.242112,42.1363959 86.16047,45.4667114 L75.0669157,79.6231475 C73.9848729,82.9546971 70.8804731,85.210461 67.3776115,85.210461 L31.4851563,85.210461 C27.9822947,85.210461 24.8778948,82.9546971 23.795852,79.6231475 L12.7022978,45.4667114 C11.6206558,42.1363959 12.8058386,38.4883162 15.6382626,36.4295967 L44.6780444,15.3223169 C47.5121667,13.262363 51.3506011,13.262363 54.1847233,15.3223169 Z M49.4602832,20.9262211 C32.0631853,20.9262211 17.9600509,35.0351329 17.9600509,52.4393577 C17.9600509,69.8435824 32.0631853,83.9524942 49.4602832,83.9524942 C66.8573811,83.9524942 80.9605154,69.8435824 80.9605154,52.4393577 C80.9605154,35.0351329 66.8573811,20.9262211 49.4602832,20.9262211 Z" id="形状结合" fill="url(#linearGradient-2)" transform="translate(49.431384, 49.493906) rotate(15.000000) translate(-49.431384, -49.493906) "></path>
                        <path d="M54.7628353,15.3223691 L83.8026172,36.4296489 C86.6350412,38.4883684 87.820224,42.1364481 86.738582,45.4667636 L75.6450277,79.6231997 C74.5629849,82.9547493 71.4585851,85.2105132 67.9557235,85.2105132 L32.0632683,85.2105132 C28.5604067,85.2105132 25.4560069,82.9547493 24.3739641,79.6231997 L13.2804098,45.4667636 C12.1987678,42.1364481 13.3839506,38.4883684 16.2163746,36.4296489 L45.2561565,15.3223691 C48.0902787,13.2624152 51.9287131,13.2624152 54.7628353,15.3223691 Z M50.0383952,20.9262733 C32.6412973,20.9262733 18.538163,35.0351851 18.538163,52.4394099 C18.538163,69.8436346 32.6412973,83.9525464 50.0383952,83.9525464 C67.4354931,83.9525464 81.5386274,69.8436346 81.5386274,52.4394099 C81.5386274,35.0351851 67.4354931,20.9262733 50.0383952,20.9262733 Z" id="形状结合" fill="url(#linearGradient-3)" transform="translate(50.009496, 49.493958) rotate(30.000000) translate(-50.009496, -49.493958) "></path>
                    </g>
                    <g id="1Sol">
                        <use fill="#000000" xlink:href="#path-4"></use>
                        <use fill="#FFFFFF" xlink:href="#path-4"></use>
                    </g>
                </g>
            </g>
        </g>
    </g>
</svg>