<?xml version="1.0" encoding="UTF-8"?>
<svg width="22px" height="22px" viewBox="0 0 22 22" version="1.1" xmlns="http://www.w3.org/2000/svg" xmlns:xlink="http://www.w3.org/1999/xlink">
    <title>telegrtam</title>
    <g id="页面-1" stroke="none" stroke-width="1" fill="none" fill-rule="evenodd">
        <g id="Home" transform="translate(-1553.000000, -3944.000000)" fill="#EEF2F6">
            <g id="telegrtam" transform="translate(1553.000000, 3944.000000)">
                <path d="M21.9669826,1.89020303 C22.0013688,1.97991335 22.0091809,2.077631 21.9894843,2.17166501 L18.2504505,20.0222749 C18.1938376,20.2925518 17.9288411,20.4657607 17.6585642,20.4091478 C17.5927506,20.3953623 17.5303938,20.3684435 17.475224,20.3300018 L11.7950349,16.3720996 L8.85250193,19.187087 C8.65296313,19.3779767 8.33645829,19.3709652 8.14556859,19.1714264 C8.09419115,19.1177211 8.05543273,19.0532374 8.03211355,18.9826674 L5.94888641,12.678278 L0.370512508,10.568022 C0.112232983,10.4703169 -0.0179382582,10.1817343 0.0797669026,9.92345475 C0.130235132,9.79004408 0.235279478,9.68453912 0.368468049,9.63348766 L21.3211494,1.6022804 C21.578999,1.50344611 21.8681484,1.63235347 21.9669826,1.89020303 Z M17.86801,5.17280303 L7.04724861,12.1703381 L8.45092183,17.08856 L8.98663642,13.8010483 L17.86801,5.17280303 Z" id="形状结合"></path>
            </g>
        </g>
    </g>
</svg>