<?xml version="1.0" encoding="UTF-8"?>
<svg width="22px" height="22px" viewBox="0 0 22 22" version="1.1" xmlns="http://www.w3.org/2000/svg" xmlns:xlink="http://www.w3.org/1999/xlink">
    <title>twitter</title>
    <defs>
        <filter id="filter-1">
            <feColorMatrix in="SourceGraphic" type="matrix" values="0 0 0 0 0.933333 0 0 0 0 0.949020 0 0 0 0 0.964706 0 0 0 1.000000 0"></feColorMatrix>
        </filter>
    </defs>
    <g id="页面-1" stroke="none" stroke-width="1" fill="none" fill-rule="evenodd">
        <g id="Home" transform="translate(-1283.000000, -3944.000000)">
            <g id="twitter" transform="translate(1283.000000, 3944.000000)" filter="url(#filter-1)">
                <g transform="translate(0.500000, 2.500000)">
                    <path d="M20.3777093,1.97113199 C19.8010968,2.81565429 19.1032083,3.53504175 18.2840437,4.12929438 C18.2928638,4.24946792 18.2972738,4.43027948 18.2972738,4.67172906 C18.2972738,5.79187874 18.1335512,6.90927213 17.8061058,8.02390925 C17.4786605,9.13854636 16.9814287,10.2085319 16.3144105,11.2338657 C15.6473922,12.2591996 14.8530341,13.1660137 13.9313361,13.954308 C13.0096382,14.7426023 11.8983086,15.3715839 10.5973474,15.841253 C9.29638613,16.3109221 7.90557037,16.5457566 6.42490007,16.5457566 C4.09088741,16.5457566 1.95477522,15.9211849 0.0165634958,14.6720417 C0.317548595,14.7062195 0.653262743,14.7233084 1.02370594,14.7233084 C2.96191768,14.7233084 4.68899884,14.1290557 6.20494942,12.9405505 C5.30089161,12.9229103 4.49109837,12.6450779 3.7755697,12.1070533 C3.06004102,11.5690286 2.56887303,10.8821652 2.30206572,10.046463 C2.58651317,10.0894608 2.84946169,10.1109598 3.09091128,10.1109598 C3.46135448,10.1109598 3.82738764,10.0635519 4.18901076,9.96873604 C3.22431493,9.77028433 2.42554678,9.29014143 1.79270632,8.52830734 C1.15986585,7.76647326 0.843445622,6.88170936 0.843445622,5.87401567 L0.843445622,5.82274897 C1.42887818,6.1501943 2.05785986,6.32659582 2.73039067,6.35195353 C2.16149576,5.97269025 1.70946685,5.47766348 1.37430395,4.8668732 C1.03914105,4.25608293 0.871008354,3.59292345 0.869905857,2.87739478 C0.869905857,2.11886822 1.0595375,1.41712091 1.43880077,0.772152852 C2.48067227,2.05547394 3.74910947,3.08246156 5.24411237,3.85311571 C6.73911528,4.62376986 8.33885659,5.05209481 10.0433363,5.13809055 C9.97498071,4.81064522 9.94080292,4.49201997 9.94080292,4.18221481 C9.94080292,3.02788735 10.3476289,2.0438976 11.161281,1.23024557 C11.974933,0.416593539 12.9589227,0.00976752266 14.1132502,0.00976752266 C15.3193956,0.00976752266 16.3359094,0.449117565 17.1627915,1.32781765 C18.1021297,1.14700608 18.9852398,0.811291934 19.8121219,0.320675204 C19.4934967,1.31072876 18.8821551,2.07752413 17.9780973,2.62106131 C18.7796217,2.53506557 19.5805949,2.31952496 20.3810168,1.97443948 L20.3777093,1.97113199 Z" id="路径" fill="#000000" fill-rule="nonzero"></path>
                </g>
            </g>
        </g>
    </g>
</svg>