<svg id="YIN_Logo" data-name="YIN Logo" xmlns="http://www.w3.org/2000/svg" width="194.844" height="75.438" viewBox="0 0 194.844 75.438">
  <defs>
    <style>
      .cls-1 {
        fill: #ebeef1;
        fill-rule: evenodd;
      }
    </style>
  </defs>
  <path id="YIN_Words" data-name="YIN Words" class="cls-1" d="M288.712,117.212V102.876L303.945,87.71a9.574,9.574,0,1,0-13.689-13.129L278.111,86.673c0.029-.08.054-0.161,0.082-0.241A33.607,33.607,0,0,0,271.1,97.771a23.117,23.117,0,0,0-1.579,7.674l-0.014-.028V117.2A38.489,38.489,0,1,1,288.712,117.212Zm-9.583-74.319a37.207,37.207,0,0,0-37.157,41.164,18.809,18.809,0,0,0,23.314,14.4l-0.063-.066L254.217,87.434a9.538,9.538,0,0,1-1.035-1.031l-0.09-.089,0.007-.007a9.548,9.548,0,0,1,7.367-15.684,9.585,9.585,0,0,1,6.154,2.223l0.006-.006,0.085,0.085a9.6,9.6,0,0,1,1.044,1.039l10.917,10.869a18.928,18.928,0,0,0,.577-4.633,18.642,18.642,0,0,1,37.21-1.735A37.293,37.293,0,0,0,279.129,42.893Zm18.732,32.356a5.335,5.335,0,1,1-5.346,5.335A5.341,5.341,0,0,1,297.861,75.249Zm-37.137,0a5.335,5.335,0,1,1-5.357,5.335A5.346,5.346,0,0,1,260.724,75.249Z" transform="translate(-240.625 -41.781)"/>
  <path id="YIN_Icon" data-name="YIN Icon" class="cls-1" d="M355.915,82.7a2.307,2.307,0,0,1,.35-1.2,14.389,14.389,0,0,1,.852-1.253l15.238-20.514h-7.521a8.146,8.146,0,0,0-3.648.779,6.566,6.566,0,0,0-2.615,2.366L352.253,71.4a5,5,0,0,0-.448.738c-0.111.232-.2,0.45-0.279,0.654-0.075.223-.14,0.437-0.2,0.64-0.056-.2-0.121-0.418-0.2-0.64a7.043,7.043,0,0,0-.279-0.654,5.089,5.089,0,0,0-.448-0.738l-6.346-8.573a7.372,7.372,0,0,0-6.235-3.09h-7.465L345.57,80.193a15.182,15.182,0,0,1,.839,1.309,2.452,2.452,0,0,1,.364,1.2V99.622h9.142V82.7Zm31.342-22.964H382.3c-4.641,0-4.209,4.231-4.209,4.6v35.29h9.17V59.734Zm48.2,0h-9.115V84.925a2.5,2.5,0,0,0-.084-0.418,8.153,8.153,0,0,0-.252-0.793q-0.166-.46-0.391-0.989a5.44,5.44,0,0,0-.531-0.974L411.078,61.32a3.287,3.287,0,0,0-1.593-1.2,6.724,6.724,0,0,0-2.377-.39h-9V99.622h9.115V72.037l19.152,27.585h9.087V59.734Z" transform="translate(-240.625 -41.781)"/>
</svg>
