<svg xmlns="http://www.w3.org/2000/svg" viewBox="0 0 391.45 133.75"><defs><style>.cls-1{fill:#e4ff02;}.cls-2{fill:#fff;}</style></defs><title>资源 20</title><g id="图层_2" data-name="图层 2"><g id="图层_1-2" data-name="图层 1"><path class="cls-1" d="M65.93,45.29,99.07,26.15a3.76,3.76,0,0,0,0-6.51L65.93.51a3.76,3.76,0,0,0-5.64,3.25V42a3.76,3.76,0,0,0,5.64,3.26"/><path class="cls-2" d="M114.93,35.31l-49,28.29a3.76,3.76,0,0,0,0,6.51l49,28.33a3.75,3.75,0,0,0,5.63-3.25V38.56a3.75,3.75,0,0,0-5.63-3.25"/><path class="cls-2" d="M60.29,91.72V130a3.76,3.76,0,0,0,5.64,3.25l33.14-19.13a3.76,3.76,0,0,0,0-6.51L65.93,88.46a3.76,3.76,0,0,0-5.64,3.26"/><path class="cls-2" d="M38.8,9.67,4.85,29.26A9.72,9.72,0,0,0,0,37.67V96.08a9.72,9.72,0,0,0,4.85,8.41L38.8,124.08a3.75,3.75,0,0,0,5.63-3.25V12.92A3.75,3.75,0,0,0,38.8,9.67"/><polygon class="cls-2" points="159.02 92.9 162.46 92.9 173.12 108.81 173.18 108.81 173.18 92.9 175.8 92.9 175.8 112.26 172.47 112.26 161.7 96.35 161.64 96.35 161.64 112.26 159.02 112.26 159.02 92.9"/><polygon class="cls-2" points="180.78 92.9 192.94 92.9 192.94 95.36 183.4 95.36 183.4 101.43 192.28 101.43 192.28 103.89 183.4 103.89 183.4 112.26 180.78 112.26 180.78 92.9"/><polygon class="cls-2" points="200.51 95.36 194.28 95.36 194.28 92.9 209.37 92.9 209.37 95.36 203.14 95.36 203.14 112.26 200.51 112.26 200.51 95.36"/><polygon class="cls-2" points="217.29 92.9 220.03 92.9 224.31 108.38 224.36 108.38 228.91 92.9 231.92 92.9 236.47 108.38 236.53 108.38 240.8 92.9 243.54 92.9 237.91 112.26 235.12 112.26 230.44 96.46 230.39 96.46 225.74 112.26 222.95 112.26 217.29 92.9"/><path class="cls-2" d="M254.94,112.75a10.45,10.45,0,0,1-4.08-.78,9.31,9.31,0,0,1-3.18-2.15,9.76,9.76,0,0,1-2.08-3.22,11.15,11.15,0,0,1,0-8,9.76,9.76,0,0,1,2.08-3.22,9.46,9.46,0,0,1,3.18-2.15,11,11,0,0,1,8.15,0,9.46,9.46,0,0,1,3.18,2.15,9.76,9.76,0,0,1,2.08,3.22,11.15,11.15,0,0,1,0,8,9.76,9.76,0,0,1-2.08,3.22A9.31,9.31,0,0,1,259,112a10.43,10.43,0,0,1-4.07.78m0-2.46a6.94,6.94,0,0,0,3-.62,7,7,0,0,0,3.77-4.1,8.86,8.86,0,0,0,0-6,7.31,7.31,0,0,0-9.78-4.1,7.23,7.23,0,0,0-2.3,1.65,7.12,7.12,0,0,0-1.47,2.45,8.86,8.86,0,0,0,0,6,7.12,7.12,0,0,0,1.47,2.45,7.23,7.23,0,0,0,2.3,1.65,7,7,0,0,0,3,.62"/><path class="cls-2" d="M268.8,92.9h6.8a7.88,7.88,0,0,1,3.06.51,5.33,5.33,0,0,1,1.9,1.28,4.34,4.34,0,0,1,1,1.75,7.08,7.08,0,0,1,.28,1.88,5,5,0,0,1-.33,1.79,5.23,5.23,0,0,1-.94,1.55,5.39,5.39,0,0,1-1.51,1.18,5.14,5.14,0,0,1-2,.59l5.49,8.83h-3.28l-4.92-8.53h-2.92v8.53H268.8Zm2.62,8.53h3.44a9.64,9.64,0,0,0,1.52-.12,4,4,0,0,0,1.34-.45,2.43,2.43,0,0,0,.94-.94,3.74,3.74,0,0,0,0-3.2,2.45,2.45,0,0,0-.94-1,4.5,4.5,0,0,0-1.34-.45,9.64,9.64,0,0,0-1.52-.12h-3.44Z"/><polygon class="cls-2" points="285.5 92.9 288.12 92.9 288.12 109.8 297 109.8 297 112.26 285.5 112.26 285.5 92.9"/><path class="cls-2" d="M299.25,92.9H306a12.5,12.5,0,0,1,3.59.47,9.6,9.6,0,0,1,2.68,1.24,7.9,7.9,0,0,1,1.89,1.79,10.19,10.19,0,0,1,1.19,2.08,10.75,10.75,0,0,1,.63,2.13,12,12,0,0,1,.19,2,9.68,9.68,0,0,1-.69,3.6,9,9,0,0,1-2,3.08,9.88,9.88,0,0,1-3.32,2.18,12,12,0,0,1-4.58.82h-6.31Zm2.62,16.9h3.31a10.92,10.92,0,0,0,3.16-.45A7.73,7.73,0,0,0,311,108a6.56,6.56,0,0,0,1.77-2.25,7.14,7.14,0,0,0,.66-3.16,9.42,9.42,0,0,0-.3-2.17A6.48,6.48,0,0,0,311.94,98a6.7,6.7,0,0,0-2.31-1.9,8.15,8.15,0,0,0-3.82-.78h-3.94Z"/><polygon class="cls-2" points="159.02 21 171.74 21 171.74 44.99 194.18 21 210.82 21 185.12 47.84 213.03 78.76 195.24 78.76 171.74 51.35 171.74 78.76 159.02 78.76 159.02 21"/><path class="cls-2" d="M236.44,21H247l25.13,57.76H257.73l-5-12.24H230.32l-4.81,12.24h-14Zm4.89,16.81-7,17.94h14.11Z"/><polygon class="cls-2" points="278.37 21 291.1 21 291.1 44.99 313.54 21 330.18 21 304.48 47.84 332.38 78.76 314.6 78.76 291.1 51.35 291.1 78.76 278.37 78.76 278.37 21"/><path class="cls-2" d="M355.8,21h10.52l25.13,57.76H377.09l-5-12.24H349.68l-4.82,12.24h-14Zm4.89,16.81-7,17.94h14.12Z"/><path class="cls-1" d="M330.83,106.91a5.84,5.84,0,1,1-5.84-5.84,5.84,5.84,0,0,1,5.84,5.84"/></g></g></svg>