<svg width="172" height="33" viewBox="0 0 172 33" fill="none" xmlns="http://www.w3.org/2000/svg">
<path fill-rule="evenodd" clip-rule="evenodd" d="M16.5001 7.4585L10.0914 13.8669L6.36246 10.1379L16.5001 0L26.6411 10.1413L22.9121 13.8703L16.5001 7.4585ZM3.72911 12.7705L7.45804 16.4994L3.72893 20.2285L0 16.4996L3.72911 12.7705ZM10.0914 19.1331L16.5001 25.5414L22.9118 19.1299L26.6429 22.8568L26.6411 22.8589L16.5001 32.9999L6.36217 22.8623L6.35695 22.8571L10.0914 19.1331ZM33.0004 16.5013L29.2713 20.2304L25.5424 16.5015L29.2715 12.7724L33.0004 16.5013ZM20.2825 16.498H20.284L16.5001 12.714L13.7036 15.5104H13.7034L13.3823 15.8318L12.7195 16.4946L12.7143 16.4998L12.7195 16.5053L16.5001 20.2859L20.284 16.5019L20.2859 16.4998L20.2825 16.498ZM46.9242 7.9963H38.8138V25.4955H47.1246C48.1059 25.4955 49.0002 25.3956 49.8071 25.1957C50.6141 24.9956 51.3045 24.6958 51.8787 24.2957C52.4529 23.8956 52.8939 23.3955 53.2017 22.7957C53.5095 22.1955 53.6633 21.4957 53.6633 20.6955V20.6457C53.6633 19.4793 53.3727 18.5668 52.7922 17.9082C52.2115 17.2498 51.415 16.7293 50.4032 16.3457C50.7178 16.1794 51.0115 15.9792 51.285 15.7457C51.5581 15.5127 51.7984 15.2418 52.0051 14.9333C52.2123 14.6249 52.3781 14.2796 52.5022 13.8959C52.6265 13.5128 52.6883 13.071 52.6883 12.5711V12.521C52.6883 11.338 52.2892 10.3462 51.4909 9.54607C50.4592 8.51289 48.9371 7.9963 46.9242 7.9963ZM48.1382 14.6335C47.6386 14.9254 46.9635 15.0709 46.1133 15.0709H42.5634V11.3711H46.3633C47.1796 11.3711 47.8046 11.5254 48.2381 11.8337C48.6713 12.1423 48.8881 12.588 48.8881 13.1711V13.2211C48.8881 13.8709 48.6382 14.3419 48.1382 14.6335ZM49.1383 21.6586C48.6546 21.9672 47.9884 22.1209 47.1384 22.1209V22.1212H42.5634V18.2713H47.0133C48.0134 18.2713 48.7382 18.4423 49.1884 18.7834C49.6382 19.1254 49.8634 19.5878 49.8634 20.1711V20.2209C49.8634 20.8709 49.6215 21.3502 49.1383 21.6586ZM58.4935 7.9963H62.3437V25.496H58.4935V7.9963ZM71.7244 7.9963H68.175V25.496H71.9746V14.3713L80.4496 25.496H83.7243V7.9963H79.9245V18.7712L71.7244 7.9963ZM95.3801 7.87123H98.9298L106.43 25.4958H102.405L100.805 21.571H93.405L91.8052 25.4958H87.8797L95.3801 7.87123ZM99.43 18.1707L97.1048 12.496L94.7804 18.1707H99.43ZM114.136 7.9963H110.586V25.496H114.386V14.3713L122.861 25.496H126.136V7.9963H122.336V18.7712L114.136 7.9963ZM139.991 25.7957C138.707 25.7957 137.516 25.5622 136.416 25.0959C135.316 24.6296 134.366 23.9918 133.566 23.1833C132.766 22.3751 132.141 21.4209 131.691 20.3209C131.241 19.2208 131.016 18.0458 131.016 16.7958V16.746C131.016 15.496 131.241 14.3254 131.691 13.2336C132.141 12.142 132.766 11.1837 133.566 10.3587C134.366 9.5338 135.324 8.8835 136.441 8.40862C137.557 7.93373 138.791 7.69628 140.141 7.69628C140.957 7.69628 141.703 7.76327 142.378 7.8962C143.053 8.02991 143.665 8.21287 144.216 8.44615C144.766 8.67968 145.274 8.963 145.741 9.2961C146.207 9.62972 146.64 9.99618 147.041 10.3963L144.591 13.2211C143.907 12.6047 143.211 12.1209 142.503 11.7711C141.795 11.4214 140.999 11.2462 140.116 11.2462C139.382 11.2462 138.703 11.388 138.079 11.6713C137.454 11.9546 136.916 12.3461 136.466 12.846C136.016 13.3459 135.666 13.9253 135.416 14.5835C135.166 15.2421 135.041 15.9461 135.041 16.696V16.7457C135.041 17.4956 135.166 18.2043 135.416 18.8705C135.666 19.5375 136.011 20.1205 136.454 20.6204C136.895 21.1203 137.428 21.5165 138.053 21.8082C138.679 22.1001 139.366 22.2455 140.116 22.2455C141.116 22.2455 141.961 22.0623 142.653 21.6956C143.345 21.3294 144.032 20.8292 144.716 20.1956L147.166 22.6706C146.715 23.1541 146.248 23.5876 145.766 23.9704C145.282 24.3541 144.753 24.683 144.178 24.9583C143.603 25.233 142.973 25.4418 142.291 25.583C141.607 25.7246 140.841 25.7957 139.991 25.7957ZM164.871 7.9963H151.697V25.496H164.997V22.0712H155.497V18.3961H163.747V14.9713H155.497V11.4214H164.871V7.9963Z" fill="white"/>
</svg>
