<svg width="80" height="80" viewBox="0 0 80 80" fill="none" xmlns="http://www.w3.org/2000/svg">
<rect width="80" height="80" rx="20" fill="#0000D8"/>
<path fill-rule="evenodd" clip-rule="evenodd" d="M60.5424 33.3617L64.9292 33.9193C66.6793 34.1293 68.0023 35.6203 68 37.3867V42.6133C68 44.3797 66.6769 45.8707 64.9199 46.0807L60.5424 46.6383C60.183 47.7513 59.7373 48.8247 59.2146 49.8443L61.9237 53.3303C63.0205 54.7443 62.8921 56.7347 61.6274 57.962L57.9522 61.637C56.7389 62.89 54.7461 63.0183 53.3344 61.9217L49.8459 59.2127C48.8262 59.733 47.7528 60.1787 46.6398 60.5403L46.0821 64.927C45.8721 66.677 44.381 68 42.6146 68H37.3877C35.6213 68 34.1303 66.677 33.9202 64.9153L33.3626 60.538C32.2495 60.1787 31.1761 59.733 30.1564 59.2103L26.6703 61.9193C25.2562 63.0137 23.2658 62.8877 22.0384 61.6253L18.3633 57.9503C17.1102 56.737 16.9819 54.7443 18.0786 53.3327L20.7877 49.8443C20.2673 48.8247 19.8217 47.7513 19.46 46.6383L15.0731 46.0807C13.3231 45.8707 12 44.3797 12 42.6133V37.3867C12 35.6203 13.3231 34.1293 15.0801 33.9193L19.46 33.3617C19.8217 32.2487 20.265 31.1753 20.7877 30.1557L18.0786 26.6697C16.9819 25.2557 17.1102 23.263 18.3749 22.0357L22.0501 18.363C23.2658 17.11 25.2586 16.984 26.6679 18.0783L30.1541 20.7873C31.1738 20.2647 32.2472 19.8213 33.3626 19.4597L33.9202 15.073C34.1303 13.323 35.6213 12 37.3877 12H42.6146C44.381 12 45.8721 13.323 46.0821 15.08L46.6398 19.4597C47.7552 19.8213 48.8285 20.267 49.8482 20.7873L53.3321 18.0783C54.7461 16.984 56.7389 17.11 57.9639 18.3747L61.6391 22.0497C62.8921 23.263 63.0205 25.2557 61.9237 26.6673L59.2146 30.1557C59.735 31.1753 60.1807 32.2487 60.5424 33.3617ZM38.4697 48.3428H36.1602L41.918 31.3594H44.2275L38.4697 48.3428ZM28.8125 40.3613L34.9355 42.5205V45.5283L25.6865 41.6074V39.0723L34.9355 35.1514V38.1592L28.8125 40.3613ZM45.8174 38.1484L52.0586 40.3291L45.8174 42.542V45.5391L55.1738 41.6074V39.083L45.8174 35.1621V38.1484Z" fill="white"/>
</svg>
