<svg width="172" height="38" viewBox="0 0 172 38" fill="none" xmlns="http://www.w3.org/2000/svg">
<path fill-rule="evenodd" clip-rule="evenodd" d="M87.2069 7.37797C87.2069 4.90803 85.3415 3.57807 83.1307 3.57807H77.7935V15.6687H80.5225V11.5579H82.837C85.6697 11.5579 87.2069 9.65792 87.2069 7.37797V7.37797ZM84.357 7.5507C84.357 8.58704 83.6834 9.27793 82.7679 9.27793H80.5053V5.85801H82.7679C83.6834 5.85801 84.357 6.44527 84.357 7.5507ZM94.3231 8.77703V6.1171H93.494C92.5441 6.1171 91.6286 6.53163 91.1623 7.32616V6.1171H88.5887V15.6687H91.2487V10.5906C91.2487 9.26065 92.0259 8.75976 93.3386 8.75976C93.7013 8.75976 94.3231 8.77703 94.3231 8.77703V8.77703ZM99.7294 15.7896C102.493 15.7896 104.462 14.1314 104.462 10.9015C104.462 7.65433 102.493 5.99619 99.7294 5.99619C96.9831 5.99619 95.014 7.65433 95.014 10.9015C95.014 14.1314 96.9831 15.7896 99.7294 15.7896V15.7896ZM99.7294 8.15523C100.887 8.15523 101.75 8.93248 101.75 10.9015C101.75 12.8533 100.887 13.6305 99.7294 13.6305C98.6067 13.6305 97.7258 12.8533 97.7258 10.9015C97.7258 8.93248 98.6067 8.15523 99.7294 8.15523V8.15523ZM111.025 15.6341V13.4233C111.025 13.4233 110.421 13.4751 109.868 13.4751C109.298 13.4751 109.125 13.3196 109.125 12.7324V8.25886H111.146V6.1171H109.125V3.57807H106.448V6.1171H105.066V8.25886H106.448V12.8706C106.448 14.6496 106.707 15.7378 108.935 15.7378C110.145 15.7378 111.025 15.6341 111.025 15.6341V15.6341ZM116.553 15.7896C119.316 15.7896 121.285 14.1314 121.285 10.9015C121.285 7.65433 119.316 5.99619 116.553 5.99619C113.806 5.99619 111.837 7.65433 111.837 10.9015C111.837 14.1314 113.806 15.7896 116.553 15.7896V15.7896ZM116.553 8.15523C117.71 8.15523 118.573 8.93248 118.573 10.9015C118.573 12.8533 117.71 13.6305 116.553 13.6305C115.43 13.6305 114.549 12.8533 114.549 10.9015C114.549 8.93248 115.43 8.15523 116.553 8.15523V8.15523ZM128.643 12.0588C128.47 13.1987 127.693 13.6305 126.847 13.6305C125.759 13.6305 124.895 12.8533 124.895 10.9015C124.895 8.93248 125.741 8.15523 126.881 8.15523C127.78 8.15523 128.47 8.60431 128.609 9.77882H131.286C131.061 7.25707 129.265 5.99619 126.864 5.99619C124.118 5.99619 122.149 7.70615 122.149 10.9361C122.149 14.1833 124.17 15.7896 126.916 15.7896C129.369 15.7896 131.027 14.5287 131.303 12.0588H128.643V12.0588ZM136.796 15.7896C139.559 15.7896 141.528 14.1314 141.528 10.9015C141.528 7.65433 139.559 5.99619 136.796 5.99619C134.049 5.99619 132.08 7.65433 132.08 10.9015C132.08 14.1314 134.049 15.7896 136.796 15.7896V15.7896ZM136.796 8.15523C137.953 8.15523 138.817 8.93248 138.817 10.9015C138.817 12.8533 137.953 13.6305 136.796 13.6305C135.673 13.6305 134.792 12.8533 134.792 10.9015C134.792 8.93248 135.673 8.15523 136.796 8.15523V8.15523ZM145.484 15.6687V2.88717H142.824V15.6687H145.484V15.6687ZM86.3606 34.6682V32.2846H80.5225V22.5776H77.7935V34.6682H86.3606V34.6682ZM93.5631 31.0065C93.5631 31.8183 93.0104 32.8546 91.4386 32.8546C90.4196 32.8546 90.1432 32.2156 90.1432 31.7837C90.1432 31.1792 90.6096 30.7992 91.2487 30.6783C91.905 30.5401 93.5631 30.3329 93.5631 30.3329V31.0065V31.0065ZM87.7251 28.2429H90.2987C90.2987 27.8629 90.4023 27.0684 91.9741 27.0684C93.2522 27.0684 93.5631 27.5175 93.5631 28.1738V28.502L90.4196 28.9511C89.5387 29.072 87.4142 29.6074 87.4142 31.7837C87.4142 33.701 88.8823 34.7891 90.8514 34.7891C92.4923 34.7891 93.2177 34.2364 93.6322 33.8046V34.6682H96.4476C96.4476 34.6682 96.2403 33.9428 96.2403 33.2519V28.1047C96.2403 26.723 95.4804 24.9957 91.9741 24.9957C88.3469 24.9957 87.7596 26.8439 87.7251 28.2429V28.2429ZM100.628 34.6682V33.7355C101.111 34.34 101.957 34.7891 103.011 34.7891C105.602 34.7891 107.381 33.131 107.381 29.9011C107.381 26.6539 105.567 24.9957 103.167 24.9957C102.113 24.9957 101.111 25.4448 100.628 26.0493V21.8867H97.9676V34.6682H100.628V34.6682ZM102.648 27.1548C103.806 27.1548 104.669 27.932 104.669 29.9011C104.669 31.8528 103.806 32.6301 102.648 32.6301C101.353 32.6301 100.645 32.0256 100.645 29.9011C100.645 27.7593 101.353 27.1548 102.648 27.1548V27.1548ZM114.031 27.9493H116.639C116.639 27.2066 116.259 24.9957 112.528 24.9957C110.248 24.9957 108.435 26.0148 108.435 27.9838C108.435 30.212 110.231 30.6783 112.286 30.9547L112.804 31.0238C113.547 31.1274 114.238 31.2828 114.238 31.8701C114.238 32.561 113.495 32.8374 112.649 32.8374C111.734 32.8374 110.922 32.561 110.922 31.6456H108.245C108.245 32.1465 108.469 34.7891 112.494 34.7891C116.069 34.7891 116.933 33.0446 116.933 31.5765C116.933 27.7248 111.095 29.262 111.095 27.7938C111.095 27.1375 111.82 26.9302 112.494 26.9302C113.409 26.9302 114.031 27.2929 114.031 27.9493V27.9493ZM44.4113 28.0512C44.8207 28.287 45.1523 28.8647 45.1523 29.3354V37.4707C45.1523 37.9439 44.8181 38.1348 44.4113 37.899L37.3711 33.8366C36.9618 33.5999 36.6302 33.0222 36.6302 32.5515V24.4162C36.6302 23.943 36.9644 23.7521 37.3711 23.987L44.4113 28.0512ZM55.2696 20.8746C55.2696 21.347 54.9353 21.9238 54.5277 22.1588L47.4858 26.2238C47.0756 26.4604 46.744 26.2661 46.744 25.7954V17.6628C46.744 17.1895 47.0782 16.6135 47.4858 16.3777L54.5286 12.3127C54.9379 12.076 55.2704 12.2704 55.2704 12.741V20.8746H55.2696ZM53.7228 10.0768C54.1391 10.3169 54.1426 10.7046 53.7341 10.9404L46.6887 15.0072C46.2785 15.2438 45.6066 15.2395 45.1929 15.0002L28.0596 5.11098C27.6434 4.87003 27.6408 4.48227 28.0484 4.24737L35.0955 0.17974C35.5049 -0.0577539 36.1768 -0.0534359 36.5913 0.185786L53.7228 10.0768V10.0768ZM35.0385 31.6283C35.0385 32.1024 34.7043 32.2933 34.2975 32.0584L27.2591 27.9959C26.8488 27.7593 26.5164 27.1755 26.5164 26.6971V6.91767C26.5164 6.43663 26.8566 6.24318 27.2703 6.48241L44.3992 16.3682C44.8155 16.6083 45.1523 17.1886 45.1523 17.6602V25.7946C45.1523 26.2678 44.8155 26.457 44.4096 26.2221L35.7821 21.2433C35.3719 21.0058 35.0394 21.2019 35.0394 21.6725V31.6283H35.0385ZM56.8534 11.8273C56.8534 11.3532 57.1885 10.7763 57.5961 10.5405L64.6381 6.47636C65.0474 6.23973 65.3799 6.44009 65.3799 6.91853V26.6996C65.3799 27.1798 65.0405 27.7653 64.626 28.0046L47.4979 37.8921C47.0816 38.1322 46.744 37.9413 46.744 37.4707V29.3354C46.744 28.8621 47.0808 28.2844 47.4867 28.0495L56.1099 23.0725C56.5201 22.835 56.8526 22.2546 56.8526 21.7857L56.8543 11.8282L56.8534 11.8273ZM48.2751 5.09976C47.8649 4.86313 47.8675 4.47795 48.2751 4.24305L55.3197 0.177149C55.7299 -0.0594814 56.3966 -0.0586178 56.8042 0.177149L63.8487 4.24391C64.2589 4.48054 64.2563 4.86572 63.8487 5.10062L56.8042 9.16739C56.3949 9.40402 55.7281 9.40229 55.3205 9.16739L48.2751 5.09976V5.09976Z" fill="white"/>
</svg>
