<svg width="165" height="32" viewBox="0 0 165 32" fill="none" xmlns="http://www.w3.org/2000/svg">
<g clip-path="url(#clip0)">
<path opacity="0.998" fill-rule="evenodd" clip-rule="evenodd" d="M14.789 0L14.404 5.786H11.574L11.315 2.186H6.815V10.8H8.745C8.86423 10.1441 9.03646 9.49902 9.26 8.871H11.315V14.785H9.389L8.874 12.856H6.945V21.985H11.445L11.83 17.998L14.915 18.142L15.174 24.186H0.388V22.131L2.444 21.746V2.446L0 2.061V0.00100136H14.786L14.789 0ZM66.974 32.272C66.974 31.629 67.118 31.115 67.118 30.6L68.661 30.215V9.657C68.018 9.513 67.504 9.513 66.861 9.398V7.724L71.749 7.081C71.893 7.724 72.134 8.366 72.264 8.881C72.408 8.881 72.408 8.737 72.523 8.737C73.0674 8.09666 73.767 7.60669 74.5549 7.31396C75.3427 7.02122 76.1925 6.9355 77.023 7.065C77.9851 7.15978 78.8914 7.56059 79.6089 8.20856C80.3263 8.85653 80.8171 9.7175 81.009 10.665C81.3047 11.5368 81.478 12.4455 81.524 13.365C81.6933 15.2499 81.645 17.1481 81.38 19.022C81.2179 19.7226 81.003 20.4099 80.737 21.078C80.3682 21.9849 79.7495 22.7685 78.9529 23.3376C78.1563 23.9068 77.2145 24.2381 76.237 24.293C75.1379 24.4562 74.0152 24.2764 73.022 23.778H72.765V30.224L74.437 30.609C74.437 31.124 74.293 31.637 74.293 32.281H66.965L66.974 32.272ZM72.765 21.6C73.9822 22.1514 75.3671 22.2031 76.622 21.744C76.852 21.6427 77.0357 21.459 77.137 21.229C77.3342 20.6017 77.4633 19.955 77.522 19.3C77.7566 17.3376 77.8048 15.3575 77.666 13.386C77.6629 12.6827 77.5325 11.9858 77.281 11.329C77.2213 11.0244 77.0978 10.736 76.9186 10.4825C76.7394 10.2291 76.5087 10.0164 76.2415 9.85851C75.9743 9.70059 75.6767 9.601 75.3683 9.56627C75.0599 9.53154 74.7476 9.56246 74.452 9.657H74.193C73.7871 9.69808 73.4128 9.8945 73.1483 10.2052C72.8838 10.5158 72.7497 10.9167 72.774 11.324V21.594L72.765 21.6ZM121.625 21.988L123.297 22.373C123.321 22.9766 123.272 23.5808 123.153 24.173H117.496V12.601C117.466 12.0788 117.379 11.5614 117.237 11.058C117.093 10.415 116.594 10.158 115.952 10.03C115.397 9.86419 114.799 9.91567 114.28 10.174C113.765 10.462 113.38 10.689 113.38 11.331V22.003L115.052 22.388C115.052 22.903 114.908 23.545 114.908 24.188H107.708V22.388L109.38 22.003V9.79C108.737 9.646 108.223 9.646 107.58 9.531V7.711L112.324 7.068L112.709 8.611C113.094 8.352 113.481 7.968 113.866 7.711C114.596 7.22144 115.435 6.91847 116.309 6.82868C117.183 6.73889 118.066 6.86502 118.88 7.196C119.548 7.44923 120.131 7.88486 120.563 8.45326C120.995 9.02167 121.259 9.70001 121.324 10.411C121.442 10.8289 121.489 11.2635 121.465 11.697V21.341C121.559 21.542 121.603 21.7625 121.594 21.984L121.625 21.988ZM22.107 22.132L23.779 22.517C23.779 23.16 23.635 23.674 23.635 24.317H16.303C16.2843 23.7135 16.3326 23.1098 16.447 22.517L17.99 22.132C18.134 21.747 18.134 10.559 17.99 9.916C17.475 9.772 16.833 9.772 16.19 9.657V7.841L20.934 7.198L21.319 8.741L21.704 8.356C22.4151 7.73622 23.2707 7.30537 24.192 7.10318C25.1133 6.90098 26.0708 6.93393 26.976 7.199C27.7386 7.36808 28.4309 7.76696 28.9597 8.34186C29.4884 8.91675 29.8282 9.63999 29.933 10.414C30.0516 10.8314 30.1003 11.2657 30.077 11.699V21.984L31.749 22.369V24.186H26.091V13.002C26.1143 12.5687 26.0656 12.1344 25.947 11.717C25.9149 11.2842 25.7284 10.8773 25.4215 10.5705C25.1147 10.2636 24.7078 10.0771 24.275 10.045C23.926 9.94818 23.556 9.95765 23.2124 10.0722C22.8688 10.1867 22.5671 10.4011 22.346 10.688C22.2382 10.809 22.1589 10.9527 22.1141 11.1085C22.0693 11.2643 22.06 11.4282 22.087 11.588V22.131L22.107 22.132ZM147.607 9.386C146.964 9.386 146.45 9.242 145.807 9.242V7.7L151.336 7.057C151.643 7.7012 151.818 8.40021 151.851 9.113V22.099L153.523 22.484C153.523 23.127 153.379 23.641 153.379 24.284H148.635C148.482 23.8193 148.354 23.347 148.25 22.869C148.106 23.013 147.991 23.128 147.865 23.128C147.03 23.8557 145.996 24.3179 144.897 24.4554C143.797 24.5929 142.682 24.3995 141.693 23.9C141.1 23.6097 140.589 23.1751 140.207 22.6361C139.825 22.0971 139.585 21.471 139.508 20.815C139.389 20.3533 139.341 19.8762 139.364 19.4V9.5C138.721 9.356 138.079 9.356 137.564 9.241V7.711L142.964 7.068C143.161 7.65132 143.29 8.25526 143.349 8.868V18.64C143.326 19.0733 143.374 19.5076 143.493 19.925C143.515 20.4518 143.742 20.9491 144.127 21.3098C144.511 21.6706 145.022 21.866 145.549 21.854C145.934 21.854 146.449 21.71 146.834 21.71C147.084 21.5771 147.305 21.3945 147.482 21.1734C147.659 20.9522 147.79 20.6972 147.865 20.424V9.753C147.606 9.609 147.606 9.494 147.606 9.368L147.607 9.386ZM57.876 16.714C57.8363 18.0152 58.1472 19.3031 58.776 20.443C59.0849 20.8829 59.487 21.2493 59.9537 21.516C60.4204 21.7827 60.9402 21.9432 61.476 21.986C62.578 21.9703 63.6677 21.7524 64.691 21.343C64.835 21.343 64.95 21.199 65.206 21.199C65.465 21.714 65.591 22.227 65.849 22.742C65.59 23.001 65.206 23.127 64.949 23.385C64.0004 23.9792 62.9322 24.3565 61.8208 24.4899C60.7095 24.6234 59.5823 24.5097 58.52 24.157C57.6267 23.8969 56.804 23.4379 56.1135 22.8144C55.423 22.1909 54.8826 21.4192 54.533 20.557C53.6637 18.6691 53.3514 16.5723 53.633 14.513C53.7396 13.2311 54.0432 11.9734 54.533 10.784C54.8998 9.8648 55.4926 9.05299 56.2564 8.42371C57.0203 7.79444 57.9306 7.36805 58.903 7.184C59.8388 6.9297 60.8233 6.91408 61.7667 7.13857C62.7101 7.36305 63.5821 7.82048 64.303 8.469C65.1459 9.38534 65.7624 10.4864 66.103 11.684C66.4627 12.8937 66.6364 14.1511 66.618 15.413C66.5307 15.8526 66.4018 16.2828 66.233 16.698H57.874L57.876 16.714ZM62.89 14.524C62.89 14.009 62.746 13.624 62.746 13.239C62.6794 12.254 62.4169 11.2923 61.974 10.41C61.8193 10.106 61.5863 9.84875 61.299 9.6649C61.0116 9.48105 60.6804 9.37724 60.3396 9.36419C59.9987 9.35115 59.6606 9.42934 59.36 9.59068C59.0595 9.75203 58.8075 9.99069 58.63 10.282C58.1465 11.6504 57.8439 13.0762 57.73 14.523V14.908L62.872 14.523L62.89 14.524ZM136.565 16.714L128.208 16.858C128.107 17.4182 128.156 17.9953 128.352 18.53C128.484 19.3745 128.839 20.1685 129.38 20.83C129.668 21.2016 130.039 21.5001 130.463 21.7011C130.888 21.9022 131.354 22.0001 131.824 21.987C132.875 21.9971 133.919 21.8228 134.909 21.472C135.118 21.3736 135.333 21.2871 135.552 21.213C135.811 21.728 135.937 22.241 136.195 22.756C136.051 22.756 136.051 22.9 135.936 22.9C134.213 24.1069 132.115 24.6546 130.022 24.443C128.821 24.3417 127.677 23.8838 126.738 23.1282C125.799 22.3726 125.106 21.3536 124.75 20.202C124.133 18.7326 123.828 17.1513 123.852 15.5579C123.877 13.9645 124.232 12.3935 124.894 10.944C125.24 10.1004 125.766 9.34231 126.434 8.72238C127.103 8.10245 127.899 7.63556 128.766 7.35416C129.633 7.07277 130.551 6.98361 131.457 7.0929C132.362 7.20218 133.233 7.50729 134.008 7.987C134.95 8.74414 135.698 9.71362 136.193 10.816C136.709 12.3045 136.97 13.8695 136.965 15.445C136.878 15.8846 136.749 16.3148 136.58 16.73L136.565 16.714ZM133.353 14.524C133.374 13.4303 133.199 12.3416 132.838 11.309C132.706 10.7792 132.44 10.2921 132.066 9.894C131.423 8.994 129.366 9.251 129.109 10.409C128.818 11.3347 128.603 12.2825 128.465 13.243C128.34 13.791 128.292 14.3537 128.321 14.915L133.335 14.53L133.353 14.524ZM106.993 16.709L98.636 16.853C98.5436 18.2764 98.953 19.6872 99.793 20.84C100.062 21.1962 100.409 21.4858 100.808 21.6864C101.207 21.887 101.647 21.9933 102.093 21.997C103.144 22.0176 104.19 21.843 105.178 21.482C105.387 21.3836 105.602 21.2971 105.821 21.223C106.08 21.738 106.206 22.251 106.464 22.766C106.274 22.8676 106.1 22.9974 105.949 23.151C104.107 24.2916 101.907 24.7041 99.777 24.308C98.8226 24.1246 97.9267 23.7131 97.1657 23.1085C96.4048 22.504 95.8014 21.7243 95.407 20.836C94.5604 18.9869 94.2066 16.9503 94.38 14.924C94.4882 13.5589 94.7913 12.2162 95.28 10.937C95.5609 10.1909 95.9909 9.50975 96.5436 8.93518C97.0963 8.36061 97.7603 7.90462 98.495 7.595C99.3453 7.20133 100.275 7.00949 101.212 7.03447C102.149 7.05945 103.067 7.30057 103.895 7.739C104.999 8.38739 105.858 9.38177 106.339 10.568C106.958 12.122 107.264 13.7833 107.239 15.456C107.383 15.841 107.095 16.228 106.98 16.741L106.993 16.709ZM103.779 14.524C103.779 14.009 103.635 13.496 103.635 12.981C103.566 12.0731 103.302 11.1906 102.863 10.393C102.759 10.1577 102.609 9.9462 102.42 9.7718C102.231 9.5974 102.008 9.46381 101.765 9.37936C101.522 9.29491 101.265 9.26141 101.008 9.28097C100.752 9.30052 100.502 9.3727 100.275 9.493C100.128 9.54814 99.9948 9.63405 99.8839 9.74495C99.773 9.85585 99.6871 9.98918 99.632 10.136C99.1378 11.1884 98.8332 12.3198 98.732 13.478C98.732 13.863 98.588 14.25 98.588 14.763C100.26 14.763 101.93 14.619 103.73 14.504L103.779 14.524ZM46.931 7.2L47.316 8.743C47.575 8.599 47.701 8.484 47.959 8.358C49.111 7.72414 50.3795 7.33054 51.688 7.201C51.98 7.13949 52.2839 7.16802 52.5594 7.28282C52.8349 7.39762 53.0691 7.5933 53.231 7.844L52.716 12.344C51.816 12.344 50.916 12.2 50.016 12.2C49.8519 11.3955 49.7652 10.5771 49.757 9.756C49.1431 9.77547 48.5538 10.0021 48.085 10.399V21.97L49.757 22.355C49.7806 22.9162 49.7322 23.4781 49.613 24.027H42.431V22.355L43.974 21.97V9.77C43.331 9.626 42.817 9.626 42.174 9.511V7.711C43.7661 7.65986 45.352 7.48769 46.918 7.196L46.931 7.2ZM154.292 24.187C154.263 23.6257 154.311 23.063 154.436 22.515L155.979 22.13V9.914C155.464 9.77 154.822 9.77 154.179 9.655V7.841L159.067 7.198L159.452 8.613L161.508 7.713C162.221 7.48052 162.952 7.30825 163.693 7.198C163.985 7.10289 164.301 7.11545 164.584 7.23343C164.867 7.35141 165.098 7.56697 165.236 7.841L164.721 12.341C163.821 12.341 162.921 12.197 162.021 12.197C161.864 11.3914 161.777 10.5736 161.762 9.753L160.09 10.396V22.096L161.762 22.481C161.762 22.996 161.618 23.638 161.618 24.153H154.289L154.292 24.187ZM90.376 9.772L88.704 10.415V22.115L90.376 22.5C90.376 23.143 90.232 23.657 90.232 24.172H83.032V22.502L84.575 22.117V9.901C83.932 9.757 83.418 9.757 82.775 9.642V7.842L87.663 7.199L88.048 8.614L89.465 7.841C90.3661 7.44947 91.3189 7.18948 92.294 7.069C92.6151 7.04679 92.9367 7.10588 93.2289 7.24082C93.5211 7.37575 93.7746 7.58217 93.966 7.841L93.451 12.341C92.551 12.341 91.651 12.197 90.751 12.197L90.365 9.753L90.376 9.772ZM37.665 3.985V7.457H40.638C40.5186 8.17887 40.4704 8.91071 40.494 9.642C39.5894 9.67126 38.6876 9.75777 37.794 9.901V20.83C37.8247 21.1486 37.9737 21.4441 38.2116 21.6583C38.4495 21.8725 38.7589 21.9897 39.079 21.987H40.751C40.751 22.63 40.895 23.144 40.895 23.787C40.455 24.0356 39.9768 24.2096 39.48 24.302C38.4688 24.5361 37.4236 24.5849 36.395 24.446C35.6571 24.3485 34.9746 24.0022 34.4601 23.4644C33.9455 22.9266 33.6298 22.2295 33.565 21.488V9.915C32.9334 9.75823 32.2866 9.67138 31.636 9.656C31.6123 8.96752 31.6605 8.27845 31.78 7.6C32.552 7.6 33.195 7.456 33.965 7.456L34.865 4.241L37.694 3.982L37.665 3.985Z" fill="white"/>
</g>
<defs>
<clipPath id="clip0">
<rect width="165" height="32" fill="white"/>
</clipPath>
</defs>
</svg>
