<svg width="100" height="33" viewBox="0 0 100 33" fill="none" xmlns="http://www.w3.org/2000/svg">
<path fill-rule="evenodd" clip-rule="evenodd" d="M56.7797 10.9576C58.0431 10.2541 59.4702 9.89729 60.916 9.92356C64.8238 9.92356 67.8123 13.3726 67.8123 18.0842C67.8123 24.0611 64.1348 27.8543 58.0432 27.8543C55.8745 27.8204 53.7159 27.5506 51.6056 27.0496C51.7213 24.6355 51.8369 9.92356 51.6056 7.16541C51.3781 5.7854 51.0322 5.21103 49.9981 4.98165L49.1934 4.86696V4.17696L56.8954 2.79883C56.7797 3.94758 56.7797 7.2801 56.7797 10.9576ZM56.8935 26.4762C57.346 26.5756 57.8098 26.6138 58.2725 26.5899L58.2754 26.589C60.6866 26.589 62.4116 23.0271 62.4116 18.4283C62.4116 14.7517 61.0316 11.7633 58.5019 11.7633C57.9115 11.7775 57.3281 11.8946 56.7779 12.1092C56.6641 18.0852 56.7778 24.8677 56.8935 26.4762ZM0 3.25852H20.2292L20.3448 10.0392L19.1951 10.3842C18.0464 6.93604 16.4351 4.98259 13.3329 4.98259H9.31037C9.19474 7.16636 9.08006 10.8439 9.08006 14.7517L11.8382 14.6361C13.5623 14.6361 14.3651 13.258 14.711 11.3036H15.7451V19.4586H14.711C14.366 17.5052 13.5623 16.1261 11.8382 16.1261L9.08006 16.0114C9.08006 18.9989 9.19474 21.413 9.31037 22.9077C9.54069 25.0924 10.1151 26.1265 11.6088 26.2402L12.9879 26.4715V27.3908H0V26.4715L1.1497 26.2402C2.64345 26.1265 3.21783 25.0924 3.44721 22.9077C3.73549 17.8549 3.73549 12.7898 3.44721 7.73697C3.21783 5.55321 2.64345 4.63383 1.1497 4.40445L0 4.29259V3.25852ZM35.3999 18.7753C35.3999 13.603 32.5271 9.6952 26.7795 9.6952V9.69426C21.0329 9.69426 17.8151 13.8324 17.8151 18.7743C17.8151 23.9465 20.6879 27.8563 26.4345 27.8563C32.1811 27.8563 35.3999 23.7172 35.3999 18.7753ZM23.2158 18.7753C23.2158 14.293 23.9058 10.8449 26.4345 10.8449V10.844C28.8495 10.844 29.9974 14.4068 29.9974 18.7753C29.9974 23.2575 29.3064 26.7056 26.6648 26.7056C24.3654 26.7056 23.2158 23.1428 23.2158 18.7753ZM78.1511 9.6952C72.2898 9.6952 69.3013 14.1784 69.3013 18.8909L69.3089 18.8881C69.3089 24.175 72.9883 27.8534 78.1586 27.8534C79.4777 27.8812 80.7856 27.6054 81.9812 27.0473C83.1768 26.4891 84.2281 25.6637 85.054 24.6347L84.5952 24.0603C83.4855 24.9357 82.0986 25.384 80.6864 25.3237C76.5483 25.3237 74.4792 22.2206 74.5948 17.9677H85.2767C85.2767 13.259 82.9774 9.6952 78.1511 9.6952ZM79.9964 16.5906L74.5948 16.7062C74.7057 14.0618 75.7445 10.844 77.698 10.844C79.6514 10.844 79.9964 14.2921 79.9964 16.5906ZM93.6762 9.69426C95.4813 9.65841 97.2763 9.97089 98.9631 10.6146L98.9603 10.6155L99.0778 15.0977L98.274 15.3271C97.2372 12.224 95.859 10.9596 93.7909 10.9596C93.4635 10.9558 93.1389 11.0194 92.8372 11.1464C92.5355 11.2734 92.2631 11.4611 92.0369 11.6978C91.8108 11.9345 91.6358 12.2152 91.5227 12.5224C91.4096 12.8296 91.3609 13.1568 91.3796 13.4836C91.3796 14.9783 92.5284 15.783 95.7472 17.0465C98.7347 18.1971 100 19.5752 100 21.9893C100 25.5522 97.1262 27.8516 92.6431 27.8516C90.5684 27.8573 88.508 27.5076 86.5515 26.8175L86.4358 21.7609L87.2405 21.5296C88.504 24.9787 90.1143 26.2422 92.2971 26.2422C92.6625 26.2713 93.0299 26.2247 93.3763 26.1052C93.7228 25.9858 94.0409 25.7961 94.3107 25.548C94.5804 25.3 94.7961 24.9989 94.9441 24.6636C95.0921 24.3283 95.1693 23.9661 95.1709 23.5997C95.1709 22.2206 94.3662 21.4159 91.4934 20.3818C88.7315 19.4643 86.7799 18.2009 86.7799 15.2115C86.7799 12.2221 89.4243 9.69426 93.6762 9.69426ZM43.1028 13.7187C44.9396 9.57957 48.3878 9.00613 50.3412 10.1549L48.5044 14.8721C46.205 13.3784 43.6771 14.0674 43.1028 14.8721C42.9643 17.974 43.0023 21.0812 43.2165 24.1787C43.3321 25.5569 43.6771 26.2459 44.8259 26.3616L46.205 26.4772V27.3966H35.5155V26.4772L36.3202 26.3616C37.3552 26.2469 37.814 25.5569 37.9296 24.1787C38.102 20.8478 38.102 17.5102 37.9296 14.1793C37.814 12.6846 37.3543 12.1102 36.3202 11.9946L35.5155 11.8799V11.1899L43.2146 9.6952L43.1028 13.7187Z" fill="white"/>
</svg>
