<svg width="172" height="33" viewBox="0 0 172 33" fill="none" xmlns="http://www.w3.org/2000/svg">
<g clip-path="url(#clip0)">
<path d="M4.33385 23.1584C4.649 23.1254 4.84453 23.0712 4.91922 22.9969C4.99371 22.922 5.03115 22.8263 5.03115 22.7105V13.3953H0.747306C0.614321 13.3953 0.514733 13.4412 0.448545 13.5323C0.381749 13.6236 0.332364 13.8106 0.299168 14.0926H0V9.65918H0.299168C0.332364 9.94175 0.381749 10.1288 0.448545 10.2199C0.514733 10.3109 0.614321 10.3567 0.747306 10.3567H13.0511C13.1835 10.3567 13.2831 10.3111 13.3499 10.2199C13.4159 10.1288 13.4659 9.94175 13.4993 9.65918H13.798V14.0928H13.4993C13.4659 13.8109 13.4159 13.6238 13.3499 13.5325C13.2831 13.4414 13.1835 13.3955 13.0511 13.3955H8.76727V22.7105C8.76727 22.8265 8.80452 22.9222 8.87921 22.9971C8.9541 23.0714 9.14882 23.1257 9.46458 23.1586V23.4578H4.33385V23.1584ZM20.0742 22.7105C20.0742 22.8931 20.1404 23.0093 20.2736 23.0589C20.4064 23.1086 20.5723 23.142 20.7715 23.1584V23.4576H16.0395V23.1584C16.2389 23.1422 16.4047 23.1086 16.5377 23.0589C16.6704 23.0093 16.7368 22.8929 16.7368 22.7105V13.2461C16.7368 13.0637 16.6704 12.9472 16.5377 12.8972C16.4047 12.8472 16.2389 12.8142 16.0395 12.7976V12.4988H20.7715V12.7976C20.5723 12.814 20.4064 12.8472 20.2736 12.8972C20.1404 12.9472 20.0742 13.0637 20.0742 13.2461V16.3839H25.5788V13.2461C25.5788 13.0637 25.512 12.9472 25.3796 12.8972C25.2462 12.8472 25.0805 12.8142 24.8811 12.7976V12.4988H29.6135V12.7976C29.4143 12.814 29.2477 12.8472 29.1153 12.8972C28.9822 12.9472 28.9162 13.0637 28.9162 13.2461V22.7105C28.9162 22.8931 28.9822 23.0093 29.1153 23.0589C29.2477 23.1086 29.4143 23.142 29.6135 23.1584V23.4576H24.8811V23.1584C25.0805 23.1422 25.2462 23.1086 25.3796 23.0589C25.512 23.0093 25.5788 22.8929 25.5788 22.7105V18.9244H20.0742V22.7105ZM33.5984 13.2461C33.5984 13.0637 33.5275 12.9472 33.3864 12.8972C33.2454 12.8472 33.0753 12.8142 32.8762 12.7976V12.4988H37.3586V12.7976C37.2758 12.814 37.1845 12.8472 37.0849 12.8972C36.9851 12.9472 36.9355 13.0637 36.9355 13.2461V19.2982C36.9355 19.9294 37.1639 20.3811 37.6205 20.6554C38.0765 20.9295 38.6789 21.0663 39.426 21.0663C40.1733 21.0663 40.7749 20.9295 41.2317 20.6554C41.6884 20.3813 41.9167 19.9294 41.9167 19.2984V13.2461C41.9167 13.0637 41.8667 12.9472 41.7671 12.8972C41.6806 12.852 41.5885 12.8185 41.4932 12.7976V12.4988H45.9767V12.7976C45.7771 12.814 45.6069 12.8472 45.466 12.8972C45.3247 12.9472 45.2541 13.0637 45.2541 13.2461V18.7254C45.2541 19.3895 45.1545 20.0166 44.9553 20.6058C44.7591 21.1905 44.426 21.7199 43.9837 22.1498C43.5358 22.5899 42.9379 22.9305 42.1909 23.1712C41.4436 23.4117 40.5219 23.5319 39.426 23.5319C38.3301 23.5319 37.4086 23.4117 36.6615 23.1712C35.9142 22.9303 35.3166 22.5899 34.8681 22.1498C34.426 21.7198 34.093 21.1904 33.8969 20.6056C33.6978 20.0166 33.5982 19.3895 33.5982 18.7254L33.5984 13.2461ZM62.1654 22.7105C62.1654 22.8931 62.2316 23.0093 62.3648 23.0589C62.4973 23.1086 62.6635 23.142 62.8627 23.1584V23.4576H58.255V23.1584C58.3878 23.1584 58.5414 23.1422 58.7157 23.1086C58.8901 23.0755 58.9776 22.9846 58.9776 22.8348C58.9776 22.6854 58.7946 22.4073 58.4291 22C58.0639 21.5936 57.5951 21.0912 57.0225 20.4933C56.4497 19.8958 55.806 19.2278 55.0921 18.4888C54.3591 17.7292 53.6529 16.944 52.9751 16.1347L52.9255 16.1849V22.7105C52.9255 22.8931 52.9874 23.0093 53.1119 23.0589C53.2364 23.1086 53.3902 23.142 53.5728 23.1584V23.4576H49.3136V23.1584C49.4796 23.1422 49.6249 23.1086 49.7496 23.0589C49.8741 23.0093 49.9365 22.8929 49.9365 22.7105V13.2461C49.9365 13.0637 49.8701 12.9472 49.7371 12.8972C49.6039 12.8472 49.4464 12.8142 49.2642 12.7976V12.4988H55.1911V12.7976C55.0711 12.8152 54.9539 12.8487 54.8427 12.8972C54.7263 12.9472 54.6684 13.0637 54.6684 13.2461C54.6684 13.2795 54.8055 13.4495 55.0791 13.7562C55.4281 14.1459 55.7809 14.5321 56.1378 14.9146C56.6174 15.4312 57.0989 15.946 57.5824 16.459C58.1137 17.0237 58.6448 17.5881 59.1766 18.1524V13.2459C59.1766 13.0637 59.1098 12.9472 58.9774 12.8972C58.8442 12.8472 58.6782 12.8142 58.479 12.7976V12.4988H62.8625V12.7976C62.6633 12.814 62.4971 12.8472 62.3645 12.8972C62.2314 12.9472 62.1652 13.0637 62.1652 13.2461L62.1654 22.7105ZM71.6545 21.0663C72.9493 21.0663 73.8794 20.8386 74.4437 20.3813C75.008 19.9251 75.2906 19.1236 75.2906 17.9781C75.2906 16.8323 75.008 16.0315 74.4437 15.5745C73.8794 15.118 72.9493 14.8899 71.6545 14.8899H69.8613V21.0663H71.6545ZM66.5239 13.2461C66.5239 13.0637 66.4614 12.9472 66.3369 12.8972C66.2122 12.8472 66.0588 12.8142 65.8762 12.7976V12.4988H73.348C74.2777 12.4988 75.0665 12.648 75.714 12.9472C76.3617 13.2461 76.8971 13.6445 77.3206 14.1424C77.744 14.6403 78.0509 15.2223 78.2424 15.8858C78.4328 16.5505 78.5286 17.2476 78.5286 17.9781C78.5286 18.7088 78.4328 19.4061 78.2424 20.07C78.0509 20.7346 77.744 21.3153 77.3206 21.8134C76.8971 22.3115 76.3617 22.7105 75.714 23.0093C75.0665 23.3078 74.2777 23.4576 73.3478 23.4576H65.8764V23.1584C66.059 23.1422 66.2124 23.1086 66.3371 23.0589C66.4616 23.0093 66.5241 22.8929 66.5241 22.7105L66.5239 13.2461ZM92.2017 21.2659C92.5343 21.2659 92.7498 21.0582 92.8494 20.6431H93.1482V23.9059H92.8992C92.816 23.6732 92.7288 23.5404 92.6375 23.5074C92.5464 23.4738 92.4009 23.4576 92.2017 23.4576H81.0935V23.1584C81.2763 23.1422 81.438 23.1086 81.5793 23.0589C81.7202 23.0093 81.791 22.8929 81.791 22.7105V13.2461C81.791 13.0637 81.7202 12.9472 81.5793 12.8972C81.438 12.8472 81.2763 12.8142 81.0935 12.7976V12.4988H92.4009C92.5011 12.4988 92.6003 12.4656 92.6998 12.399C92.7994 12.3328 92.8494 12.1835 92.8494 11.9509H93.1482V15.2881H92.8494C92.8494 15.0391 92.7994 14.8772 92.6998 14.8023C92.6003 14.7274 92.5011 14.6905 92.4009 14.6905H85.1282V16.7078H89.8106C89.9104 16.7078 90.0102 16.6705 90.1096 16.5956C90.2092 16.5211 90.2594 16.3677 90.2594 16.1349H90.5579V19.3727H90.2594C90.2594 19.1406 90.2092 18.9869 90.1096 18.912C90.0104 18.8373 89.9104 18.7999 89.8106 18.7999H85.1284V21.2659H92.2017ZM103.783 17.2808C104.314 17.2808 104.733 17.1685 105.04 16.9446C105.348 16.7203 105.502 16.3839 105.502 15.936C105.502 15.5538 105.373 15.2346 105.116 14.9767C104.858 14.7199 104.356 14.5907 103.609 14.5907H100.247V17.2808H103.783ZM97.1082 13.2461C97.1082 13.0637 97.0495 12.9472 96.9339 12.8972C96.8147 12.8465 96.6889 12.813 96.5602 12.7976V12.4988H104.555C105.8 12.4988 106.792 12.7893 107.531 13.3704C108.27 13.9519 108.64 14.815 108.64 15.9607C108.64 16.8574 108.378 17.567 107.855 18.09C107.332 18.6131 106.672 19.024 105.875 19.3227L108.091 22.6605C108.175 22.7937 108.295 22.9095 108.453 23.0093C108.611 23.1084 108.781 23.1584 108.964 23.1584V23.4576H103.932V23.1584C104.048 23.1584 104.177 23.138 104.319 23.0963C104.46 23.0552 104.53 22.9678 104.53 22.8348C104.53 22.752 104.443 22.5445 104.268 22.2124C104.094 21.8804 103.895 21.5234 103.671 21.1412C103.456 20.7753 103.24 20.4099 103.023 20.0449C102.815 19.6966 102.687 19.4725 102.637 19.3727H100.247V22.7105C100.247 22.8931 100.308 23.0093 100.433 23.0589C100.557 23.1086 100.71 23.142 100.894 23.1584V23.4576H96.61V23.1584C96.7216 23.1384 96.8303 23.1049 96.9339 23.0589C97.0497 23.0093 97.1082 22.8929 97.1082 22.7105V13.2461ZM123.957 15.0146C123.973 14.9644 123.985 14.9108 123.994 14.8525C124.002 14.7942 124.006 14.7241 124.006 14.6405C124.006 14.508 123.895 14.3752 123.67 14.2424C123.446 14.1094 123.147 13.9894 122.773 13.8809C122.4 13.7734 121.972 13.6817 121.491 13.6072C120.988 13.5309 120.48 13.4934 119.972 13.4951C119.474 13.4951 118.951 13.553 118.403 13.6692C117.855 13.7856 117.353 13.9768 116.896 14.2424C116.445 14.5027 116.061 14.865 115.775 15.3004C115.485 15.7409 115.339 16.2764 115.339 16.9071C115.339 17.5381 115.485 18.0737 115.775 18.5137C116.061 18.9493 116.445 19.3118 116.896 19.5719C117.353 19.8379 117.855 20.0289 118.403 20.1449C118.951 20.2615 119.474 20.319 119.972 20.319C120.187 20.319 120.528 20.2818 120.993 20.2071C121.464 20.1312 121.929 20.0272 122.388 19.8958C122.852 19.7634 123.263 19.6136 123.62 19.4474C123.977 19.2816 124.156 19.1074 124.156 18.9246C124.156 18.8416 124.139 18.7748 124.106 18.7254C124.069 18.6694 124.036 18.6111 124.006 18.5509L124.28 18.3765L126.846 22.2869L126.547 22.4609C126.514 22.3783 126.468 22.3241 126.41 22.2992C126.351 22.2741 126.281 22.2618 126.199 22.2618C126.082 22.2618 125.85 22.3326 125.501 22.4737C125.153 22.6148 124.699 22.7643 124.144 22.922C123.587 23.0801 122.936 23.2208 122.189 23.3453C121.441 23.47 120.603 23.5319 119.673 23.5319C118.677 23.5319 117.689 23.4038 116.709 23.1461C115.729 22.8888 114.849 22.4822 114.069 21.9258C113.288 21.3697 112.658 20.6722 112.176 19.8336C111.694 18.9956 111.454 18.02 111.454 16.9071C111.454 15.7947 111.694 14.8193 112.176 13.9809C112.658 13.1423 113.288 12.445 114.069 11.8883C114.849 11.3323 115.729 10.9133 116.709 10.6308C117.689 10.3486 118.677 10.2075 119.673 10.2075C120.669 10.2075 121.528 10.2616 122.251 10.3694C122.973 10.4773 123.583 10.5976 124.081 10.7303C124.563 10.8635 124.936 10.9755 125.202 11.0663C125.468 11.1582 125.667 11.2038 125.8 11.2038C125.949 11.2038 126.074 11.1374 126.174 11.0044L126.448 11.0793L124.206 15.1887L123.957 15.0146ZM135.588 14.9895C135.123 14.9895 134.682 15.0605 134.268 15.202C133.852 15.3437 133.487 15.5437 133.171 15.8022C132.86 16.0562 132.609 16.3768 132.437 16.7404C132.262 17.1071 132.175 17.5237 132.175 17.9907C132.175 18.4574 132.262 18.8744 132.437 19.241C132.609 19.6044 132.86 19.9248 133.171 20.1787C133.487 20.4372 133.852 20.6374 134.268 20.7793C134.682 20.921 135.123 20.9918 135.588 20.9918C136.069 20.9918 136.513 20.921 136.92 20.7793C137.327 20.6376 137.688 20.4372 138.003 20.1787C138.315 19.9249 138.566 19.6044 138.738 19.241C138.912 18.8744 139 18.4574 139 17.9907C139 17.5239 138.912 17.1071 138.738 16.7404C138.566 16.3768 138.315 16.0562 138.003 15.8022C137.688 15.5437 137.327 15.3437 136.92 15.2018C136.513 15.0605 136.069 14.9895 135.588 14.9895ZM135.588 12.349C136.368 12.349 137.152 12.4575 137.941 12.6731C138.73 12.8889 139.444 13.2257 140.083 13.6817C140.722 14.1386 141.241 14.7241 141.64 15.4378C142.038 16.1517 142.237 16.9984 142.237 17.9781C142.237 18.9744 142.038 19.8251 141.64 20.5307C141.241 21.2367 140.722 21.8134 140.083 22.2618C139.444 22.7105 138.73 23.0338 137.941 23.2333C137.152 23.4325 136.368 23.5319 135.588 23.5319C134.807 23.5319 134.022 23.4327 133.234 23.2333C132.445 23.0338 131.731 22.7105 131.092 22.2618C130.453 21.8134 129.934 21.2367 129.535 20.5307C129.137 19.8251 128.937 18.9744 128.937 17.9783C128.937 16.9986 129.137 16.1517 129.535 15.4378C129.934 14.7241 130.453 14.1384 131.092 13.6817C131.731 13.2255 132.445 12.8889 133.234 12.6731C134.022 12.4575 134.807 12.349 135.588 12.349ZM152.2 17.2808C152.731 17.2808 153.15 17.1685 153.457 16.9446C153.765 16.7203 153.918 16.3839 153.918 15.936C153.918 15.5538 153.789 15.2346 153.532 14.9767C153.274 14.7199 152.773 14.5907 152.025 14.5907H148.663V17.2808H152.2ZM145.525 13.2461C145.525 13.0637 145.467 12.9472 145.351 12.8972C145.232 12.8466 145.106 12.8131 144.977 12.7976V12.4988H152.972C154.217 12.4988 155.209 12.7893 155.948 13.3704C156.687 13.9519 157.057 14.815 157.057 15.9607C157.057 16.8574 156.795 17.567 156.272 18.09C155.749 18.6131 155.089 19.024 154.292 19.3227L156.508 22.6605C156.591 22.7937 156.711 22.9095 156.87 23.0093C157.027 23.1084 157.197 23.1584 157.38 23.1584V23.4576H152.349V23.1584C152.465 23.1584 152.594 23.138 152.735 23.0963C152.876 23.0552 152.947 22.9678 152.947 22.8348C152.947 22.752 152.86 22.5445 152.685 22.2124C152.495 21.8507 152.295 21.4935 152.088 21.1412C151.873 20.7752 151.657 20.4097 151.44 20.0449C151.232 19.6966 151.104 19.4725 151.054 19.3727H148.663V22.7105C148.663 22.8931 148.725 23.0093 148.85 23.0589C148.974 23.1086 149.128 23.142 149.311 23.1584V23.4576H145.027V23.1584C145.139 23.1383 145.247 23.1049 145.351 23.0589C145.467 23.0093 145.525 22.8929 145.525 22.7105V13.2461ZM171.054 21.2659C171.386 21.2659 171.601 21.0582 171.701 20.6431H172V23.9059H171.751C171.668 23.6732 171.58 23.5404 171.489 23.5074C171.398 23.4738 171.253 23.4576 171.054 23.4576H159.945V23.1584C160.128 23.1422 160.29 23.1086 160.431 23.0589C160.572 23.0093 160.643 22.8929 160.643 22.7105V13.2461C160.643 13.0637 160.572 12.9472 160.431 12.8972C160.29 12.8472 160.128 12.8142 159.945 12.7976V12.4988H171.253C171.352 12.4988 171.452 12.4656 171.552 12.399C171.651 12.3328 171.701 12.1835 171.701 11.9509H172V15.2881H171.701C171.701 15.0391 171.651 14.8772 171.552 14.8023C171.452 14.7274 171.352 14.6905 171.253 14.6905H163.98V16.7078H168.662C168.762 16.7078 168.862 16.6705 168.961 16.5956C169.061 16.5211 169.111 16.3677 169.111 16.1349H169.41V19.3727H169.111C169.111 19.1406 169.061 18.9869 168.961 18.912C168.862 18.8373 168.762 18.7999 168.662 18.7999H163.98V21.2659H171.054Z" fill="white"/>
</g>
<defs>
<clipPath id="clip0">
<rect width="172" height="33" fill="white"/>
</clipPath>
</defs>
</svg>
