<svg width="154" height="33" viewBox="0 0 154 33" fill="none" xmlns="http://www.w3.org/2000/svg">
<g clip-path="url(#clip0)">
<path fill-rule="evenodd" clip-rule="evenodd" d="M0 32.9204V0H13.2282H13.2283L13.2283 4.6392e-05L28.3573 14.7194V32.9203L13.2283 18.2011V32.9204H0ZM13.2282 18.2009V9.27832e-05L3.87436 9.10048L13.2282 18.2009ZM28.3574 14.7194V0H41.5857V32.9203H28.3574L37.7113 23.8198L28.3574 14.7194ZM117.063 15.4787C118.979 15.4787 120.24 16.9041 120.24 19.0772C120.24 21.2505 118.979 22.6758 117.063 22.6758C115.146 22.6758 113.885 21.2505 113.885 19.0772C113.885 16.9041 115.146 15.4787 117.063 15.4787ZM114.072 24.9659V23.4938C114.749 24.522 116.058 25.1529 117.483 25.153C121.012 25.153 123.091 22.6759 123.091 19.0773C123.091 15.4788 121.012 13.0018 117.53 13.0018C115.988 13.0018 114.749 13.656 114.072 14.6141V8.14142H111.221V24.9659H114.072ZM65.9768 8.6086H62.6352V24.9659H65.7198V13.4456L72.8235 24.9659H76.1416V8.6086H73.0571V20.1521L65.9768 8.6086ZM86.133 24.9658H89.0071V13.1887H86.133V19.6148C86.133 21.3438 85.0114 22.6059 83.3992 22.6059C81.9267 22.6059 80.9454 21.484 80.9454 19.8717V13.1887H78.0713V20.4792C78.0713 23.2367 79.8006 25.1529 82.4642 25.1529C84.1467 25.1529 85.4787 24.4284 86.133 23.1431V24.9658ZM91.0543 13.1888H93.9284V15.0347C94.5127 13.843 95.6809 13.0018 97.34 13.0018C99.2095 13.0018 100.495 13.7963 101.009 15.2452C101.546 14.0299 103.042 13.0018 104.911 13.0018C107.458 13.0018 109.094 14.8479 109.094 17.3481V24.9659H106.243V18.2128C106.243 16.5537 105.378 15.4555 104 15.4555C102.458 15.4555 101.499 16.5537 101.499 18.2128V24.9659H98.6486V18.2128C98.6486 16.5537 97.7841 15.4555 96.4053 15.4555C94.8864 15.4555 93.9283 16.5537 93.9283 18.2128V24.9659H91.0542V13.1888H91.0543ZM126.732 17.7689H132.528C132.411 16.2734 131.382 15.1516 129.677 15.1516C128.064 15.1516 127.036 15.993 126.732 17.7689ZM135.448 21.0403C135.004 23.5407 132.808 25.153 129.91 25.153C126.055 25.153 123.905 22.115 123.905 19.0305C123.905 15.9226 125.821 13.0018 129.677 13.0018C133.626 13.0018 135.402 15.876 135.402 18.6799C135.402 19.0772 135.378 19.4279 135.355 19.6615H126.662C126.873 21.5544 128.088 22.7694 129.91 22.7694C131.382 22.7694 132.341 22.1619 132.644 21.0403H135.448ZM139.758 19.4045C139.758 17.1613 140.482 15.5956 142.305 15.5956H144.151V13.1889H142.772C141.253 13.1889 140.342 13.7729 139.758 15.2684V13.1889H136.883V24.966H139.758V19.4045ZM144.559 21.0402H147.177C147.294 22.1618 148.158 22.8629 149.443 22.8629C150.565 22.8629 151.313 22.3019 151.313 21.601C151.313 20.5009 150.173 20.305 148.852 20.0778C147.03 19.7646 144.863 19.3921 144.863 16.507C144.863 14.4506 146.663 13.0018 149.093 13.0018C151.85 13.0018 153.743 14.5208 153.86 16.8106H151.243C151.079 15.7123 150.074 15.1516 149.163 15.1516C148.135 15.1516 147.457 15.6189 147.457 16.4133C147.457 17.4545 148.55 17.6016 149.843 17.7754C151.713 18.0268 154 18.3343 154 21.4842C154 23.7042 152.201 25.153 149.443 25.153C146.592 25.1529 144.7 23.5637 144.559 21.0402Z" fill="white"/>
</g>
<defs>
<clipPath id="clip0">
<rect width="154" height="33" fill="white"/>
</clipPath>
</defs>
</svg>
