<svg width="313" height="80" viewBox="0 0 313 80" fill="none" xmlns="http://www.w3.org/2000/svg">
<rect width="313" height="80" rx="20" fill="black"/>
<path d="M42.2188 44.6172L45.6641 26.4062H50.9199L45.2422 52H39.9336L35.7676 34.8789L31.6016 52H26.293L20.6152 26.4062H25.8711L29.334 44.582L33.5527 26.4062H38.0176L42.2188 44.6172Z" fill="white"/>
<path d="M60.9226 52.3516C58.1335 52.3516 55.8601 51.4961 54.1023 49.7852C52.3562 48.0742 51.4831 45.7949 51.4831 42.9473V42.4551C51.4831 40.5449 51.8523 38.8398 52.5905 37.3398C53.3288 35.8281 54.3718 34.668 55.7195 33.8594C57.0788 33.0391 58.6257 32.6289 60.3601 32.6289C62.9616 32.6289 65.0066 33.4492 66.4948 35.0898C67.9948 36.7305 68.7448 39.0566 68.7448 42.0684V44.1426H56.6335C56.7976 45.3848 57.2898 46.3809 58.1101 47.1309C58.9421 47.8809 59.9909 48.2559 61.2566 48.2559C63.2136 48.2559 64.7429 47.5469 65.8445 46.1289L68.3405 48.9238C67.5788 50.002 66.5476 50.8457 65.2468 51.4551C63.946 52.0527 62.5046 52.3516 60.9226 52.3516ZM60.3425 36.7422C59.3347 36.7422 58.5144 37.082 57.8816 37.7617C57.2605 38.4414 56.862 39.4141 56.6862 40.6797H63.7527V40.2754C63.7292 39.1504 63.4245 38.2832 62.8386 37.6738C62.2527 37.0527 61.4206 36.7422 60.3425 36.7422Z" fill="white"/>
<path d="M88.0639 42.666C88.0639 45.7129 87.4135 48.0918 86.1127 49.8027C84.812 51.502 82.9955 52.3516 80.6635 52.3516C78.601 52.3516 76.9545 51.5605 75.7241 49.9785L75.4955 52H70.9252V25H76.0053V34.6855C77.1772 33.3145 78.7182 32.6289 80.6284 32.6289C82.9487 32.6289 84.7651 33.4844 86.0776 35.1953C87.4018 36.8945 88.0639 39.291 88.0639 42.3848V42.666ZM82.9838 42.2969C82.9838 40.375 82.6791 38.9746 82.0698 38.0957C81.4604 37.2051 80.5522 36.7598 79.3452 36.7598C77.728 36.7598 76.6147 37.4219 76.0053 38.7461V46.252C76.6264 47.5879 77.7514 48.2559 79.3803 48.2559C81.0209 48.2559 82.0991 47.4473 82.6147 45.8301C82.8608 45.0566 82.9838 43.8789 82.9838 42.2969Z" fill="white"/>
<path d="M116.067 52H98.5243V48.5195L106.804 39.6953C107.94 38.4531 108.778 37.3691 109.317 36.4434C109.868 35.5176 110.143 34.6387 110.143 33.8066C110.143 32.6699 109.856 31.7793 109.282 31.1348C108.708 30.4785 107.888 30.1504 106.821 30.1504C105.673 30.1504 104.765 30.5488 104.097 31.3457C103.44 32.1309 103.112 33.168 103.112 34.457H98.0145C98.0145 32.8984 98.3837 31.4746 99.122 30.1855C99.872 28.8965 100.927 27.8887 102.286 27.1621C103.645 26.4238 105.186 26.0547 106.909 26.0547C109.546 26.0547 111.591 26.6875 113.044 27.9531C114.509 29.2188 115.241 31.0059 115.241 33.3145C115.241 34.5801 114.913 35.8691 114.257 37.1816C113.6 38.4941 112.475 40.0234 110.882 41.7695L105.063 47.9043H116.067V52Z" fill="white"/>
<path d="M118.951 49.5039C118.951 48.6953 119.22 48.0391 119.759 47.5352C120.31 47.0312 120.996 46.7793 121.816 46.7793C122.648 46.7793 123.334 47.0312 123.873 47.5352C124.423 48.0391 124.699 48.6953 124.699 49.5039C124.699 50.3008 124.429 50.9512 123.89 51.4551C123.351 51.9473 122.66 52.1934 121.816 52.1934C120.984 52.1934 120.298 51.9473 119.759 51.4551C119.22 50.9512 118.951 50.3008 118.951 49.5039Z" fill="white"/>
<path d="M145.459 41.418C145.459 44.957 144.727 47.6641 143.262 49.5391C141.797 51.4141 139.653 52.3516 136.828 52.3516C134.039 52.3516 131.907 51.4316 130.43 49.5918C128.953 47.752 128.198 45.1152 128.162 41.6816V36.9707C128.162 33.3965 128.901 30.6836 130.377 28.832C131.866 26.9805 134.004 26.0547 136.793 26.0547C139.582 26.0547 141.715 26.9746 143.192 28.8145C144.668 30.6426 145.424 33.2734 145.459 36.707V41.418ZM140.379 36.25C140.379 34.1289 140.086 32.5879 139.5 31.627C138.926 30.6543 138.024 30.168 136.793 30.168C135.598 30.168 134.713 30.6309 134.139 31.5566C133.576 32.4707 133.278 33.9062 133.243 35.8633V42.0859C133.243 44.1719 133.524 45.7246 134.086 46.7441C134.66 47.752 135.575 48.2559 136.828 48.2559C138.071 48.2559 138.967 47.7695 139.518 46.7969C140.069 45.8242 140.356 44.3359 140.379 42.332V36.25Z" fill="white"/>
<path d="M148.642 49.5039C148.642 48.6953 148.911 48.0391 149.45 47.5352C150.001 47.0312 150.687 46.7793 151.507 46.7793C152.339 46.7793 153.024 47.0312 153.564 47.5352C154.114 48.0391 154.39 48.6953 154.39 49.5039C154.39 50.3008 154.12 50.9512 153.581 51.4551C153.042 51.9473 152.351 52.1934 151.507 52.1934C150.675 52.1934 149.989 51.9473 149.45 51.4551C148.911 50.9512 148.642 50.3008 148.642 49.5039ZM148.642 35.1074C148.642 34.2988 148.911 33.6426 149.45 33.1387C150.001 32.6348 150.687 32.3828 151.507 32.3828C152.339 32.3828 153.024 32.6348 153.564 33.1387C154.114 33.6426 154.39 34.2988 154.39 35.1074C154.39 35.9043 154.12 36.5547 153.581 37.0586C153.042 37.5508 152.351 37.7969 151.507 37.7969C150.675 37.7969 149.989 37.5508 149.45 37.0586C148.911 36.5547 148.642 35.9043 148.642 35.1074Z" fill="white"/>
<path d="M201 20.3219C207.413 20.3219 208.172 20.35 210.694 20.4625C213.038 20.5656 214.303 20.9594 215.147 21.2875C216.263 21.7188 217.069 22.2438 217.903 23.0781C218.747 23.9219 219.263 24.7188 219.694 25.8344C220.022 26.6781 220.416 27.9531 220.519 30.2875C220.631 32.8187 220.659 33.5781 220.659 39.9813C220.659 46.3938 220.631 47.1531 220.519 49.675C220.416 52.0188 220.022 53.2844 219.694 54.1281C219.263 55.2438 218.737 56.05 217.903 56.8844C217.059 57.7281 216.263 58.2438 215.147 58.675C214.303 59.0031 213.028 59.3969 210.694 59.5C208.163 59.6125 207.403 59.6406 201 59.6406C194.588 59.6406 193.828 59.6125 191.306 59.5C188.963 59.3969 187.697 59.0031 186.853 58.675C185.738 58.2438 184.931 57.7188 184.097 56.8844C183.253 56.0406 182.738 55.2438 182.306 54.1281C181.978 53.2844 181.584 52.0094 181.481 49.675C181.369 47.1438 181.341 46.3844 181.341 39.9813C181.341 33.5688 181.369 32.8094 181.481 30.2875C181.584 27.9437 181.978 26.6781 182.306 25.8344C182.738 24.7188 183.263 23.9125 184.097 23.0781C184.941 22.2344 185.738 21.7188 186.853 21.2875C187.697 20.9594 188.972 20.5656 191.306 20.4625C193.828 20.35 194.588 20.3219 201 20.3219ZM201 16C194.484 16 193.669 16.0281 191.109 16.1406C188.559 16.2531 186.806 16.6656 185.288 17.2562C183.703 17.875 182.363 18.6906 181.031 20.0312C179.691 21.3625 178.875 22.7031 178.256 24.2781C177.666 25.8063 177.253 27.55 177.141 30.1C177.028 32.6687 177 33.4844 177 40C177 46.5156 177.028 47.3312 177.141 49.8906C177.253 52.4406 177.666 54.1938 178.256 55.7125C178.875 57.2969 179.691 58.6375 181.031 59.9688C182.363 61.3 183.703 62.125 185.278 62.7344C186.806 63.325 188.55 63.7375 191.1 63.85C193.659 63.9625 194.475 63.9906 200.991 63.9906C207.506 63.9906 208.322 63.9625 210.881 63.85C213.431 63.7375 215.184 63.325 216.703 62.7344C218.278 62.125 219.619 61.3 220.95 59.9688C222.281 58.6375 223.106 57.2969 223.716 55.7219C224.306 54.1938 224.719 52.45 224.831 49.9C224.944 47.3406 224.972 46.525 224.972 40.0094C224.972 33.4938 224.944 32.6781 224.831 30.1188C224.719 27.5688 224.306 25.8156 223.716 24.2969C223.125 22.7031 222.309 21.3625 220.969 20.0312C219.638 18.7 218.297 17.875 216.722 17.2656C215.194 16.675 213.45 16.2625 210.9 16.15C208.331 16.0281 207.516 16 201 16Z" fill="white"/>
<path d="M201 27.6719C194.194 27.6719 188.672 33.1938 188.672 40C188.672 46.8062 194.194 52.3281 201 52.3281C207.806 52.3281 213.328 46.8062 213.328 40C213.328 33.1938 207.806 27.6719 201 27.6719ZM201 47.9969C196.584 47.9969 193.003 44.4156 193.003 40C193.003 35.5844 196.584 32.0031 201 32.0031C205.416 32.0031 208.997 35.5844 208.997 40C208.997 44.4156 205.416 47.9969 201 47.9969Z" fill="white"/>
<path d="M216.694 27.1843C216.694 28.778 215.4 30.0624 213.816 30.0624C212.222 30.0624 210.938 28.7687 210.938 27.1843C210.938 25.5905 212.231 24.3062 213.816 24.3062C215.4 24.3062 216.694 25.5999 216.694 27.1843Z" fill="white"/>
<path d="M269 16C255.744 16 245 26.7438 245 40C245 50.1719 251.328 58.8531 260.253 62.35C260.047 60.4469 259.85 57.5406 260.338 55.4688C260.778 53.5938 263.15 43.5437 263.15 43.5437C263.15 43.5437 262.428 42.1094 262.428 39.9813C262.428 36.6438 264.359 34.15 266.769 34.15C268.812 34.15 269.806 35.6875 269.806 37.5344C269.806 39.5969 268.494 42.6719 267.819 45.5219C267.256 47.9125 269.019 49.8625 271.372 49.8625C275.637 49.8625 278.919 45.3625 278.919 38.875C278.919 33.1281 274.794 29.1063 268.897 29.1063C262.072 29.1063 258.059 34.225 258.059 39.5219C258.059 41.5844 258.856 43.7969 259.85 44.9969C260.047 45.2312 260.075 45.4469 260.019 45.6813C259.841 46.4406 259.428 48.0719 259.353 48.4C259.25 48.8406 259.006 48.9344 258.547 48.7188C255.547 47.3219 253.672 42.9438 253.672 39.4188C253.672 31.8438 259.175 24.8969 269.525 24.8969C277.85 24.8969 284.319 30.8313 284.319 38.7625C284.319 47.0312 279.106 53.6875 271.869 53.6875C269.441 53.6875 267.153 52.4219 266.366 50.9313C266.366 50.9313 265.166 55.5156 264.875 56.6406C264.331 58.7219 262.869 61.3375 261.894 62.9313C264.144 63.625 266.525 64 269 64C282.256 64 293 53.2562 293 40C293 26.7438 282.256 16 269 16Z" fill="white"/>
</svg>
