<svg width="777" height="204" viewBox="0 0 777 204" fill="none" xmlns="http://www.w3.org/2000/svg">
<path d="M273.709 72.2218C273.302 76.5275 271.713 79.8907 268.941 82.3114C266.169 84.7137 262.483 85.9148 257.881 85.9148C254.666 85.9148 251.829 85.1572 249.372 83.6419C246.932 82.1082 245.048 79.9369 243.717 77.128C242.387 74.3192 241.694 71.0577 241.638 67.3434V63.5736C241.638 59.7669 242.313 56.413 243.662 53.5117C245.011 50.6105 246.942 48.3746 249.455 46.8038C251.986 45.2331 254.906 44.4478 258.214 44.4478C262.667 44.4478 266.252 45.6581 268.969 48.0789C271.685 50.4997 273.265 53.9183 273.709 58.3348H266.724C266.391 55.4336 265.541 53.3454 264.173 52.0704C262.824 50.7768 260.838 50.1301 258.214 50.1301C255.165 50.1301 252.818 51.2481 251.173 53.484C249.547 55.7015 248.716 58.9631 248.679 63.2687V66.8444C248.679 71.2055 249.455 74.5317 251.007 76.8231C252.578 79.1145 254.869 80.2602 257.881 80.2602C260.635 80.2602 262.704 79.6412 264.09 78.4031C265.476 77.165 266.354 75.1046 266.724 72.2218H273.709Z" fill="#121212"/>
<path d="M297.27 85.3605C296.974 84.7876 296.715 83.8544 296.493 82.5609C294.35 84.7969 291.726 85.9148 288.621 85.9148C285.609 85.9148 283.151 85.0556 281.248 83.337C279.345 81.6185 278.393 79.4934 278.393 76.9617C278.393 73.7648 279.576 71.3164 281.941 69.6163C284.325 67.8977 287.725 67.0384 292.142 67.0384H296.272V65.0704C296.272 63.5182 295.837 62.2801 294.969 61.3561C294.1 60.4137 292.779 59.9425 291.005 59.9425C289.471 59.9425 288.215 60.3305 287.235 61.1067C286.256 61.8643 285.766 62.8345 285.766 64.0171H279.031C279.031 62.3725 279.576 60.8387 280.666 59.4158C281.756 57.9745 283.235 56.8472 285.101 56.0341C286.986 55.2211 289.083 54.8145 291.393 54.8145C294.904 54.8145 297.704 55.7015 299.792 57.4755C301.88 59.231 302.952 61.7072 303.007 64.9041V78.4308C303.007 81.1288 303.386 83.2816 304.144 84.8893V85.3605H297.27ZM289.869 80.5097C291.199 80.5097 292.446 80.1863 293.611 79.5396C294.793 78.8928 295.68 78.0243 296.272 76.934V71.2794H292.64C290.146 71.2794 288.27 71.7137 287.014 72.5822C285.757 73.4507 285.129 74.6796 285.129 76.2688C285.129 77.5623 285.554 78.5971 286.404 79.3732C287.272 80.1309 288.427 80.5097 289.869 80.5097Z" fill="#121212"/>
<path d="M336.325 70.6696C336.325 75.3078 335.272 79.0129 333.165 81.7848C331.059 84.5382 328.231 85.9148 324.683 85.9148C321.394 85.9148 318.761 84.8338 316.783 82.6718V96.8914H310.048V55.3689H316.257L316.534 58.418C318.511 56.0157 321.2 54.8145 324.6 54.8145C328.259 54.8145 331.123 56.182 333.193 58.9169C335.281 61.6333 336.325 65.4123 336.325 70.2538V70.6696ZM329.617 70.0875C329.617 67.0939 329.017 64.7193 327.815 62.9638C326.633 61.2083 324.933 60.3305 322.715 60.3305C319.962 60.3305 317.985 61.467 316.783 63.7399V77.0449C318.003 79.3732 319.999 80.5374 322.771 80.5374C324.914 80.5374 326.587 79.6782 327.788 77.9596C329.007 76.2226 329.617 73.5985 329.617 70.0875Z" fill="#121212"/>
<path d="M350.489 48.0789V55.3689H355.784V60.3583H350.489V77.1003C350.489 78.246 350.711 79.0776 351.155 79.595C351.617 80.0939 352.43 80.3434 353.594 80.3434C354.37 80.3434 355.155 80.251 355.95 80.0662V85.2773C354.416 85.7023 352.938 85.9148 351.515 85.9148C346.341 85.9148 343.754 83.0598 343.754 77.3498V60.3583H338.82V55.3689H343.754V48.0789H350.489Z" fill="#121212"/>
<path d="M379.123 82.4223C377.145 84.7507 374.337 85.9148 370.696 85.9148C367.444 85.9148 364.977 84.9632 363.295 83.0598C361.632 81.1565 360.801 78.4031 360.801 74.7997V55.3689H367.536V74.7165C367.536 78.5232 369.116 80.4266 372.276 80.4266C375.547 80.4266 377.755 79.2531 378.901 76.9063V55.3689H385.637V85.3605H379.289L379.123 82.4223Z" fill="#121212"/>
<path d="M408.2 61.5224C407.313 61.3746 406.398 61.3007 405.455 61.3007C402.369 61.3007 400.29 62.4834 399.219 64.8487V85.3605H392.483V55.3689H398.914L399.08 58.7229C400.706 56.1173 402.961 54.8145 405.843 54.8145C406.804 54.8145 407.599 54.9439 408.227 55.2026L408.2 61.5224Z" fill="#121212"/>
<path d="M425.108 85.9148C420.839 85.9148 417.374 84.5751 414.713 81.8956C412.071 79.1977 410.75 75.6127 410.75 71.1408V70.3092C410.75 67.3156 411.322 64.6454 412.468 62.2986C413.632 59.9332 415.259 58.0946 417.347 56.7826C419.435 55.4705 421.763 54.8145 424.332 54.8145C428.416 54.8145 431.566 56.1173 433.784 58.7229C436.02 61.3284 437.138 65.015 437.138 69.7826V72.499H417.541C417.744 74.9752 418.566 76.934 420.008 78.3754C421.468 79.8167 423.297 80.5374 425.496 80.5374C428.582 80.5374 431.095 79.2901 433.035 76.7954L436.667 80.2602C435.465 82.0527 433.858 83.4479 431.844 84.4458C429.848 85.4252 427.603 85.9148 425.108 85.9148ZM424.304 60.2197C422.456 60.2197 420.959 60.8664 419.814 62.16C418.686 63.4535 417.966 65.2552 417.652 67.5651H430.485V67.0662C430.337 64.8117 429.737 63.1116 428.684 61.9659C427.63 60.8018 426.17 60.2197 424.304 60.2197Z" fill="#121212"/>
<path d="M479.769 75.9638H464.136L460.865 85.3605H453.575L468.82 45.0021H475.112L490.385 85.3605H483.068L479.769 75.9638ZM466.104 70.3092H477.801L471.952 53.5672L466.104 70.3092Z" fill="#121212"/>
<path d="M519.268 70.6696C519.268 75.3078 518.215 79.0129 516.108 81.7848C514.002 84.5382 511.174 85.9148 507.626 85.9148C504.337 85.9148 501.704 84.8338 499.726 82.6718V96.8914H492.991V55.3689H499.2L499.477 58.418C501.454 56.0157 504.143 54.8145 507.543 54.8145C511.202 54.8145 514.066 56.182 516.136 58.9169C518.224 61.6333 519.268 65.4123 519.268 70.2538V70.6696ZM512.56 70.0875C512.56 67.0939 511.96 64.7193 510.759 62.9638C509.576 61.2083 507.876 60.3305 505.658 60.3305C502.905 60.3305 500.928 61.467 499.726 63.7399V77.0449C500.946 79.3732 502.942 80.5374 505.714 80.5374C507.857 80.5374 509.53 79.6782 510.731 77.9596C511.95 76.2226 512.56 73.5985 512.56 70.0875Z" fill="#121212"/>
<path d="M551.255 70.6696C551.255 75.3078 550.202 79.0129 548.095 81.7848C545.989 84.5382 543.162 85.9148 539.614 85.9148C536.324 85.9148 533.691 84.8338 531.714 82.6718V96.8914H524.978V55.3689H531.187L531.464 58.418C533.442 56.0157 536.13 54.8145 539.53 54.8145C543.189 54.8145 546.054 56.182 548.123 58.9169C550.211 61.6333 551.255 65.4123 551.255 70.2538V70.6696ZM544.548 70.0875C544.548 67.0939 543.947 64.7193 542.746 62.9638C541.563 61.2083 539.863 60.3305 537.646 60.3305C534.892 60.3305 532.915 61.467 531.714 63.7399V77.0449C532.933 79.3732 534.929 80.5374 537.701 80.5374C539.845 80.5374 541.517 79.6782 542.718 77.9596C543.938 76.2226 544.548 73.5985 544.548 70.0875Z" fill="#121212"/>
<path d="M267.589 127.463H256.127V159.254H251.449V127.463H240.011V123.593H267.589V127.463Z" fill="#808080"/>
<path d="M276.7 135.962C278.708 133.496 281.321 132.263 284.537 132.263C290.138 132.263 292.963 135.423 293.012 141.742V159.254H288.481V141.717C288.464 139.807 288.023 138.395 287.158 137.48C286.309 136.566 284.978 136.109 283.166 136.109C281.696 136.109 280.406 136.5 279.296 137.284C278.186 138.068 277.32 139.097 276.7 140.37V159.254H272.169V121.634H276.7V135.962Z" fill="#808080"/>
<path d="M310.793 159.743C307.201 159.743 304.278 158.568 302.025 156.217C299.771 153.849 298.645 150.69 298.645 146.738V145.905C298.645 143.277 299.143 140.934 300.139 138.876C301.151 136.803 302.555 135.186 304.351 134.027C306.164 132.851 308.123 132.263 310.23 132.263C313.675 132.263 316.353 133.398 318.263 135.668C320.173 137.937 321.129 141.187 321.129 145.416V147.302H303.176C303.241 149.914 304 152.028 305.454 153.645C306.923 155.245 308.785 156.045 311.038 156.045C312.638 156.045 313.993 155.719 315.104 155.066C316.214 154.412 317.185 153.547 318.018 152.469L320.786 154.625C318.565 158.037 315.234 159.743 310.793 159.743ZM310.23 135.986C308.401 135.986 306.866 136.656 305.625 137.995C304.384 139.317 303.617 141.178 303.323 143.579H316.598V143.236C316.467 140.934 315.846 139.154 314.736 137.897C313.626 136.623 312.124 135.986 310.23 135.986Z" fill="#808080"/>
<path d="M349.833 159.743C346.241 159.743 343.318 158.568 341.065 156.217C338.812 153.849 337.685 150.69 337.685 146.738V145.905C337.685 143.277 338.183 140.934 339.179 138.876C340.192 136.803 341.596 135.186 343.392 134.027C345.204 132.851 347.164 132.263 349.27 132.263C352.715 132.263 355.393 133.398 357.303 135.668C359.214 137.937 360.169 141.187 360.169 145.416V147.302H342.216C342.282 149.914 343.041 152.028 344.494 153.645C345.964 155.245 347.825 156.045 350.078 156.045C351.678 156.045 353.034 155.719 354.144 155.066C355.254 154.412 356.226 153.547 357.058 152.469L359.826 154.625C357.605 158.037 354.275 159.743 349.833 159.743ZM349.27 135.986C347.441 135.986 345.906 136.656 344.665 137.995C343.425 139.317 342.657 141.178 342.363 143.579H355.638V143.236C355.507 140.934 354.887 139.154 353.777 137.897C352.666 136.623 351.164 135.986 349.27 135.986Z" fill="#808080"/>
<path d="M369.721 132.753L369.868 136.084C371.893 133.537 374.538 132.263 377.803 132.263C383.404 132.263 386.229 135.423 386.278 141.742V159.254H381.747V141.717C381.73 139.807 381.289 138.395 380.424 137.48C379.575 136.566 378.244 136.109 376.432 136.109C374.962 136.109 373.672 136.5 372.562 137.284C371.452 138.068 370.586 139.097 369.966 140.37V159.254H365.435V132.753H369.721Z" fill="#808080"/>
<path d="M399.258 126.336V132.753H404.206V136.256H399.258V152.69C399.258 153.751 399.479 154.551 399.92 155.09C400.361 155.612 401.112 155.874 402.173 155.874C402.695 155.874 403.414 155.776 404.328 155.58V159.254C403.136 159.58 401.977 159.743 400.85 159.743C398.826 159.743 397.299 159.131 396.27 157.907C395.242 156.682 394.727 154.943 394.727 152.69V136.256H389.902V132.753H394.727V126.336H399.258Z" fill="#808080"/>
<path d="M422.33 136.819C421.644 136.705 420.901 136.647 420.101 136.647C417.129 136.647 415.113 137.913 414.052 140.444V159.254H409.521V132.753H413.929L414.003 135.815C415.488 133.447 417.595 132.263 420.322 132.263C421.203 132.263 421.873 132.378 422.33 132.606V136.819Z" fill="#808080"/>
<path d="M441.899 159.254C441.638 158.731 441.426 157.8 441.262 156.462C439.156 158.65 436.641 159.743 433.719 159.743C431.106 159.743 428.959 159.009 427.277 157.539C425.612 156.053 424.779 154.176 424.779 151.906C424.779 149.147 425.824 147.008 427.914 145.489C430.02 143.954 432.976 143.187 436.78 143.187H441.189V141.105C441.189 139.521 440.715 138.264 439.768 137.333C438.821 136.386 437.425 135.913 435.58 135.913C433.964 135.913 432.608 136.321 431.514 137.137C430.42 137.954 429.873 138.942 429.873 140.101H425.318C425.318 138.778 425.783 137.505 426.714 136.28C427.661 135.039 428.935 134.059 430.535 133.341C432.151 132.623 433.923 132.263 435.85 132.263C438.903 132.263 441.295 133.031 443.026 134.566C444.757 136.084 445.655 138.182 445.72 140.86V153.057C445.72 155.49 446.03 157.425 446.651 158.862V159.254H441.899ZM434.38 155.8C435.801 155.8 437.148 155.433 438.421 154.698C439.695 153.963 440.617 153.008 441.189 151.833V146.395H437.637C432.086 146.395 429.31 148.02 429.31 151.269C429.31 152.69 429.784 153.8 430.731 154.6C431.678 155.4 432.894 155.8 434.38 155.8Z" fill="#808080"/>
<path d="M457.109 132.753L457.256 136.084C459.28 133.537 461.925 132.263 465.191 132.263C470.792 132.263 473.616 135.423 473.665 141.742V159.254H469.134V141.717C469.118 139.807 468.677 138.395 467.812 137.48C466.963 136.566 465.632 136.109 463.82 136.109C462.35 136.109 461.06 136.5 459.95 137.284C458.839 138.068 457.974 139.097 457.354 140.37V159.254H452.823V132.753H457.109Z" fill="#808080"/>
<path d="M491.128 156.045C492.745 156.045 494.157 155.555 495.365 154.576C496.574 153.596 497.243 152.371 497.374 150.902H501.66C501.578 152.42 501.056 153.865 500.092 155.237C499.129 156.609 497.839 157.702 496.223 158.519C494.622 159.335 492.924 159.743 491.128 159.743C487.52 159.743 484.646 158.543 482.507 156.143C480.384 153.727 479.323 150.428 479.323 146.248V145.489C479.323 142.909 479.797 140.615 480.744 138.607C481.691 136.598 483.046 135.039 484.809 133.929C486.589 132.819 488.687 132.263 491.104 132.263C494.075 132.263 496.541 133.153 498.5 134.933C500.476 136.713 501.529 139.023 501.66 141.864H497.374C497.243 140.15 496.59 138.746 495.414 137.652C494.255 136.541 492.818 135.986 491.104 135.986C488.801 135.986 487.014 136.819 485.74 138.484C484.483 140.133 483.854 142.526 483.854 145.661V146.518C483.854 149.571 484.483 151.922 485.74 153.571C486.997 155.221 488.793 156.045 491.128 156.045Z" fill="#808080"/>
<path d="M517.751 159.743C514.159 159.743 511.236 158.568 508.983 156.217C506.73 153.849 505.603 150.69 505.603 146.738V145.905C505.603 143.277 506.101 140.934 507.097 138.876C508.109 136.803 509.514 135.186 511.31 134.027C513.122 132.851 515.081 132.263 517.188 132.263C520.633 132.263 523.311 133.398 525.221 135.668C527.132 137.937 528.087 141.187 528.087 145.416V147.302H510.134C510.199 149.914 510.959 152.028 512.412 153.645C513.881 155.245 515.743 156.045 517.996 156.045C519.596 156.045 520.951 155.719 522.062 155.066C523.172 154.412 524.144 153.547 524.976 152.469L527.744 154.625C525.523 158.037 522.192 159.743 517.751 159.743ZM517.188 135.986C515.359 135.986 513.824 136.656 512.583 137.995C511.342 139.317 510.575 141.178 510.281 143.579H523.556V143.236C523.425 140.934 522.805 139.154 521.694 137.897C520.584 136.623 519.082 135.986 517.188 135.986Z" fill="#808080"/>
<path d="M551.942 126.336V132.753H556.89V136.256H551.942V152.69C551.942 153.751 552.163 154.551 552.603 155.09C553.044 155.612 553.795 155.874 554.857 155.874C555.379 155.874 556.098 155.776 557.012 155.58V159.254C555.82 159.58 554.661 159.743 553.534 159.743C551.509 159.743 549.983 159.131 548.954 157.907C547.925 156.682 547.411 154.943 547.411 152.69V136.256H542.586V132.753H547.411V126.336H551.942Z" fill="#808080"/>
<path d="M560.514 145.759C560.514 143.162 561.021 140.827 562.033 138.754C563.062 136.68 564.482 135.08 566.294 133.953C568.123 132.827 570.205 132.263 572.54 132.263C576.148 132.263 579.063 133.512 581.284 136.011C583.521 138.509 584.639 141.832 584.639 145.979V146.297C584.639 148.877 584.141 151.196 583.145 153.253C582.165 155.294 580.753 156.886 578.908 158.029C577.079 159.172 574.973 159.743 572.589 159.743C568.997 159.743 566.082 158.494 563.845 155.996C561.625 153.498 560.514 150.192 560.514 146.077V145.759ZM565.07 146.297C565.07 149.236 565.747 151.596 567.103 153.376C568.474 155.155 570.303 156.045 572.589 156.045C574.891 156.045 576.72 155.147 578.075 153.351C579.43 151.539 580.108 149.008 580.108 145.759C580.108 142.852 579.414 140.501 578.026 138.705C576.655 136.892 574.826 135.986 572.54 135.986C570.303 135.986 568.499 136.876 567.127 138.656C565.756 140.436 565.07 142.983 565.07 146.297Z" fill="#808080"/>
<path d="M611.164 148.012L611.85 152.714L612.854 148.477L619.908 123.593H623.875L630.758 148.477L631.737 152.788L632.497 147.987L638.032 123.593H642.759L634.113 159.254H629.827L622.479 133.268L621.916 130.549L621.353 133.268L613.736 159.254H609.45L600.828 123.593H605.531L611.164 148.012Z" fill="#808080"/>
<path d="M657.503 159.743C653.911 159.743 650.988 158.568 648.735 156.217C646.482 153.849 645.355 150.69 645.355 146.738V145.905C645.355 143.277 645.853 140.934 646.849 138.876C647.861 136.803 649.266 135.186 651.062 134.027C652.874 132.851 654.833 132.263 656.94 132.263C660.385 132.263 663.063 133.398 664.973 135.668C666.884 137.937 667.839 141.187 667.839 145.416V147.302H649.886C649.951 149.914 650.711 152.028 652.164 153.645C653.633 155.245 655.495 156.045 657.748 156.045C659.348 156.045 660.703 155.719 661.814 155.066C662.924 154.412 663.896 153.547 664.728 152.469L667.496 154.625C665.275 158.037 661.944 159.743 657.503 159.743ZM656.94 135.986C655.111 135.986 653.576 136.656 652.335 137.995C651.094 139.317 650.327 141.178 650.033 143.579H663.308V143.236C663.177 140.934 662.557 139.154 661.446 137.897C660.336 136.623 658.834 135.986 656.94 135.986Z" fill="#808080"/>
<path d="M695.539 146.297C695.539 150.347 694.609 153.604 692.747 156.07C690.886 158.519 688.388 159.743 685.253 159.743C681.905 159.743 679.317 158.56 677.489 156.192L677.268 159.254H673.105V121.634H677.636V135.668C679.464 133.398 681.987 132.263 685.204 132.263C688.42 132.263 690.943 133.48 692.772 135.913C694.617 138.346 695.539 141.676 695.539 145.905V146.297ZM691.008 145.783C691.008 142.697 690.412 140.313 689.22 138.631C688.028 136.95 686.314 136.109 684.077 136.109C681.089 136.109 678.942 137.497 677.636 140.272V151.735C679.023 154.51 681.187 155.898 684.126 155.898C686.298 155.898 687.988 155.057 689.196 153.376C690.404 151.694 691.008 149.163 691.008 145.783Z" fill="#808080"/>
<path d="M719.835 139.219H723.24C725.379 139.186 727.061 138.623 728.285 137.529C729.51 136.435 730.122 134.957 730.122 133.096C730.122 128.916 728.04 126.826 723.877 126.826C721.917 126.826 720.35 127.389 719.174 128.516C718.015 129.626 717.435 131.104 717.435 132.949H712.904C712.904 130.124 713.933 127.781 715.99 125.92C718.064 124.042 720.693 123.103 723.877 123.103C727.24 123.103 729.877 123.993 731.788 125.773C733.698 127.553 734.653 130.026 734.653 133.194C734.653 134.745 734.147 136.247 733.135 137.701C732.139 139.154 730.775 140.24 729.044 140.958C731.004 141.579 732.514 142.607 733.576 144.044C734.653 145.481 735.192 147.236 735.192 149.31C735.192 152.51 734.147 155.049 732.057 156.927C729.967 158.805 727.248 159.743 723.901 159.743C720.554 159.743 717.827 158.837 715.721 157.025C713.631 155.212 712.586 152.82 712.586 149.849H717.141C717.141 151.726 717.754 153.229 718.978 154.355C720.203 155.482 721.844 156.045 723.901 156.045C726.089 156.045 727.763 155.474 728.922 154.331C730.081 153.188 730.661 151.547 730.661 149.408C730.661 147.334 730.024 145.742 728.751 144.632C727.477 143.522 725.64 142.95 723.24 142.917H719.835V139.219Z" fill="#808080"/>
<path d="M741.976 156.878C741.976 156.094 742.205 155.441 742.662 154.919C743.136 154.396 743.838 154.135 744.768 154.135C745.699 154.135 746.401 154.396 746.875 154.919C747.365 155.441 747.609 156.094 747.609 156.878C747.609 157.629 747.365 158.258 746.875 158.764C746.401 159.27 745.699 159.523 744.768 159.523C743.838 159.523 743.136 159.27 742.662 158.764C742.205 158.258 741.976 157.629 741.976 156.878Z" fill="#808080"/>
<path d="M777 144.044C777 149.351 776.094 153.294 774.281 155.874C772.469 158.454 769.636 159.743 765.783 159.743C761.978 159.743 759.162 158.486 757.333 155.972C755.504 153.441 754.557 149.669 754.492 144.656V138.607C754.492 133.366 755.398 129.471 757.21 126.924C759.023 124.377 761.864 123.103 765.734 123.103C769.571 123.103 772.396 124.336 774.208 126.802C776.02 129.251 776.951 133.039 777 138.166V144.044ZM772.469 137.848C772.469 134.01 771.93 131.218 770.852 129.471C769.775 127.708 768.069 126.826 765.734 126.826C763.415 126.826 761.725 127.7 760.664 129.447C759.602 131.194 759.055 133.88 759.023 137.505V144.754C759.023 148.608 759.578 151.457 760.688 153.302C761.815 155.131 763.513 156.045 765.783 156.045C768.02 156.045 769.677 155.18 770.755 153.449C771.849 151.718 772.42 148.991 772.469 145.269V137.848Z" fill="#808080"/>
<path fill-rule="evenodd" clip-rule="evenodd" d="M193.939 144.643C188.905 155.556 181.981 165.493 173.487 173.994H173.477C164.045 183.445 152.842 190.943 140.508 196.059C128.175 201.175 114.953 203.809 101.601 203.809C88.2485 203.809 75.0271 201.175 62.6936 196.059C50.3601 190.943 39.1567 183.445 29.7247 173.994C-9.90823 134.246 -9.90823 69.5668 29.7247 29.8144C69.3576 -9.93812 133.844 -9.93812 173.477 29.8144C181.971 38.3162 188.895 48.2527 193.929 59.1651L161.878 74.0003C151.361 51.1741 128.332 35.3336 101.61 35.3336C64.9534 35.3336 35.2415 65.1382 35.2415 101.904C35.2415 138.67 64.951 168.475 101.61 168.475C128.325 168.475 151.354 152.634 161.878 129.808L193.939 144.643ZM113.515 73.099C117.288 74.664 120.715 76.9577 123.601 79.8488C126.198 82.4506 128.316 85.4903 129.857 88.828L161.877 74.0001C165.897 82.7535 167.977 92.2719 167.977 101.904C167.977 111.536 165.897 121.054 161.877 129.808L129.857 114.98C127.761 119.532 124.595 123.51 120.63 126.574C116.664 129.639 112.017 131.7 107.084 132.582C102.15 133.464 97.0769 133.14 92.2955 131.639C87.514 130.138 83.1663 127.503 79.6226 123.959C67.4982 111.798 67.4982 92.0098 79.6226 79.8488C82.5083 76.9577 85.9358 74.664 89.709 73.099C93.4822 71.5341 97.527 70.7285 101.612 70.7285C105.697 70.7285 109.741 71.5341 113.515 73.099Z" fill="#0000D8"/>
</svg>
