<svg xmlns="http://www.w3.org/2000/svg" viewBox="0 0 425 425" width="425" height="425" preserveAspectRatio="xMidYMid meet" style="width: 100%; height: 100%; transform: translate3d(0px, 0px, 0px);"><defs><clipPath id="__lottie_element_3"><rect width="425" height="425" x="0" y="0"></rect></clipPath></defs><g clip-path="url(#__lottie_element_3)"><g transform="matrix(1,0,0,1,212.5,212.5)" opacity="1" style="display: none;"><g opacity="1" transform="matrix(1,0,0,1,0,0)"><path stroke-linecap="butt" stroke-linejoin="miter" fill-opacity="0" stroke-miterlimit="10" stroke="rgb(251,243,217)" stroke-opacity="1" stroke-width="20" d=" M-190,0 C-190,0 190,0 190,0"></path></g></g><g transform="matrix(1,0,0,1,212.5,212.5)" opacity="1" style="display: none;"><g opacity="1" transform="matrix(1,0,0,1,0,0)"><path stroke-linecap="butt" stroke-linejoin="miter" fill-opacity="0" stroke-miterlimit="10" stroke="rgb(251,243,217)" stroke-opacity="1" stroke-width="20" d=" M-190,0 C-190,0 190,0 190,0"></path></g></g><g transform="matrix(1,0,0,1,212.5,212.5)" opacity="1" style="display: none;"><g opacity="1" transform="matrix(1,0,0,1,0,0)"><path stroke-linecap="butt" stroke-linejoin="miter" fill-opacity="0" stroke-miterlimit="10" stroke="rgb(251,243,217)" stroke-opacity="1" stroke-width="20" d=" M-190,0 C-190,0 190,0 190,0"></path></g></g><g transform="matrix(1,0,0,1,212.50599670410156,212.50599670410156)" opacity="1" style="display: block;"><g opacity="1" transform="matrix(1,0,0,1,0,0)"><path stroke-linecap="butt" stroke-linejoin="miter" fill-opacity="0" stroke-miterlimit="10" stroke="rgb(251,243,217)" stroke-opacity="1" stroke-width="20" d=" M-134.35000610351562,-134.35000610351562 C-134.35000610351562,-134.35000610351562 134.35000610351562,134.35000610351562 134.35000610351562,134.35000610351562"></path></g></g><g transform="matrix(-1,0,0,-1,212.51499938964844,212.4969940185547)" opacity="1" style="display: block;"><g opacity="1" transform="matrix(1,0,0,1,0,0)"><path stroke-linecap="butt" stroke-linejoin="miter" fill-opacity="0" stroke-miterlimit="10" stroke="rgb(251,243,217)" stroke-opacity="1" stroke-width="20" d=" M-134.35000610351562,134.35000610351562 C-134.35000610351562,134.35000610351562 134.35000610351562,-134.35000610351562 134.35000610351562,-134.35000610351562"></path></g></g><g transform="matrix(1.0625,0,0,1.0625,212.5,212.5)" opacity="1" style="display: none;"><g opacity="1" transform="matrix(1,0,0,1,0,0)"><path stroke-linecap="butt" stroke-linejoin="miter" fill-opacity="0" stroke-miterlimit="10" stroke="rgb(251,243,217)" stroke-opacity="1" stroke-width="5" d=" M10.130999565124512,191.73699951171875 C6.776000022888184,191.91200256347656 3.3980000019073486,192 0,192"></path></g></g><g transform="matrix(-1.0566794872283936,-0.11106149107217789,0.11106149107217789,-1.0566794872283936,212.5,212.5)" opacity="1" style="display: none;"><g opacity="1" transform="matrix(1,0,0,1,0,0)"><path stroke-linecap="butt" stroke-linejoin="miter" fill-opacity="0" stroke-miterlimit="10" stroke="rgb(251,243,217)" stroke-opacity="1" stroke-width="5" d=" M10.130999565124512,191.73699951171875 C6.776000022888184,191.91200256347656 3.3980000019073486,192 0,192"></path></g></g></g></svg>